<svg width="480" height="365" viewBox="0 0 480 365" fill="none" xmlns="http://www.w3.org/2000/svg">
<path d="M224.599 363.7C223.999 363.7 223.499 363.7 222.899 363.7C221.899 363.6 220.899 363.6 219.699 363.5C217.899 363.4 215.999 363.4 214.599 363.2C204.799 362.3 195.199 360.5 186.399 357.7C155.799 348.5 129.299 328.4 111.399 300.9C109.199 306.2 105.399 311.3 100.299 316.1C98.7986 327.5 93.3986 336.3 84.5986 341.7C78.2986 345.6 70.0986 347.6 60.9986 347.6C51.4986 347.6 41.0986 345.4 30.8986 341.2L29.7986 340.7C29.3986 340.6 29.1986 340.3 28.9986 339.9L28.4986 338.8C22.9986 327 21.2986 320.7 20.7986 317.4C12.6986 309.5 10.8986 300.5 10.8986 294.4C10.7986 287 13.3986 279.2 17.6986 274C13.0986 261.6 14.0986 258.2 18.0986 251.2L18.5986 250.3C18.7986 250 34.6986 222.7 54.5986 222.7C56.7986 222.7 58.9986 223 61.0986 223.7C76.6986 228.7 83.3986 244.7 85.2986 250.5C87.4986 251.4 89.7986 252.7 92.0986 254.2C91.3986 250.9 90.8986 247.5 90.3986 244.2C90.0986 243.8 89.8986 243.5 89.5986 243.1C85.3986 236.5 83.3986 229 81.6986 221.9C79.9986 214.5 78.6986 205.8 82.5986 197.9C83.8986 195.4 85.4986 193.5 87.3986 192.3L80.4986 174.9C74.5986 160 77.6986 134.4 87.0986 120C93.0986 110.9 99.9986 108.8 104.599 108.6C104.799 108.6 104.999 108.6 105.199 108.6C110.899 108.6 113.599 111.3 114.899 113.6C117.399 118.1 115.199 122.7 114.499 124.2C113.599 126.1 112.299 128.2 110.699 130.9C105.499 139.3 96.7986 153.3 95.4986 172.6L94.7986 181.9C105.399 143.1 124.099 108.7 149.399 81.9L149.499 81.8C153.799 77.5 161.799 69.6 169.699 66.2L174.099 56C180.499 41 202.399 25.7 217.499 25.7C222.499 25.7 226.799 27.3 229.999 30.3C234.199 34.2 234.299 38 233.599 40.5C232.699 43.8 230.299 46.1 226.299 47.6C224.499 48.2 222.499 48.7 219.899 49.4C211.399 51.5 198.499 54.5 186.399 65.1L183.499 67.6C185.399 69.6 186.599 72.9 184.599 78.2C195.199 71.5 206.999 66.5 218.299 61.6C224.299 59 230.499 56.4 236.399 53.5C244.999 49.3 252.699 44.4 259.999 38.7C264.599 35.2 268.499 32.6 272.299 30.4C272.299 30.4 272.399 30.4 272.399 30.3C276.899 27.8 281.599 25.2 287.499 24.9H287.599C292.199 24.9 294.499 27 295.699 28.7C298.699 33.1 297.499 40 295.699 44.7C294.499 47.7 292.499 50.6 289.899 53.3C293.299 53.2 296.699 53.1 300.099 53.1C312.799 53.1 326.099 53.9 339.799 55.4C343.699 55.8 357.599 57.6 370.699 61C386.999 65.2 396.599 70.5 399.099 76.8C400.499 80.3 399.799 84.1 396.799 87.9C417.199 99.5 434.899 113.8 449.399 130.5C451.999 133.4 452.999 137.5 451.999 141.4C450.999 145.3 448.199 148.5 444.399 149.7C442.999 150.2 441.199 150.4 439.699 150.5H439.199C425.299 151.7 410.699 153.5 397.599 158.5C398.599 159.8 399.499 161 400.499 162.3L400.699 162.2C407.999 159 413.999 158.4 417.699 158.4C424.799 158.4 429.699 160.8 431.199 164.9C431.799 166.5 432.599 170.5 427.899 174.5C426.099 176 423.699 177.7 420.599 177.7C418.199 177.7 416.299 176.7 414.399 175.7C412.699 174.8 410.799 173.7 407.599 172.9C409.399 175.8 411.199 178.9 412.999 182.2C423.599 201.3 428.899 221.1 428.799 240.9C429.499 241.7 429.999 242.5 430.399 243.1C432.699 247.2 435.699 257.8 432.799 265C431.599 267.8 429.699 269.8 427.099 270.9C429.399 280.1 426.499 286.7 418.599 290.2C421.399 298.2 419.299 306.5 412.499 313C406.399 319 400.999 320.2 397.599 320.2C396.799 320.2 396.099 320.1 395.399 320C388.599 326.9 380.899 333.3 372.499 338.9C372.399 339.1 372.199 339.3 371.999 339.4L358.799 349.2C349.699 356 338.699 359 332.299 359C331.799 359 331.199 359 330.699 358.9C327.199 360 323.699 361.1 319.899 362C319.299 362.1 318.699 362.2 318.099 362.2C315.999 362.2 313.999 361.3 312.499 359.8C305.499 352.1 299.299 343.9 293.899 335.5C275.199 351.4 255.599 360.7 235.499 363C232.299 363.5 228.399 363.7 224.599 363.7Z" fill="white"/>
<path d="M287.699 26.3C297.699 26.3 297.099 37.1 294.299 44C292.699 47.9 289.699 51.6 285.999 54.9C290.699 54.7 295.399 54.6 300.099 54.6C313.299 54.6 326.499 55.4 339.599 56.9C351.799 58.3 412.599 66.5 395.199 87.6C394.899 87.9 394.699 88.1 394.399 88.3C414.699 99.5 433.099 114 448.299 131.5C453.199 136.9 450.899 146 443.999 148.4C442.599 148.9 440.699 149 439.199 149.1C424.499 150.4 409.099 152.3 395.299 157.9C396.899 160 398.499 162.1 400.099 164.3L401.399 163.7C408.499 160.6 414.199 160 417.799 160C424.199 160 428.599 162 429.899 165.5C430.399 166.8 430.999 170.1 426.999 173.4C425.399 174.7 423.299 176.2 420.699 176.2C418.599 176.2 416.999 175.3 415.299 174.4C413.099 173.2 410.199 171.6 404.699 170.7C407.099 174.5 409.499 178.6 411.899 182.9C422.399 202 427.699 221.8 427.499 241.5C428.199 242.4 428.799 243.2 429.299 243.9C432.499 249.5 436.399 266.8 425.599 269.9C425.499 269.8 425.399 269.7 425.299 269.6C427.499 276.8 427.599 285.4 416.799 289.4C420.299 297.5 418.299 305.5 411.599 312C405.899 317.6 400.999 318.8 397.799 318.8C396.699 318.8 395.699 318.6 395.099 318.5C387.999 325.8 379.899 332.5 370.799 338.4L371.299 338.3L357.999 348.1C349.099 354.7 338.499 357.7 332.399 357.7C331.799 357.7 331.199 357.7 330.699 357.6C327.199 358.8 323.499 359.8 319.699 360.8C319.199 360.9 318.799 361 318.299 361C316.599 361 314.999 360.3 313.799 359.1C306.399 350.9 299.999 342.4 294.499 333.6C276.999 348.8 256.899 359.4 235.599 361.9C232.199 362.3 228.399 362.5 224.899 362.5C224.299 362.5 223.799 362.5 223.299 362.5C221.099 362.3 217.399 362.3 215.199 362C205.799 361.2 196.299 359.4 187.199 356.6C155.099 347 128.399 325.4 111.399 297.9C109.699 303.5 105.999 309.6 99.1986 315.7C97.8986 326.9 92.6986 335.5 84.0986 340.7C77.8986 344.5 69.9986 346.4 61.2986 346.4C52.0986 346.4 41.9986 344.3 31.7986 340.1L30.6986 339.6L30.1986 338.5C24.3986 326 22.8986 319.8 22.4986 317C14.4986 309.4 12.6986 300.7 12.5986 294.7C12.4986 287.2 15.2986 279.6 19.6986 274.6C14.7986 261.7 15.8986 258.8 19.6986 252.3L20.1986 251.4C20.3986 251.1 35.8986 224.5 54.8986 224.5C56.8986 224.5 58.8986 224.8 60.9986 225.4C76.4986 230.3 82.7986 246.6 84.3986 251.9C87.5986 253.2 91.1986 255.2 94.6986 257.9C93.5986 253.3 92.7986 248.6 92.1986 243.9C91.8986 243.5 91.5986 243 91.2986 242.5C87.2986 236.2 85.2986 228.9 83.5986 221.8C81.7986 214.3 80.7986 206.1 84.3986 198.8C85.7986 196 87.6986 194.2 89.6986 193.2L82.2986 174.6C76.5986 160.1 79.5986 135.1 88.7986 121.1C94.4986 112.5 100.799 110.5 105.099 110.4C105.299 110.4 105.499 110.4 105.699 110.4C110.699 110.4 112.999 112.7 114.099 114.6C116.199 118.4 114.299 122.5 113.699 123.8C112.799 125.7 111.499 127.7 109.899 130.3C104.599 138.8 95.7986 153.1 94.3986 172.7L92.9986 192.4C93.3986 192.4 93.7986 192.4 94.1986 192.5C103.599 152 122.399 113.4 150.899 83.2C155.299 78.9 163.499 70.8 171.199 67.6L175.799 56.8C181.999 42.2 203.199 27.4 217.799 27.4C222.399 27.4 226.299 28.8 229.299 31.5C232.899 34.9 232.999 38.1 232.499 40.2C231.399 44.3 227.399 45.8 226.099 46.2C224.399 46.8 222.399 47.3 219.799 47.9C211.099 50 198.099 53.1 185.699 63.9L181.499 67.5C185.999 70.6 184.799 76.2 181.199 82.2C182.599 81.3 184.099 80.3 185.599 79.4C201.799 69.2 220.199 63 237.299 54.8C245.799 50.6 253.699 45.7 261.199 39.8C265.099 36.9 268.999 34.1 273.299 31.6C277.699 29 282.099 26.5 287.699 26.3ZM287.699 23.3C287.599 23.3 287.599 23.3 287.499 23.3C281.299 23.6 276.499 26.3 271.799 28.8H271.699C271.699 28.8 271.699 28.8 271.599 28.8C267.799 31 263.799 33.7 259.199 37.2C259.199 37.2 259.199 37.2 259.099 37.2C251.899 42.9 244.199 47.7 235.799 51.9C229.899 54.7 223.799 57.4 217.799 59.9C207.499 64.3 196.999 68.8 187.099 74.6C187.599 71.5 186.899 69.2 185.699 67.4L187.499 65.9C199.299 55.6 211.999 52.5 220.299 50.5C222.899 49.9 224.999 49.4 226.899 48.7C231.399 47.1 234.199 44.4 235.199 40.6C235.799 38.2 236.099 33.6 231.199 28.9C227.699 25.7 223.099 23.9 217.699 23.9C201.899 23.9 179.699 39.4 172.999 55.2L168.799 64.9C160.899 68.5 152.999 76.3 148.699 80.5L148.599 80.6C148.599 80.6 148.599 80.6 148.499 80.7C126.099 104.5 108.699 134.2 97.6986 167.6C99.9986 151.2 107.499 139 112.199 131.4C113.899 128.7 115.199 126.6 116.099 124.6C118.299 120.1 118.399 116.1 116.499 112.6C115.299 110.5 112.299 106.9 105.499 106.9C105.299 106.9 104.999 106.9 104.799 106.9C99.7986 107.1 92.3986 109.3 86.0986 119C81.3986 126.1 78.0986 136 76.7986 146.8C75.4986 157.6 76.3986 167.7 79.2986 175.2L85.6986 191.5C83.9986 192.8 82.4986 194.7 81.3986 196.9C81.3986 196.9 81.3986 196.9 81.3986 197C77.2986 205.4 78.5986 214.3 80.3986 222C82.0986 229.2 84.1986 236.9 88.4986 243.7C88.6986 244 88.8986 244.3 89.0986 244.6C89.3986 246.7 89.6986 248.9 90.0986 251.1C88.8986 250.4 87.6986 249.9 86.5986 249.3C84.2986 242.8 77.3986 227.2 61.6986 222.2C59.3986 221.5 57.0986 221.1 54.6986 221.1C45.9986 221.1 36.9986 225.9 28.0986 235.4C21.4986 242.5 17.3986 249.4 17.3986 249.5L16.8986 250.4C12.7986 257.5 11.5986 261.3 16.0986 273.6C11.7986 279.1 9.39861 286.7 9.49861 294.3C9.59861 300.6 11.3986 309.8 19.4986 318C20.0986 321.5 21.9986 327.9 27.2986 339.3L27.7986 340.4C28.0986 341.1 28.6986 341.6 29.3986 341.9L30.4986 342.4C40.8986 346.7 51.4986 348.9 61.1986 348.9C70.4986 348.9 78.9986 346.8 85.4986 342.8C94.5986 337.3 100.199 328.3 101.799 316.7C106.099 312.6 109.399 308.3 111.699 303.8C129.699 330.5 155.899 349.9 185.999 359C194.899 361.8 204.499 363.6 214.499 364.5C215.999 364.7 217.799 364.8 219.699 364.8C220.799 364.8 221.899 364.9 222.799 365C222.899 365 222.899 365 222.999 365C223.599 365 224.099 365 224.699 365C228.599 365 232.499 364.8 235.799 364.4C255.599 362.1 275.099 353.1 293.599 337.7C298.799 345.7 304.799 353.4 311.399 360.7C313.099 362.5 315.499 363.6 318.099 363.6C318.799 363.6 319.499 363.5 320.199 363.3C323.899 362.3 327.399 361.3 330.799 360.2C331.299 360.2 331.699 360.2 332.199 360.2C338.799 360.2 350.199 357 359.599 350.1L372.899 340.3C373.199 340.1 373.399 339.9 373.599 339.6C381.799 334.2 389.299 328 395.999 321.3C396.599 321.4 397.099 321.4 397.699 321.4C401.399 321.4 407.099 320.1 413.599 313.7C420.399 307.1 422.799 298.8 420.399 290.6C427.699 286.9 430.599 280.2 428.799 271.4C431.199 270.1 433.099 268 434.199 265.2C437.199 257.8 434.499 247 431.699 242C431.399 241.4 430.899 240.7 430.299 240C430.299 220.1 424.899 200.2 414.299 181.1C413.199 179.1 412.099 177.2 410.999 175.3C411.999 175.8 412.899 176.2 413.599 176.6C415.499 177.6 417.599 178.8 420.499 178.8C424.099 178.8 426.999 176.8 428.799 175.3C434.399 170.6 433.099 165.5 432.599 164.1C430.899 159.3 425.399 156.6 417.699 156.6C413.999 156.6 408.199 157.2 401.099 160.1C400.799 159.7 400.499 159.2 400.199 158.8C412.699 154.4 426.499 152.8 439.599 151.6H439.999C441.499 151.5 443.399 151.3 445.099 150.7C449.299 149.2 452.499 145.7 453.599 141.3C454.699 136.9 453.599 132.3 450.599 129C436.299 112.6 418.999 98.4 398.999 86.9C401.999 82.2 401.499 78.3 400.499 75.7C397.799 68.9 388.099 63.4 371.099 59C357.799 55.6 343.899 53.8 339.999 53.4C326.299 51.9 312.799 51.1 300.099 51.1C297.799 51.1 295.499 51.1 293.299 51.2C294.899 49.1 296.199 46.9 297.099 44.7C299.199 39.5 300.299 32.2 296.999 27.3C295.599 25.7 292.899 23.3 287.699 23.3Z" fill="#DC222D"/>
<path d="M336.699 41.6C331.699 41.6 326.399 40.8 320.899 39.4L306.399 35.5C305.799 35.3 305.399 34.8 305.299 34.2C305.199 33.6 305.499 33 305.999 32.7L318.999 25.1C329.299 19.1 333.399 13.8 336.399 9.89999C339.299 6.09999 342.899 1.5 349.999 1.5C352.399 1.5 354.999 2.1 358.199 3.2C365.399 5.9 369.299 13 367.899 20.8C366.199 30.8 355.699 41.6 336.699 41.6Z" fill="white"/>
<path d="M350.099 3C352.299 3 354.799 3.5 357.799 4.7C364.299 7.1 367.799 13.5 366.599 20.7C364.899 30.1 354.899 40.2 336.799 40.2C331.999 40.2 326.799 39.5 321.399 38L306.899 34.1L319.899 26.5C330.499 20.3 334.699 14.9 337.799 10.9C340.499 7.19999 343.699 3 350.099 3ZM350.099 0C342.299 0 338.299 5.2 335.299 9C332.399 12.8 328.299 18 318.299 23.8L305.299 31.4C304.299 32 303.699 33.2 303.799 34.4C303.999 35.6 304.799 36.6 305.999 36.9L320.499 40.8C326.199 42.3 331.599 43.1 336.699 43.1C356.499 43.1 367.499 31.7 369.399 21.2C370.899 12.6 366.699 4.79999 358.699 1.89999C355.399 0.599994 352.699 0 350.099 0Z" fill="#DC222D"/>
<path d="M456.299 119.3C452.099 119.3 447.499 117.8 443.299 115.1C438.799 112.2 434.999 108.1 432.499 103.2L426.899 92.6C426.599 92.1 426.699 91.4 427.099 90.9C427.399 90.6 427.799 90.4 428.199 90.4C428.399 90.4 428.499 90.4 428.699 90.5L439.999 94.6C443.599 95.9 446.999 96.5 450.399 96.5C452.199 96.5 453.799 96.3 455.199 96.2C456.399 96.1 457.599 95.9 458.799 95.9C463.199 95.9 468.499 97.9 468.799 107.2C468.899 110.5 467.899 113.4 465.799 115.6C463.599 118 460.299 119.3 456.299 119.3Z" fill="white"/>
<path d="M428.299 91.9L439.599 96C443.299 97.3 446.899 98 450.499 98C452.399 98 454.099 97.8 455.499 97.7C456.699 97.6 457.799 97.5 458.899 97.5C464.299 97.5 467.199 100.8 467.499 107.3C467.599 110.2 466.699 112.7 464.899 114.6C462.899 116.7 459.899 117.8 456.399 117.8C452.499 117.8 448.199 116.4 444.199 113.9C439.899 111.1 436.299 107.2 433.899 102.6L428.299 91.9ZM428.299 88.9C427.399 88.9 426.599 89.3 425.999 89.9C425.199 90.8 424.999 92.2 425.599 93.3L431.199 103.9C433.899 109 437.799 113.3 442.499 116.4C446.899 119.2 451.799 120.8 456.299 120.8C460.699 120.8 464.299 119.4 466.999 116.6C469.399 114.1 470.599 110.8 470.499 107C470.199 98.9 465.999 94.3 458.999 94.3C457.799 94.3 456.599 94.4 455.299 94.6C453.899 94.7 452.299 94.9 450.599 94.9C447.399 94.9 444.099 94.3 440.699 93.1L429.399 89C428.999 89 428.599 88.9 428.299 88.9Z" fill="#DC222D"/>
<path d="M82.2986 254.1C98.5986 259.6 127.099 287.5 96.6986 313.9C93.8986 344.8 61.7986 348.5 33.4986 336.9C25.4986 319.5 26.0986 315.3 26.0986 315.3C11.0986 302 15.7986 282.5 23.8986 275.1C18.1986 260.6 19.6986 259.2 23.4986 252.7C27.2986 246.2 43.8986 222.9 60.5986 228.2C77.1986 233.5 82.2986 254.1 82.2986 254.1Z" fill="white" stroke="white" stroke-width="6.2762" stroke-miterlimit="10"/>
<path d="M82.2986 254.1C79.8986 254.9 78.4986 256.8 77.0986 258.7C75.6986 260.6 74.5986 262.6 73.3986 264.6C67.5986 274.8 63.8986 287 65.2986 298.7C65.3986 299.7 65.9986 300.4 66.8986 300.8C70.9986 302.7 74.9986 303.8 79.4986 303.4C80.8986 303.3 82.4986 303.1 83.9986 302.9C85.4986 302.9 86.7986 301.8 86.9986 300.3C89.3986 289.9 92.3986 279.7 96.7986 269.9C96.4986 280.6 94.7986 291 93.1986 301.4C93.0986 302.2 92.7986 303.2 92.3986 304C91.0986 307 88.0986 309.1 84.7986 309.5L83.8986 309.6C79.9986 310.3 75.6986 310.8 71.5986 309.9C65.0986 308.5 58.1986 306.2 57.6986 298.5C56.5986 287.8 59.6986 277.3 64.4986 267.9C66.9986 263.2 69.8986 258.7 74.3986 255.6C76.6986 254.4 79.6986 253 82.2986 254.1Z" fill="#002451"/>
<path d="M64.1986 274.8C55.6986 268 43.8986 265.1 33.5986 269.4C30.0986 270.8 26.8986 272.8 23.7986 275.2C32.2986 266.2 44.0986 261.9 56.2986 265C60.2986 266 64.0986 267.6 67.6986 269.6L64.1986 274.8Z" fill="#002451"/>
<path d="M60.7986 299.7C50.6986 297.2 38.3986 297.6 30.6986 305.5C28.1986 308.1 26.4986 311.6 25.9986 315.3C25.8986 307.4 31.4986 300.3 38.4986 297C45.6986 293.5 53.8986 292.7 61.7986 293.5C61.8986 293.5 60.7986 299.7 60.7986 299.7Z" fill="#002451"/>
<path d="M80.7986 308C80.3986 311 79.9986 314.1 79.3986 317.2C78.7986 319.8 78.1986 322.9 75.4986 324.4C74.8986 324.8 74.0986 324.9 73.3986 325.1C66.9986 326.7 60.7986 328.8 54.2986 329.8C50.0986 330.4 46.0986 330.6 41.7986 329.1C43.4986 327.4 45.2986 326.4 47.1986 325.4C55.1986 321.8 64.0986 321.5 72.5986 319.5C72.6986 319.5 72.7986 319.5 72.7986 319.4C72.7986 319.4 72.6986 319.5 72.7986 319.3C74.3986 315.7 74.5986 311.3 75.1986 307.3L80.7986 308Z" fill="#002451"/>
<path d="M53.9986 326.4C53.7986 330.1 51.5986 332.6 48.8986 334.4C49.3986 332.1 49.5986 329.4 47.8986 327.7L53.9986 326.4Z" fill="#002451"/>
<path d="M357.399 207.7C353.799 263.6 297.499 360.6 224.399 358.8C151.299 357 93.3986 296.2 95.1986 223.1C95.6986 201 104.899 177.4 113.599 158.8C131.399 120.9 178.699 73.9 243.899 63.7C292.999 56 387.399 66.1 446.599 133.8C450.399 138.2 447.499 145.1 441.699 145.5C378.199 150 359.599 172.7 357.399 207.7Z" fill="#002451"/>
<path d="M360.499 207.9C355.299 269.2 302.899 352.1 238.099 361.4C236.299 361.6 233.599 361.8 231.899 362C227.899 362.3 223.599 362.2 219.599 362C208.799 361.4 197.899 359.5 187.599 356.3C123.499 337.2 80.7986 269.8 94.1986 203.7C96.3986 193.1 99.8986 182.8 103.899 172.9C107.999 162.9 112.399 153 118.099 143.9C140.699 107.2 179.299 83.2 219.199 69.2C229.199 65.7 239.499 62.5 249.999 60.6C260.599 58.6 271.299 58 282.099 58.3C303.499 58.9 324.899 62 345.599 67.8C384.999 78.7 422.099 100.1 449.099 131.2C453.999 136.6 451.699 145.7 444.799 148.1C443.399 148.6 441.499 148.7 439.999 148.8C418.599 150.7 395.499 154 378.299 167.8C366.399 177.6 361.399 192.9 360.499 207.9ZM354.299 207.5C356.599 159.5 393.999 146.8 435.499 142.6L439.499 142.3L441.499 142.1C441.899 142 442.199 142 442.499 141.9C444.699 141.2 445.799 138 444.099 136.2C431.599 122 416.899 109.7 400.799 99.7C360.699 75.1 313.099 63.9 266.199 64.6C250.499 64.6 234.599 65.4 219.299 69.7C188.599 78.4 162.499 98.4 141.999 122.3C135.199 130.2 128.899 138.5 123.499 147.3C117.999 156.2 113.899 165.8 109.999 175.4C104.299 189.9 99.7986 204.9 98.7986 220.4C96.3986 266.9 121.399 313.5 161.599 337.1C182.999 350 210.399 357.3 235.399 354.9C297.799 347.8 349.199 265.9 354.299 207.5Z" fill="white"/>
<path d="M85.6986 173.2C80.3986 159.7 83.2986 135.6 91.8986 122.6C95.7986 116.7 100.599 113.5 105.699 113.3C105.899 113.3 105.999 113.3 106.199 113.3C107.199 113.3 110.399 113.3 111.799 115.9C113.499 119 111.399 122.3 107.699 128.5C102.299 137.3 93.1986 151.9 91.7986 172.3L90.7986 186L85.6986 173.2Z" fill="#002451"/>
<path d="M106.199 116.4C118.199 116.4 91.2986 134.6 88.5986 172C81.4986 154.1 90.2986 116.9 105.799 116.4C105.999 116.4 106.099 116.4 106.199 116.4ZM106.199 110.1C105.999 110.1 105.799 110.1 105.599 110.1C101.299 110.2 94.8986 112.2 89.2986 120.8C80.0986 134.8 77.0986 159.8 82.7986 174.3L92.8986 199.9L94.8986 172.4C96.2986 152.7 105.099 138.5 110.399 130C114.499 123.3 117.199 119 114.599 114.3C113.499 112.4 111.199 110.1 106.199 110.1Z" fill="white"/>
<path d="M179.299 57.8C184.999 44.4 205.099 30.3 218.399 30.3C222.199 30.3 225.399 31.4 227.699 33.6C228.399 34.3 230.699 36.4 229.999 39.2C229.199 42.4 225.599 43.2 219.699 44.7C211.299 46.7 197.199 50.1 184.299 61.4L173.899 70.5L179.299 57.8Z" fill="#002451"/>
<path d="M218.399 33.4C221.299 33.4 223.699 34.2 225.599 35.9C233.599 43.4 206.299 38 182.199 59.1C187.299 46.9 206.299 33.4 218.399 33.4ZM218.399 27.1C203.799 27.1 182.599 42 176.399 56.5L165.599 81.8L186.299 63.7C198.699 52.9 211.699 49.7 220.399 47.7C226.999 46.1 231.699 45 232.999 40C233.599 37.9 233.399 34.7 229.799 31.3C226.899 28.6 222.999 27.1 218.399 27.1Z" fill="white"/>
<path d="M337.499 36.9C332.899 36.9 327.999 36.2 322.899 34.8L315.599 32.8L322.099 29C333.199 22.5 337.599 16.8 340.899 12.6C343.699 8.99999 345.999 6 350.799 6C352.599 6 354.699 6.5 357.399 7.5C362.499 9.4 365.199 14.3 364.199 20C362.699 28.2 353.799 36.9 337.499 36.9Z" fill="#002451"/>
<path d="M350.799 9.29999C352.199 9.29999 353.999 9.69999 356.299 10.6C366.699 14.5 360.699 33.9 337.499 33.9C333.399 33.9 328.799 33.3 323.699 31.9C344.599 19.7 343.499 9.29999 350.799 9.29999ZM350.799 3C344.499 3 341.199 7.19999 338.399 10.8C335.299 14.8 331.099 20.2 320.499 26.4L307.499 34L321.999 37.9C327.399 39.4 332.599 40.1 337.399 40.1C355.499 40.1 365.499 30 367.199 20.6C368.499 13.5 364.999 7.09999 358.399 4.59999C355.499 3.49999 353.099 3 350.799 3Z" fill="white"/>
<path d="M249.599 59.1C313.599 48.2 412.999 65.6 393.699 85.4C382.399 96.9 339.299 71.9 312.699 76.5" fill="#002451"/>
<path d="M249.599 59.1C269.499 55.2 289.799 54.2 309.999 54.6C330.299 55.2 350.599 57.2 370.399 62.1C380.699 64.8 408.299 72.6 395.899 87.4C389.399 93.8 379.099 91.5 371.199 90C361.199 87.7 351.799 84.3 341.999 81.5C332.399 78.8 322.699 76.2 312.599 76.8C312.399 76.8 312.299 76.7 312.299 76.5C312.299 76.3 312.399 76.2 312.499 76.2C322.499 73.6 333.099 75.1 343.099 76.9C353.099 78.9 362.899 81.6 372.499 83.6C376.999 84.5 381.899 85.4 386.399 85C389.399 84.8 391.799 83.5 392.799 81.1C392.999 80.5 393.099 80 392.899 79.4C392.499 78.1 390.899 76.4 389.099 75.2C383.099 71.1 375.999 68.8 369.099 66.8C359.499 64.1 349.699 62.3 339.799 60.8C309.999 56.5 279.599 55.2 249.599 59.1Z" fill="white"/>
<path d="M163.099 96.4C202.099 64.2 230.699 65.9 260.899 43C291.099 20.1 297.899 28.6 292.599 42.3C287.299 56 255.699 72.1 233.599 72.2" fill="#002451"/>
<path d="M163.099 96.4C177.399 83.6 194.099 73.7 211.799 66.2C220.599 62.3 229.499 58.9 237.899 54.7C244.199 51.6 250.399 48.1 256.099 43.9C263.899 38.2 271.499 31.9 280.599 28.1C291.299 23.4 299.199 27.7 296.199 40.1C292.099 60.9 252.499 74.6 233.599 72.4C233.399 72.4 233.299 72.2 233.299 72.1C233.299 71.9 233.399 71.8 233.599 71.8C243.099 70.7 251.999 67.6 260.499 63.7C270.699 58.9 280.899 52.8 287.999 44.2C290.199 41.3 291.999 36.5 291.299 33.1C290.399 29.6 284.799 31.6 282.199 32.5C273.499 35.9 265.999 41.8 258.299 47.2C252.299 51.3 245.899 54.9 239.299 57.9C230.499 61.9 221.499 65.2 212.699 68.7C194.999 75.5 178.199 84.6 163.099 96.4Z" fill="white"/>
<path d="M321.399 129.6C341.699 106.3 353.399 102.9 352.599 117.6C351.799 132.3 331.899 130.9 304.199 163" fill="#002451"/>
<path d="M321.399 129.6C325.699 123.9 330.299 118.4 335.599 113.6C338.399 111.2 341.399 108.8 344.999 107.5C354.399 104.2 356.199 115.6 353.999 122.2C351.199 129.7 343.599 133.1 337.599 137.4C333.699 139.9 329.699 142.4 325.899 145.1C318.299 150.4 311.199 156.7 304.499 163.3C304.399 163.4 304.199 163.4 304.099 163.3C303.999 163.2 303.999 163 304.099 162.9C312.399 151.4 322.999 141.1 334.899 133.2L340.799 129.4C344.299 127.1 348.199 124.6 349.799 120.7C350.699 118.4 351.499 111.8 348.599 110.7C341.199 109.6 326.899 124.5 321.399 129.6Z" fill="white"/>
<path d="M148.599 242.1C134.899 216 141.499 170.8 154.499 166.7C169.699 161.9 150.999 188.6 160.099 189.6C169.199 190.6 174.099 136.4 194.199 140.4C204.199 142.4 188.599 162.9 188.599 162.9" fill="#002451"/>
<path d="M148.599 242.1C139.899 227.4 137.999 209.5 139.599 192.7C140.899 182.5 144.199 164.3 156.899 163.2C159.999 162.8 163.099 164.9 163.499 168.1C164.299 175 158.899 180.3 158.799 186.9C158.799 188.4 160.399 188.9 161.399 187.9C164.099 185.1 165.199 180.9 166.599 177.3C169.199 169.4 171.199 161.2 174.599 153.2C178.099 144.7 185.799 133.7 196.799 138.1C206.599 143.9 194.499 158.5 188.599 163C190.099 159 191.799 155.1 193.099 151.3C193.899 148.9 194.899 146.2 194.399 144C194.299 143.7 194.299 143.8 194.099 143.7C186.999 142 182.599 150.4 179.499 155.6C175.599 162.7 172.599 170.6 169.399 178.4C167.599 182.4 166.199 186.7 162.999 189.9C161.399 191.4 158.399 191.3 156.999 189.4C155.299 186.7 156.199 183.5 156.399 180.6C156.699 177.7 158.099 171.6 157.499 169.2C157.599 169.3 157.799 169.4 157.799 169.4C157.099 169.2 155.699 169.6 155.099 169.8C148.399 173 145.399 186.6 144.199 193.5C141.699 209.5 142.199 226.7 148.599 242.1Z" fill="white"/>
<path d="M89.5986 221.1C103.099 125.9 164.499 65.3 178.999 69.4C193.499 73.5 147.199 116.1 147.199 116.1" fill="#002451"/>
<path d="M89.5986 221.1C95.5986 170.5 116.099 120.3 151.399 82.9C157.599 76.8 171.399 63.1 180.899 66.6C195.899 74.1 166.099 100.6 159.499 106.6C155.599 110 151.699 113.2 147.499 116.2C147.199 116.4 146.799 116 147.099 115.7C155.299 105.9 163.599 96.5 171.199 86.3C173.799 82.6 176.999 78.3 178.299 74.2C178.599 73.3 178.599 72.5 178.599 72.4C177.799 71.9 177.099 72.1 175.799 72.3C167.799 74.8 161.299 80.8 155.199 86.4C119.799 122.3 98.1986 172 89.5986 221.1Z" fill="white"/>
<path d="M96.3986 244.3C97.5986 253.4 99.7986 262.3 102.799 270.8C107.899 279.3 114.099 282 120.399 281C131.199 279.3 132.099 266.5 130.899 259C123.699 258 103.499 247.9 96.3986 244.3Z" fill="white"/>
<path d="M230.699 241.2C228.799 261.3 213.499 277.3 193.299 276.8C179.499 276.5 166.799 268.1 160.899 256.6C171.599 252.9 213.599 230.7 229.599 214.2C231.299 222.8 231.399 234.5 230.699 241.2Z" fill="white"/>
<path d="M208.199 357.4C296.299 313.8 286.999 212.8 286.999 212.8C213.499 326.7 170.599 316.7 159.499 316.6C148.399 316.5 136.599 316.6 112.999 292.7C132.699 326.8 167.299 351.4 208.199 357.4Z" fill="white"/>
<path d="M130.899 259C98.1986 254.5 90.7986 245.8 85.5986 218.5C80.3986 191.6 107.499 177.6 101.899 235.4" fill="#002451"/>
<path d="M130.899 259C116.699 257.7 99.9986 255.3 91.6986 242.2C87.6986 235.9 85.6986 228.6 83.9986 221.5C82.1986 214 81.1986 205.8 84.7986 198.5C89.5986 189.2 99.1986 190.4 102.399 200.2C104.499 206.3 104.599 212.3 104.399 218.2C104.099 224.1 103.299 229.8 102.099 235.5C101.999 235.8 101.599 235.8 101.599 235.4C101.499 229.6 101.299 223.9 100.799 218.2C100.299 212.8 99.4986 207.1 97.2986 202.2C96.2986 200.2 94.4986 196.8 92.1986 199C87.0986 204.3 86.4986 213.3 88.0986 220.6C89.3986 227.4 90.8986 234.4 94.4986 240.5C101.699 253.3 117.599 256.3 130.899 259Z" fill="white"/>
<path d="M141.699 302.8C142.599 311.2 146.199 319 150.899 325.9C155.799 333.1 161.999 339.4 168.699 345C161.299 340.2 154.299 334.6 148.499 327.9C142.499 321 137.599 313 135.599 303.8C135.499 303.8 141.699 302.8 141.699 302.8Z" fill="#002451"/>
<path d="M170.799 306.7C173.999 325.7 188.999 340.8 203.799 352.3C205.699 353.8 208.699 355.9 210.599 357.3C208.499 356.1 205.299 354.3 203.299 353C191.199 345.4 179.899 336.2 171.899 324.2C168.699 319.3 165.999 314 164.599 308C164.599 307.8 170.799 306.7 170.799 306.7Z" fill="#002451"/>
<path d="M117.125 264.937C120.809 264.21 123.068 259.932 122.171 255.38C121.273 250.829 117.558 247.728 113.874 248.455C110.189 249.181 107.93 253.46 108.828 258.012C109.725 262.563 113.44 265.664 117.125 264.937Z" fill="#002451"/>
<path d="M160.899 256.5C208.199 239.1 279.299 176.8 265.599 164.4C251.899 152.1 230.099 200.1 230.099 200.1" fill="#002451"/>
<path d="M160.899 256.5C176.499 250.3 190.899 241.5 204.599 231.9C218.299 222.3 231.599 212 243.399 200.1C248.699 195 266.699 173.9 263.699 167C259.099 161.7 251.099 170.9 247.999 174.5C241.299 182.4 235.799 191.2 230.199 200.1C230.099 200.3 229.799 200.1 229.899 200C233.899 188.1 246.399 159.4 260.899 159.3C265.499 159.3 270.299 163.1 270.299 167.9C270.399 174.1 266.599 179.2 263.099 183.8C257.599 190.5 251.399 196.1 245.099 201.9C232.599 213.2 219.399 223.8 205.399 233.1C191.499 242.4 176.799 250.9 160.899 256.5Z" fill="white"/>
<path d="M203.599 301.8C208.999 315 219.699 326.2 230.999 334.8C234.899 337.7 239.099 340.4 243.499 342.6C229.499 337.1 216.899 328.2 206.799 317C203.399 313.2 200.299 309.1 197.799 304.2C197.799 304.3 203.599 301.8 203.599 301.8Z" fill="#002451"/>
<path d="M193.362 256.418C199.864 255.135 203.853 247.595 202.271 239.575C200.689 231.556 194.136 226.095 187.634 227.377C181.132 228.659 177.143 236.2 178.725 244.219C180.306 252.239 186.859 257.7 193.362 256.418Z" fill="#002451"/>
<path d="M205.199 245.6L190.399 244.9L206.099 257.1L205.199 245.6Z" fill="white"/>
<path d="M115.399 259.7L123.399 264.8L123.999 261L115.399 259.7Z" fill="white"/>
<path d="M227.699 282.6C231.999 294.6 240.399 305.2 251.099 312.2C254.699 314.6 258.599 316.6 262.699 318.3C258.499 317.1 254.299 315.5 250.299 313.5C238.099 307.4 228.099 297.4 221.899 285C221.899 285.1 227.699 282.6 227.699 282.6Z" fill="#002451"/>
<path d="M421.299 174.4C419.699 174.4 418.399 173.7 416.699 172.8C414.099 171.4 410.599 169.5 403.299 168.6L396.799 167.8L402.799 165.2C408.099 162.9 413.699 161.7 418.499 161.7C423.999 161.7 427.899 163.3 428.899 166.1C429.299 167.2 429.599 169.5 426.499 172C424.499 173.7 422.899 174.4 421.299 174.4Z" fill="#002451"/>
<path d="M418.499 163.4C426.099 163.4 429.999 166.8 425.399 170.6C423.699 172.1 422.499 172.6 421.299 172.6C418.099 172.6 415.499 168.3 403.499 166.8C409.099 164.4 414.299 163.4 418.499 163.4ZM418.499 159.9C414.899 159.9 409.199 160.5 402.099 163.6L390.099 168.8L403.099 170.4C409.999 171.2 413.399 173.1 415.899 174.4C417.599 175.3 419.299 176.2 421.299 176.2C423.899 176.2 426.099 174.7 427.599 173.4C431.599 170.1 430.999 166.8 430.499 165.5C429.199 161.9 424.799 159.9 418.499 159.9Z" fill="white"/>
<path d="M457.099 115.5C450.799 115.5 441.799 111.1 436.699 101.5L433.899 96.2L439.499 98.2C443.499 99.6 447.299 100.3 451.199 100.3C453.199 100.3 454.899 100.1 456.499 100C457.699 99.9 458.699 99.8 459.599 99.8C464.799 99.8 465.699 103.9 465.799 107.4C465.899 109.6 465.199 111.6 463.799 113C462.299 114.6 459.999 115.5 457.099 115.5Z" fill="#002451"/>
<path d="M438.799 100.4C443.799 102.2 447.899 102.7 451.299 102.7C454.999 102.7 457.799 102.1 459.699 102.1C462.199 102.1 463.399 103.1 463.599 107.5C463.799 111.3 460.999 113.2 457.199 113.2C451.399 113.1 443.299 108.9 438.799 100.4ZM429.099 91.9L434.699 102.5C437.099 107.2 440.699 111.1 444.999 113.8C448.899 116.3 453.299 117.7 457.199 117.7C460.699 117.7 463.699 116.6 465.699 114.5C467.499 112.6 468.399 110 468.299 107.2C467.999 100.7 465.099 97.4 459.699 97.4C458.599 97.4 457.499 97.5 456.299 97.6C454.799 97.8 453.199 97.9 451.299 97.9C447.699 97.9 444.099 97.2 440.399 95.9L429.099 91.9Z" fill="white"/>
<path d="M315.899 357.4C257.399 292.7 258.599 202.5 335.999 161.5C349.099 154.6 362.099 149.1 378.499 145.4C380.499 145 382.599 145.7 383.999 147C395.599 159.1 403.499 170.8 410.599 183.8C444.199 244.6 420.499 309.2 360.799 342C347.599 349.2 335.699 354.4 319.699 358.5C318.299 358.9 316.799 358.4 315.899 357.4Z" fill="#DC222D" stroke="white" stroke-width="4.2818" stroke-miterlimit="10"/>
<path d="M396.299 179.6C410.399 221.5 400.499 269.2 376.599 305.6C368.499 317.8 358.799 328.9 347.399 338C367.599 317.4 382.699 292.2 391.399 264.7C400.199 237.3 402.399 207.9 396.299 179.6Z" fill="white"/>
<path d="M323.599 190.1C309.899 211.2 299.099 237.2 297.599 263.9C297.599 264.7 298.299 265.3 299.099 265.1C300.199 264.8 301.799 264.5 302.999 264.2C303.499 264.1 303.799 263.6 303.899 263.1C305.899 235.9 315.499 210.3 331.199 190.4C331.899 189.5 331.099 188.4 329.999 188.5C328.799 188.6 328.999 188.5 324.399 189.6C323.999 189.7 323.799 189.9 323.599 190.1Z" fill="white"/>
<path d="M305.999 207.7C314.399 204.6 319.199 203.6 330.299 201.9C330.499 201.9 330.599 201.8 330.699 201.6C331.899 199.8 333.099 198.1 334.399 196.4C334.799 195.9 334.399 195.3 333.799 195.3C322.499 196.8 317.399 197.5 308.399 200.4C308.199 200.5 308.099 200.6 307.999 200.7C306.999 202.7 306.099 204.6 305.099 206.6C304.899 207.3 305.399 207.9 305.999 207.7Z" fill="white" stroke="#DC222D" stroke-width="2.6951" stroke-miterlimit="10"/>
<path d="M298.399 223.4C303.699 221.3 311.999 218.7 322.399 216.9C322.599 216.9 322.799 216.7 322.899 216.5C323.799 214.7 324.799 212.9 325.699 211.1C325.999 210.6 325.599 210 324.999 210.1C314.399 211.8 309.499 212.7 300.799 215.7C300.599 215.8 300.499 215.9 300.399 216.1C299.499 218.3 298.699 220.6 297.899 222.9C297.899 223.2 298.199 223.5 298.399 223.4Z" fill="white" stroke="#DC222D" stroke-width="2.6951" stroke-miterlimit="10"/>
<path d="M291.599 241.1C291.499 241.3 291.799 241.5 291.999 241.4C292.699 241.1 293.699 240.7 294.199 240.5C302.299 237.3 306.599 236.1 317.299 234.1C317.499 234.1 317.699 233.9 317.799 233.7C318.499 231.6 319.299 229.6 320.099 227.6C320.299 227.1 319.899 226.6 319.399 226.7C307.999 228.7 302.899 229.9 293.999 233.2C293.799 233.3 293.599 233.4 293.599 233.6C292.799 236.1 292.099 238.6 291.599 241.1Z" fill="white" stroke="#DC222D" stroke-width="2.6951" stroke-miterlimit="10"/>
<path d="M292.499 257.4C293.199 257.1 293.799 256.8 294.499 256.6C301.799 253.7 304.999 252.7 314.399 250.7C314.699 250.6 314.899 250.4 314.899 250.2C315.399 248 315.799 245.9 316.399 243.7C316.499 243.2 316.099 242.8 315.599 242.9C304.699 245.1 300.199 246.4 291.799 249.8C291.299 250 290.799 250.2 290.299 250.4C290.099 250.5 289.899 250.7 289.899 250.9C289.499 253.2 289.199 255.6 288.899 258C288.799 258.5 289.399 258.9 289.799 258.7C290.699 258.1 291.599 257.7 292.499 257.4Z" fill="white" stroke="#DC222D" stroke-width="2.6951" stroke-miterlimit="10"/>
<path d="M429.799 243.8C426.599 238.2 411.399 226.3 405.699 225.7C399.999 225.1 390.299 227 385.199 231.5C385.199 231.5 381.899 237.1 381.599 242.9C380.799 243.2 380.199 243.5 379.599 243.8C375.399 246.5 373.699 258 374.499 264.5C374.799 266.7 376.599 268.3 379.099 269.3C374.999 272.6 373.499 281.2 373.999 285.3C374.699 290.5 388.999 297.3 403.199 308.5L394.299 317.8C394.299 317.8 401.799 321.7 412.099 311.7C418.699 305.2 420.699 297.2 417.299 289.1C428.099 285.1 428.099 276.5 425.799 269.3C425.899 269.4 425.999 269.5 426.099 269.6C436.899 266.7 432.999 249.5 429.799 243.8Z" fill="white"/>
<path d="M381.599 243C390.799 239.3 401.499 241 410.099 245.7C418.799 250.5 424.899 259.8 425.899 269.5C423.699 265.2 421.299 261.2 418.299 257.8C409.299 247.4 395.099 242.7 381.599 243Z" fill="#002451"/>
<path d="M379.199 269.3C387.499 265 397.899 266.9 405.299 272.3C410.999 276.5 415.199 282.6 417.299 289.2C415.199 287.1 413.399 284.9 411.299 282.9C402.599 274 391.899 268.6 379.199 269.3Z" fill="#002451"/>
<path d="M287.399 314.1C305.599 304.7 357.399 304.1 375.199 334.8C389.599 322.6 392.799 317.8 392.799 317.8C377.699 285.5 319.699 269 279.199 291.5C280.399 300.4 287.399 314.1 287.399 314.1Z" fill="white"/>
<path d="M303.599 184.4C322.999 165.7 404.299 170.7 420.899 211.1C415.199 195.3 414.699 189.7 414.699 189.7C402.199 154.3 350.199 150.5 317.199 168.9C307.799 178.6 303.599 184.4 303.599 184.4Z" fill="white"/>
<path d="M332.899 355.4C329.499 355.4 327.199 354.5 326.199 352.6C325.599 351.5 325.199 349.8 326.799 347.3C329.299 343.4 331.499 341.8 334.999 341.8C336.199 341.8 337.499 342 338.999 342.2C341.199 342.5 343.899 342.9 347.599 342.9C350.199 342.9 352.799 342.7 355.699 342.3L363.899 341.2L357.299 346.1C348.799 352.5 338.699 355.4 332.899 355.4Z" fill="#002451"/>
<path d="M334.999 344C337.699 344 341.299 345.1 347.599 345.1C349.999 345.1 352.699 344.9 355.999 344.5C348.299 350.2 338.699 353.2 332.899 353.2C328.799 353.2 326.599 351.6 328.599 348.4C330.799 345 332.499 344 334.999 344ZM371.799 338.2L355.499 340.3C352.699 340.7 350.199 340.8 347.699 340.8C344.199 340.8 341.499 340.4 339.399 340.1C337.799 339.9 336.399 339.7 335.099 339.7C329.899 339.7 327.199 342.8 325.099 346.2C322.899 349.7 323.799 352.4 324.499 353.7C325.499 355.5 327.799 357.6 333.099 357.6C339.199 357.6 349.799 354.6 358.699 348L371.799 338.2Z" fill="white"/>
<path d="M299.699 186.5C332.099 172.2 339.299 187.2 344.299 169.4C347.099 159.4 332.499 158.7 318.799 166.6" fill="#002451"/>
<path d="M299.699 186.5C308.599 181 319.199 177.7 329.799 177.3C333.199 177.1 336.899 177.2 338.699 175.8C340.799 174.2 341.899 170.7 342.599 168.1C343.199 165.1 341.199 163.7 338.399 163.1C331.899 162 324.999 164.2 318.799 166.7C324.999 162.1 337.699 156.4 344.599 162.3C347.899 165.5 346.399 170.5 344.899 174.2C343.399 178.3 339.899 181.1 335.299 181.3C329.999 181.6 324.999 181.4 319.799 182.1C313.099 182.8 306.399 184.5 299.699 186.5Z" fill="white"/>
</svg>
