<svg width="443" height="371" viewBox="0 0 443 371" fill="none" xmlns="http://www.w3.org/2000/svg">
<g clip-path="url(#clip0_5_90)">
<path d="M-0.300003 93.4V277C-0.300003 298.5 12 318 31.3 327.3C151.3 385.1 291.1 385.1 411.1 327.3C430.4 318 442.7 298.4 442.7 277V93.4C442.7 71.9 430.4 52.4 411.1 43.1C291.1 -14.7 151.3 -14.7 31.3 43.1C11.9 52.4 -0.300003 72 -0.300003 93.4Z" fill="white" stroke="#DC222D" stroke-width="3" stroke-miterlimit="2"/>
<path d="M66.4 62.7C61.7 63.9 59.3 64.5 54.6 65.8C54.9 95 55.1 124.2 55.4 153.4C60.2 153.2 62.6 153 67.3 152.8C67 122.8 66.7 92.8 66.4 62.7Z" fill="white"/>
<path d="M174.4 89.7C174.3 75 174.2 60.3 174.2 45.6C169.4 46 166.9 46.2 162.1 46.6C162.2 61.2 162.3 75.8 162.4 90.4C167.1 90 169.5 89.9 174.4 89.7Z" fill="white"/>
<path d="M280.5 46.2C275.7 45.8 273.2 45.6 268.4 45.2C268.2 79.9 268 114.7 267.8 149.4C272.6 149.5 275 149.5 279.8 149.6C280 115.2 280.2 80.7 280.5 46.2Z" fill="white"/>
<path d="M387.8 65.5C383.1 64.2 380.7 63.6 376 62.4C375.8 82 375.6 101.6 375.4 121.3C380.2 121.9 382.5 122.2 387.3 122.8C387.4 103.6 387.6 84.6 387.8 65.5Z" fill="white"/>
<path d="M210.9 242.7C209.4 262.2 207.8 281.8 206.3 301.3C210.5 301.4 212.6 301.4 216.8 301.4C215.2 281.8 213.6 262.3 212 242.7C211.6 242.7 211.4 242.7 210.9 242.7Z" fill="white"/>
<path d="M297.8 235.6C297.9 248.3 298 260.9 298.2 273.6C302.3 273.3 304.3 273.2 308.3 272.9C308.2 260.4 308 247.9 307.9 235.3C303.8 235.4 301.8 235.5 297.8 235.6Z" fill="white"/>
<path d="M103.3 184.6V203.4H96.2V184.6H103.3Z" fill="#002451"/>
<path d="M127.6 203.4L122.8 195V203.4H117.5V184.6H123.6L128.7 193.6V184.6H133.9V203.4H127.6Z" fill="#002451"/>
<path d="M158.2 203.5L153.4 195.1V203.5H148.1V184.7H154.2L159.3 193.7V184.7H164.5V203.5H158.2Z" fill="#002451"/>
<path d="M185.1 190.2C185.1 190.3 185.1 190.3 185.2 190.4L185.3 190.5L185.4 190.6C185.4 190.6 185.5 190.7 185.6 190.7C185.7 190.7 185.7 190.7 185.8 190.8C185.9 190.8 185.9 190.8 186 190.9C186.1 190.9 186.2 190.9 186.2 190.9C186.2 190.9 186.3 190.9 186.4 190.9C186.5 190.9 186.6 190.9 186.6 190.9C188.4 191.2 189.6 191.5 190.4 191.8C192.1 192.4 193.3 193.3 193.8 194.6C194.1 195.3 194.3 196.1 194.3 197.1C194.3 198.5 194.2 199.6 193.9 200.5C193.6 201.4 193.1 202.1 192.5 202.6C191.8 203.1 191 203.5 190.1 203.7C189.1 203.9 187.9 204 186.5 204C186 204 185.5 204 185.1 204C184.7 204 184.2 203.9 183.6 203.9C183.1 203.8 182.6 203.7 182.2 203.6C181.8 203.5 181.4 203.3 180.9 203.1C180.5 202.9 180.1 202.6 179.8 202.3C179.5 202 179.3 201.6 179 201.1C178.8 200.6 178.7 200.1 178.6 199.5C178.6 199 178.5 198.4 178.5 197.8H185.2V200.8H187.2V197.9C187.2 197.8 187.2 197.6 187.1 197.5C187 197.4 186.9 197.3 186.7 197.2C186.5 197.1 186.4 197 186.3 197C186.2 197 186 196.9 185.8 196.8C185.5 196.7 185.2 196.6 184.8 196.5C184.4 196.4 184 196.3 183.7 196.2C183.4 196.1 183.1 196 182.7 195.9C182.3 195.8 182 195.6 181.7 195.5C181.4 195.4 181.1 195.2 180.8 195C180.5 194.8 180.2 194.6 180 194.4C179.8 194.2 179.6 194 179.3 193.7C179.1 193.4 178.9 193.1 178.8 192.8C178.7 192.5 178.6 192.1 178.5 191.7C178.4 191.3 178.4 190.9 178.4 190.4C178.4 189.7 178.5 189 178.6 188.4C178.7 187.8 178.9 187.3 179.2 186.9C179.4 186.5 179.7 186.1 180.1 185.8C180.5 185.5 180.9 185.2 181.3 185C181.7 184.8 182.2 184.6 182.7 184.5C183.2 184.4 183.8 184.3 184.3 184.2C184.8 184.2 185.4 184.1 186.1 184.1C186.8 184.1 187.4 184.1 187.9 184.2C188.4 184.2 189 184.3 189.5 184.4C190 184.5 190.5 184.6 190.9 184.8C191.3 185 191.7 185.2 192 185.5C192.3 185.8 192.6 186.1 192.8 186.5C193 186.9 193.2 187.3 193.3 187.8C193.4 188.3 193.5 188.9 193.5 189.6H187.2V187.5H185.2L185.1 190.2Z" fill="#002451"/>
<path d="M219.7 193.2V193.4C220.6 193.5 221.3 193.7 221.9 194C222.5 194.3 223 194.7 223.3 195.1C223.6 195.5 223.8 196 224 196.5C224.1 197 224.2 197.5 224.2 198.1C224.2 199.2 224.1 200.1 223.9 200.8C223.7 201.5 223.3 202 222.8 202.5C222.3 202.9 221.6 203.2 220.8 203.3C220 203.5 219 203.5 217.9 203.5H208V184.7H218C218.5 184.7 218.9 184.7 219.3 184.7C219.7 184.7 220.1 184.8 220.5 184.9C220.9 185 221.3 185.1 221.6 185.2C221.9 185.3 222.2 185.5 222.5 185.7C222.8 185.9 223 186.2 223.2 186.5C223.4 186.8 223.5 187.2 223.7 187.6C223.8 188 223.9 188.5 223.9 189.1C223.9 190.3 223.6 191.3 223 192C222.2 192.7 221.2 193.1 219.7 193.2ZM214.9 200.7H216.9V194.4H214.9V200.7ZM214.9 192.3H216.9V187.5H214.9V192.3Z" fill="#002451"/>
<path d="M249.6 194.2C251.2 194.5 252.3 194.9 253 195.6C253.7 196.3 254 197.2 254 198.3V203.4H246.9V195.8H244.9V203.4H237.8V184.6H248.5C249.4 184.6 250.1 184.7 250.8 184.8C251.4 185 252 185.2 252.5 185.6C253 186 253.3 186.5 253.6 187.1C253.8 187.7 253.9 188.5 253.9 189.4C253.9 190 253.9 190.4 253.8 190.9C253.7 191.3 253.6 191.7 253.4 192.1C253.2 192.5 253 192.8 252.7 193.1C252.4 193.4 252 193.6 251.5 193.8C250.8 194 250.2 194.1 249.6 194.2ZM244.8 193.2H246.8V187.6H244.8V193.2Z" fill="#002451"/>
<path d="M274.6 200.8H276.6V184.8H283.7V199.2C283.7 199.8 283.6 200.4 283.4 200.9C283.2 201.4 283 201.8 282.7 202.1C282.4 202.4 282 202.7 281.6 203C281.1 203.2 280.7 203.4 280.3 203.6C279.9 203.7 279.3 203.8 278.8 203.9C278.2 204 277.7 204 277.2 204.1C276.7 204.1 276.2 204.1 275.6 204.1C275.1 204.1 274.6 204.1 274.1 204.1C273.7 204.1 273.1 204 272.6 204C272 203.9 271.5 203.8 271.1 203.7C270.6 203.6 270.2 203.4 269.7 203.1C269.2 202.9 268.9 202.6 268.6 202.2C268.3 201.8 268.1 201.5 267.9 201C267.7 200.5 267.6 199.9 267.6 199.3V184.9H274.7L274.6 200.8Z" fill="#002451"/>
<path d="M306.9 187.6H304.9V200.8H306.9V196.3H314V199.2C314 199.8 313.9 200.4 313.7 200.9C313.5 201.4 313.3 201.8 313 202.1C312.7 202.4 312.3 202.7 311.9 203C311.5 203.2 311 203.4 310.6 203.6C310.2 203.7 309.6 203.8 309.1 203.9C308.5 204 308 204 307.5 204.1C307 204.1 306.5 204.1 305.9 204.1C305.4 204.1 304.9 204.1 304.4 204.1C304 204.1 303.4 204 302.9 204C302.3 203.9 301.8 203.8 301.3 203.7C300.8 203.6 300.4 203.4 299.9 203.1C299.4 202.9 299 202.6 298.7 202.2C298.4 201.9 298.1 201.5 297.9 201C297.7 200.5 297.6 199.9 297.6 199.3V189.2C297.6 188.6 297.7 188 297.9 187.6C298.1 187.1 298.3 186.7 298.6 186.4C298.9 186.1 299.3 185.8 299.7 185.5C300.1 185.3 300.6 185.1 301 184.9C301.5 184.8 302 184.7 302.5 184.6C303.1 184.5 303.6 184.5 304.1 184.4C304.6 184.4 305.1 184.4 305.7 184.4C306.3 184.4 306.9 184.4 307.3 184.4C307.8 184.4 308.3 184.5 308.9 184.5C309.5 184.6 310 184.7 310.4 184.8C310.8 184.9 311.3 185.1 311.7 185.4C312.1 185.6 312.5 185.9 312.8 186.3C313.1 186.6 313.3 187 313.5 187.5C313.7 188 313.8 188.6 313.8 189.2V192.1H306.7L306.9 187.6Z" fill="#002451"/>
<path d="M338.6 203.6L335.6 195.4L334.9 196.9V203.5H327.8V184.7H334.9V191.5V193.7L338.4 184.7H345.7L341.9 193.6L346.3 203.5L338.6 203.6Z" fill="#002451"/>
<path d="M103.3 184.6V203.4H96.2V184.6H103.3Z" fill="#DC222D"/>
<path d="M127.6 203.4L122.8 195V203.4H117.5V184.6H123.6L128.7 193.6V184.6H133.9V203.4H127.6Z" fill="#DC222D"/>
<path d="M158.2 203.5L153.4 195.1V203.5H148.1V184.7H154.2L159.3 193.7V184.7H164.5V203.5H158.2Z" fill="#DC222D"/>
<path d="M185.1 190.2C185.1 190.3 185.1 190.3 185.2 190.4L185.3 190.5L185.4 190.6C185.4 190.6 185.5 190.7 185.6 190.7C185.7 190.7 185.7 190.7 185.8 190.8C185.9 190.8 185.9 190.8 186 190.9C186.1 190.9 186.2 190.9 186.2 190.9C186.2 190.9 186.3 190.9 186.4 190.9C186.5 190.9 186.6 190.9 186.6 190.9C188.4 191.2 189.6 191.5 190.4 191.8C192.1 192.4 193.3 193.3 193.8 194.6C194.1 195.3 194.3 196.1 194.3 197.1C194.3 198.5 194.2 199.6 193.9 200.5C193.6 201.4 193.1 202.1 192.5 202.6C191.8 203.1 191 203.5 190.1 203.7C189.1 203.9 187.9 204 186.5 204C186 204 185.5 204 185.1 204C184.7 204 184.2 203.9 183.6 203.9C183.1 203.8 182.6 203.7 182.2 203.6C181.8 203.5 181.4 203.3 180.9 203.1C180.5 202.9 180.1 202.6 179.8 202.3C179.5 202 179.3 201.6 179 201.1C178.8 200.6 178.7 200.1 178.6 199.5C178.6 199 178.5 198.4 178.5 197.8H185.2V200.8H187.2V197.9C187.2 197.8 187.2 197.6 187.1 197.5C187 197.4 186.9 197.3 186.7 197.2C186.5 197.1 186.4 197 186.3 197C186.2 197 186 196.9 185.8 196.8C185.5 196.7 185.2 196.6 184.8 196.5C184.4 196.4 184 196.3 183.7 196.2C183.4 196.1 183.1 196 182.7 195.9C182.3 195.8 182 195.6 181.7 195.5C181.4 195.4 181.1 195.2 180.8 195C180.5 194.8 180.2 194.6 180 194.4C179.8 194.2 179.6 194 179.3 193.7C179.1 193.4 178.9 193.1 178.8 192.8C178.7 192.5 178.6 192.1 178.5 191.7C178.4 191.3 178.4 190.9 178.4 190.4C178.4 189.7 178.5 189 178.6 188.4C178.7 187.8 178.9 187.3 179.2 186.9C179.4 186.5 179.7 186.1 180.1 185.8C180.5 185.5 180.9 185.2 181.3 185C181.7 184.8 182.2 184.6 182.7 184.5C183.2 184.4 183.8 184.3 184.3 184.2C184.8 184.2 185.4 184.1 186.1 184.1C186.8 184.1 187.4 184.1 187.9 184.2C188.4 184.2 189 184.3 189.5 184.4C190 184.5 190.5 184.6 190.9 184.8C191.3 185 191.7 185.2 192 185.5C192.3 185.8 192.6 186.1 192.8 186.5C193 186.9 193.2 187.3 193.3 187.8C193.4 188.3 193.5 188.9 193.5 189.6H187.2V187.5H185.2L185.1 190.2Z" fill="#DC222D"/>
<path d="M219.7 193.2V193.4C220.6 193.5 221.3 193.7 221.9 194C222.5 194.3 223 194.7 223.3 195.1C223.6 195.5 223.8 196 224 196.5C224.1 197 224.2 197.5 224.2 198.1C224.2 199.2 224.1 200.1 223.9 200.8C223.7 201.5 223.3 202 222.8 202.5C222.3 202.9 221.6 203.2 220.8 203.3C220 203.5 219 203.5 217.9 203.5H208V184.7H218C218.5 184.7 218.9 184.7 219.3 184.7C219.7 184.7 220.1 184.8 220.5 184.9C220.9 185 221.3 185.1 221.6 185.2C221.9 185.3 222.2 185.5 222.5 185.7C222.8 185.9 223 186.2 223.2 186.5C223.4 186.8 223.5 187.2 223.7 187.6C223.8 188 223.9 188.5 223.9 189.1C223.9 190.3 223.6 191.3 223 192C222.2 192.7 221.2 193.1 219.7 193.2ZM214.9 200.7H216.9V194.4H214.9V200.7ZM214.9 192.3H216.9V187.5H214.9V192.3Z" fill="#DC222D"/>
<path d="M249.6 194.2C251.2 194.5 252.3 194.9 253 195.6C253.7 196.3 254 197.2 254 198.3V203.4H246.9V195.8H244.9V203.4H237.8V184.6H248.5C249.4 184.6 250.1 184.7 250.8 184.8C251.4 185 252 185.2 252.5 185.6C253 186 253.3 186.5 253.6 187.1C253.8 187.7 253.9 188.5 253.9 189.4C253.9 190 253.9 190.4 253.8 190.9C253.7 191.3 253.6 191.7 253.4 192.1C253.2 192.5 253 192.8 252.7 193.1C252.4 193.4 252 193.6 251.5 193.8C250.8 194 250.2 194.1 249.6 194.2ZM244.8 193.2H246.8V187.6H244.8V193.2Z" fill="#DC222D"/>
<path d="M274.6 200.8H276.6V184.8H283.7V199.2C283.7 199.8 283.6 200.4 283.4 200.9C283.2 201.4 283 201.8 282.7 202.1C282.4 202.4 282 202.7 281.6 203C281.1 203.2 280.7 203.4 280.3 203.6C279.9 203.7 279.3 203.8 278.8 203.9C278.2 204 277.7 204 277.2 204.1C276.7 204.1 276.2 204.1 275.6 204.1C275.1 204.1 274.6 204.1 274.1 204.1C273.7 204.1 273.1 204 272.6 204C272 203.9 271.5 203.8 271.1 203.7C270.6 203.6 270.2 203.4 269.7 203.1C269.2 202.9 268.9 202.6 268.6 202.2C268.3 201.8 268.1 201.5 267.9 201C267.7 200.5 267.6 199.9 267.6 199.3V184.9H274.7L274.6 200.8Z" fill="#DC222D"/>
<path d="M306.9 187.6H304.9V200.8H306.9V196.3H314V199.2C314 199.8 313.9 200.4 313.7 200.9C313.5 201.4 313.3 201.8 313 202.1C312.7 202.4 312.3 202.7 311.9 203C311.5 203.2 311 203.4 310.6 203.6C310.2 203.7 309.6 203.8 309.1 203.9C308.5 204 308 204 307.5 204.1C307 204.1 306.5 204.1 305.9 204.1C305.4 204.1 304.9 204.1 304.4 204.1C304 204.1 303.4 204 302.9 204C302.3 203.9 301.8 203.8 301.3 203.7C300.8 203.6 300.4 203.4 299.9 203.1C299.4 202.9 299 202.6 298.7 202.2C298.4 201.9 298.1 201.5 297.9 201C297.7 200.5 297.6 199.9 297.6 199.3V189.2C297.6 188.6 297.7 188 297.9 187.6C298.1 187.1 298.3 186.7 298.6 186.4C298.9 186.1 299.3 185.8 299.7 185.5C300.1 185.3 300.6 185.1 301 184.9C301.5 184.8 302 184.7 302.5 184.6C303.1 184.5 303.6 184.5 304.1 184.4C304.6 184.4 305.1 184.4 305.7 184.4C306.3 184.4 306.9 184.4 307.3 184.4C307.8 184.4 308.3 184.5 308.9 184.5C309.5 184.6 310 184.7 310.4 184.8C310.8 184.9 311.3 185.1 311.7 185.4C312.1 185.6 312.5 185.9 312.8 186.3C313.1 186.6 313.3 187 313.5 187.5C313.7 188 313.8 188.6 313.8 189.2V192.1H306.7L306.9 187.6Z" fill="#DC222D"/>
<path d="M338.6 203.6L335.6 195.4L334.9 196.9V203.5H327.8V184.7H334.9V191.5V193.7L338.4 184.7H345.7L341.9 193.6L346.3 203.5L338.6 203.6Z" fill="#DC222D"/>
<path d="M108.1 67.2C108.4 90.6 108.6 114 108.9 137.4C108.9 141.3 108.7 144.8 108.1 148C107.5 151.2 106.6 153.9 105.4 156.2C104.2 158.5 102.8 160.5 101.3 162.2C99.8 163.9 97.9 165.3 95.7 166.4C93.5 167.5 91.4 168.4 89.3 169.1C87.2 169.8 84.8 170.3 81.9 170.7C79.1 171 76.5 171.2 74.2 171.4C71.9 171.5 69.2 171.6 66.1 171.6C48.7 171.7 31.3 171.9 13.9 172C13.9 144.8 13.9 117.6 13.9 90.4C13.9 72.9 25 57.3 41.6 51.6C49.3 49 57 46.5 64.8 44.1C68.3 43.1 71.3 42.3 74 41.7C76.7 41.1 79.6 40.7 82.7 40.4C85.8 40.1 88.5 40.2 90.8 40.6C93.1 41 95.4 41.8 97.6 43C99.8 44.2 101.7 45.8 103.1 47.9C104.5 49.9 105.7 52.6 106.6 55.8C107.6 59.2 108.1 62.9 108.1 67.2ZM55.4 153.4C60.2 153.2 62.6 153 67.3 152.8C67 122.8 66.7 92.8 66.4 62.7C61.7 63.9 59.3 64.5 54.6 65.8C54.9 95 55.2 124.2 55.4 153.4Z" fill="#002451"/>
<path d="M190.4 97.3C190.4 97.5 190.4 97.6 190.5 97.9C198.2 98.7 206 101.9 210.6 108.3C215.1 114.6 216.8 122.5 216.7 130.1C216.7 143.8 216.7 157.4 216.7 171.1C202.7 171.1 188.8 171.1 174.8 171.1C174.7 151.1 174.6 131.1 174.5 111.1C169.7 111.3 167.3 111.4 162.5 111.6C162.6 131.5 162.8 151.3 162.9 171.2C149 171.2 135.1 171.3 121.2 171.3C120.7 124.5 120.2 77.7 119.8 31C141 27.2 162.2 24.5 183.7 22.9C189 22.5 193.5 22.9 197.3 24C201.1 25.1 204.4 27 207.2 29.8C210 32.6 212.1 36.5 213.5 41.4C215.1 47.1 215.6 53.8 215.6 59.6C215.6 64 215.4 67.9 215 71.3C214.6 74.6 213.8 77.9 212.7 80.9C211.6 84 210.1 86.6 208.3 88.7C206.4 90.8 204 92.6 201.1 94.1C198 95.6 194.5 96.7 190.4 97.3ZM162.3 90.3C167.1 90 169.5 89.9 174.4 89.6C174.3 74.9 174.2 60.2 174.2 45.5C169.4 45.9 166.9 46.1 162.1 46.5C162.1 61.2 162.2 75.7 162.3 90.3Z" fill="#002451"/>
<path d="M273.4 174.8C269.7 174.8 266.5 174.7 263.7 174.6C260.9 174.5 257.8 174.1 254.3 173.5C250.8 172.9 247.8 172.1 245.3 171C242.8 169.9 240.2 168.5 237.6 166.5C235 164.6 232.9 162.3 231.3 159.7C229.7 157.1 228.3 153.8 227.3 149.8C226.3 145.8 225.8 141.4 225.8 136.4C225.8 109.7 225.8 82.9 225.8 56.2C225.8 51.4 226.3 47 227.4 43.1C228.5 39.2 229.9 36 231.6 33.4C233.3 30.8 235.5 28.6 238.2 26.7C240.9 24.8 243.5 23.4 246.2 22.5C248.9 21.5 251.9 20.8 255.4 20.4C258.8 20 262 19.8 264.8 19.9C267.6 19.9 270.8 20.1 274.2 20.5C277.4 20.8 280.3 21.2 283 21.7C285.7 22.2 288.7 22.9 292.2 24C295.6 25.1 298.7 26.3 301.4 27.7C304.1 29.1 306.8 31 309.6 33.3C312.3 35.6 314.6 38.1 316.4 40.9C318.2 43.7 319.7 47 320.8 50.9C321.9 54.8 322.5 59 322.4 63.6C322.1 88.7 321.9 113.8 321.6 138.9C321.6 143.5 321 147.7 319.8 151.3C318.7 155 317.3 158 315.5 160.5C313.8 163 311.6 165.1 308.9 166.9C306.2 168.7 303.6 170.1 301 171.1C298.4 172.1 295.4 172.9 291.9 173.5C288.4 174.1 285.3 174.5 282.6 174.6C280 174.7 276.9 174.8 273.4 174.8ZM267.8 149.4C272.6 149.5 275 149.5 279.8 149.6C280 115.1 280.3 80.7 280.5 46.2C275.7 45.8 273.2 45.6 268.4 45.2C268.2 79.9 268 114.7 267.8 149.4Z" fill="#002451"/>
<path d="M334.7 33.4C352.2 37.2 369.4 41.7 386.5 46.9C389.9 48 393 49 395.6 50.1C398.3 51.1 401.1 52.4 404.2 53.9C407.2 55.4 409.9 57 412.1 58.7C414.3 60.3 416.5 62.2 418.7 64.4C420.9 66.6 422.6 68.9 424 71.2C425.4 73.6 426.5 76.3 427.3 79.3C428.1 82.3 428.6 85.5 428.6 88.9C428.6 98.4 428.6 107.8 428.6 117.3C428.6 120.1 428.3 122.5 427.8 124.7C427.3 126.9 426.6 128.8 425.7 130.4C424.8 132 423.7 133.4 422.2 134.6C420.8 135.8 419.3 136.8 417.8 137.6C416.3 138.4 414.5 139 412.4 139.5C410.3 140 408.3 140.4 406.4 140.6C404.5 140.8 402.3 140.9 399.7 140.9C397.2 140.9 394.9 140.8 392.8 140.7C390.8 140.6 388.4 140.4 385.7 140.2C381.5 139.9 379.4 139.7 375.2 139.4C375.1 150.1 375 160.9 374.9 171.6C361 171.5 347.1 171.4 333.2 171.4C333.7 125.4 334.2 79.4 334.7 33.4ZM375.4 121.3C380.2 121.9 382.5 122.2 387.3 122.8C387.5 103.7 387.6 84.6 387.8 65.5C383.1 64.2 380.7 63.6 376 62.4C375.8 82 375.6 101.7 375.4 121.3Z" fill="#002451"/>
<path d="M47.2 247.1C47.3 247.2 47.3 247.2 47.4 247.2C47.4 247.5 47.4 247.7 47.5 248C47.6 248.3 47.7 248.5 48 248.7C48.2 248.9 48.4 249.1 48.6 249.3C48.8 249.5 49.1 249.7 49.5 249.9C49.9 250.1 50.2 250.2 50.4 250.4C50.6 250.5 51 250.7 51.4 250.8C51.8 251 52.2 251.1 52.4 251.1C52.6 251.2 53 251.3 53.4 251.4C53.9 251.5 54.2 251.6 54.3 251.7C60.6 253.8 67 255.8 73 258.9C80.6 263 87.4 269.7 89.8 278.2C91.4 283 92 289 91.9 294C91.8 300.8 91.4 307.9 89.4 314.5C87.9 319.7 85.4 323.5 82.1 325.8C78.8 328.2 74.7 329.3 70 329.2C63.9 329 57.9 327.3 52.2 325.5C49.6 324.7 46.9 323.8 44.9 323C42.8 322.2 40.5 321.1 37.9 319.8C35.3 318.5 33 317.1 31 315.7C29 314.3 27 312.6 24.9 310.7C22.8 308.7 21.1 306.7 19.7 304.6C18.3 302.5 17.1 300.1 16.1 297.5C15.1 294.8 14.4 292 14.2 289C14 286.3 13.9 283.5 13.9 280.5C24.8 283.5 35.7 286.3 46.7 288.9C46.6 294.4 46.6 300 46.5 305.5C50.5 306.6 52.8 307.2 56.8 308.2C56.9 302.6 56.9 296.9 57 291.3C57 290.4 56.8 289.6 56.4 288.9C56 288.2 55.4 287.4 54.6 286.8C53.8 286.1 53.1 285.6 52.6 285.3C52.1 285 51.3 284.5 50.2 283.9C48.9 283.2 47.3 282.2 45.3 281.1C43.3 280 41.6 279.1 40.2 278.3C38.8 277.5 37.2 276.6 35.3 275.5C33.4 274.4 31.8 273.4 30.5 272.4C29.2 271.5 27.7 270.4 26.1 269.1C24.5 267.8 23.2 266.5 22.1 265.3C21 264.1 19.9 262.6 18.8 261.1C17.7 259.5 16.8 257.9 16.2 256.2C15.6 254.5 15 252.7 14.6 250.6C14.2 248.5 14 246.4 14 244.1C14 240.5 14.3 237.3 15 234.4C15.7 231.5 16.6 229.1 17.7 227C18.9 224.9 20.4 223.1 22.2 221.5C24 219.9 25.9 218.6 28 217.6C30 216.6 32.4 215.8 35.1 215.1C37.8 214.5 40.4 214 43.1 213.8C45.8 213.5 48.7 213.4 52 213.4C55.4 213.4 58.5 213.5 61.1 213.7C63.8 213.9 66.4 214.3 69.1 214.9C71.8 215.5 74.1 216.3 76 217.3C77.9 218.3 79.7 219.7 81.4 221.3C83.1 223 84.4 225 85.5 227.3C86.5 229.6 87.3 232.4 87.9 235.6C88.5 238.8 88.7 242.5 88.7 246.5C78.3 245.8 67.9 245 57.5 244.1C57.6 239.3 57.6 236.9 57.6 232C53.6 231.8 51.6 231.7 47.5 231.5C47.3 236.8 47.3 241.9 47.2 247.1Z" fill="#002451"/>
<path d="M172.2 216.8C172.2 224.1 172.1 231.4 172.1 238.8C165.2 238.7 158.2 238.5 151.3 238.4C151 273.9 150.7 309.3 150.3 344.8C138.4 343.2 126.5 341.3 114.7 339C115.1 305.1 115.5 271.2 115.9 237.3C109 237 102.2 236.8 95.3 236.5C95.4 229.9 95.5 223.2 95.6 216.6C121 216.6 146.6 216.7 172.2 216.8Z" fill="#002451"/>
<path d="M205.2 318.7C204.1 328.8 203 338.9 201.9 348.9C190.3 348.4 178.7 347.7 167.1 346.6C173.3 303.4 179.2 260.1 185.1 216.8C202.8 216.8 220.4 216.8 238.1 216.8C244 260.6 249.9 304.4 256.1 348.2C244.5 348.9 232.8 349.2 221.2 349.3C220.1 339.2 219.1 329 218 318.9C212.8 318.9 210.2 318.8 205.2 318.7ZM212 242.7C211.6 242.7 211.3 242.7 210.9 242.7C209.4 262.2 207.8 281.8 206.3 301.3C210.5 301.4 212.6 301.4 216.8 301.4C215.2 281.9 213.6 262.3 212 242.7Z" fill="#002451"/>
<path d="M321.8 278.7C321.8 278.9 321.8 279 321.9 279.2C328.1 279.4 334.8 281.3 338.8 286.1C342.6 290.7 344.1 296.9 344.1 302.8C344.2 313.7 344.4 324.5 344.5 335.4C332.7 338 320.9 340.3 309 342.3C308.8 325.3 308.6 308.2 308.5 291.2C304.4 291.6 302.4 291.8 298.3 292.1C298.5 309.3 298.6 326.6 298.8 343.8C286.9 345.4 275 346.7 263 347.7C262.8 304.1 262.5 260.4 262.3 216.8C280.1 216.8 297.9 216.7 315.6 216.6C320 216.6 323.8 217.1 326.9 218C330 219 332.8 220.6 335.2 222.9C337.6 225.2 339.4 228.3 340.6 232.2C341.8 236.1 342.4 240.9 342.5 246.7C342.5 250.2 342.4 253.3 342.1 256C341.8 258.7 341.2 261.3 340.3 263.8C339.4 266.3 338.2 268.5 336.7 270.4C335.2 272.2 333.2 273.9 330.7 275.3C328.2 276.8 325.2 277.9 321.8 278.7ZM298.1 273.6C302.2 273.3 304.2 273.2 308.2 272.9C308.1 260.4 307.9 247.9 307.8 235.3C303.8 235.4 301.7 235.5 297.7 235.6C297.9 248.3 298 260.9 298.1 273.6Z" fill="#002451"/>
<path d="M383.4 248.2C383.5 248.2 383.5 248.3 383.6 248.3C383.6 248.6 383.7 248.8 383.8 249.1C383.9 249.4 384.1 249.6 384.3 249.8C384.5 250 384.7 250.1 384.9 250.3C385.1 250.4 385.4 250.6 385.8 250.7C386.2 250.8 386.5 250.9 386.7 251C387 251.1 387.3 251.1 387.7 251.2C388.1 251.3 388.5 251.3 388.7 251.3C388.9 251.3 389.3 251.3 389.7 251.4C390.2 251.4 390.5 251.5 390.6 251.5C396.9 252.1 403.2 252.6 409.3 254C416.3 256.2 422.8 258.6 426.2 265.7C427.7 268.9 428.6 272.9 428.5 277.5C428.4 283.3 428 289.2 426.4 294.9C425 299.7 422.6 304.1 419.5 308C416.4 311.8 412 315.5 407.7 318C402.2 321.2 396.2 323.8 390.1 325.8C387.5 326.6 385.2 327.3 383.1 327.9C381 328.4 378.7 328.9 376 329.3C373.3 329.7 371 329.8 368.9 329.6C366.8 329.4 364.7 328.9 362.6 328.1C360.4 327.3 358.6 326.1 357.1 324.5C355.6 322.9 354.3 320.8 353.3 318.2C352.2 315.5 351.5 312.4 351.2 308.8C350.9 305.5 350.8 302 350.7 298.3C361.8 296.4 372.9 294.2 383.9 291.9C384 297.6 384 303.4 384.1 309.1C388.1 308.1 390.1 307.5 394 306.4C393.9 300.9 393.9 295.4 393.8 289.9C393.8 289.1 393.6 288.4 393.2 287.8C392.8 287.2 392.2 286.8 391.3 286.5C390.5 286.2 389.8 285.9 389.3 285.8C388.8 285.7 388 285.5 386.9 285.3C385.6 285.1 384 284.8 381.9 284.5C379.8 284.2 378.1 283.9 376.7 283.6C375.3 283.3 373.6 283 371.7 282.5C369.8 282 368.1 281.5 366.8 281C365.4 280.5 363.9 279.8 362.3 278.9C360.7 278 359.3 277 358.2 275.9C357.1 274.8 355.9 273.5 354.8 272C353.7 270.5 352.7 268.8 352.1 266.9C351.4 265 350.9 262.9 350.4 260.4C350 257.9 349.7 255.3 349.7 252.4C349.6 247.9 349.9 243.8 350.5 240.1C351.1 236.4 352 233.2 353.1 230.5C354.2 227.8 355.7 225.5 357.5 223.5C359.3 221.5 361.2 219.9 363.2 218.7C365.2 217.5 367.6 216.5 370.2 215.8C372.9 215.1 375.5 214.6 378.2 214.3C380.9 214 383.8 213.9 387.1 213.9C390.5 213.9 393.6 214 396.2 214.2C398.9 214.4 401.5 214.8 404.2 215.3C406.9 215.8 409.2 216.5 411.1 217.4C413 218.3 414.9 219.4 416.6 220.7C418.3 222 419.7 223.6 420.8 225.5C421.9 227.4 422.7 229.6 423.3 232.2C423.9 234.8 424.2 237.7 424.2 241C413.9 242.1 403.5 243.1 393.1 244.1C393.1 239.4 393 237 393 232.3C389 232.5 387 232.6 382.9 232.8C383.2 237.7 383.3 242.9 383.4 248.2Z" fill="#002451"/>
</g>
<defs>
<clipPath id="clip0_5_90">
<rect width="443" height="371" fill="white"/>
</clipPath>
</defs>
</svg>
