<svg width="462" height="680" viewBox="0 0 462 680" fill="none" xmlns="http://www.w3.org/2000/svg">
<path d="M215.9 364.1C215.3 364.1 214.8 364.1 214.2 364.1C213.2 364 212.1 364 211 363.9C209.2 363.8 207.3 363.8 205.9 363.6C196 362.7 186.5 360.9 177.7 358.1C147.1 348.9 120.6 328.8 102.7 301.3C100.5 306.6 96.7 311.7 91.6 316.5C90.1 327.9 84.7 336.7 75.9 342.1C69.6 346 61.4 348 52.3 348C42.8 348 32.4 345.8 22.2 341.6L21.1 341.1C20.7 341 20.5 340.7 20.3 340.3L19.8 339.2C14.3 327.4 12.6 321.1 12.1 317.8C4.00001 309.9 2.2 300.9 2.2 294.8C2.1 287.4 4.70001 279.6 9.00001 274.4C4.40001 262 5.4 258.6 9.4 251.6L9.9 250.7C10.1 250.4 26 223.1 45.9 223.1C48.1 223.1 50.3 223.4 52.4 224.1C68 229.1 74.7 245.1 76.6 250.9C78.8 251.8 81.1 253.1 83.4 254.6C82.7 251.3 82.2 247.9 81.7 244.6C81.4 244.2 81.2 243.9 80.9 243.5C76.7 236.9 74.7 229.4 73 222.3C71.3 214.9 70 206.2 73.9 198.3C75.2 195.8 76.8 193.9 78.7 192.7L71.8 175.3C65.9 160.4 69 134.8 78.4 120.4C84.4 111.3 91.3 109.2 95.9 109C96.1 109 96.3 109 96.5 109C102.2 109 104.9 111.7 106.2 114C108.7 118.5 106.5 123.1 105.8 124.6C104.9 126.5 103.6 128.6 102 131.3C96.8 139.7 88.1 153.7 86.8 173L86.1 182.3C96.7 143.5 115.4 109.1 140.7 82.3L140.8 82.2C145.1 77.9 153.1 70 161 66.6L165.4 56.4C171.8 41.4 193.7 26.1 208.8 26.1C213.8 26.1 218.1 27.7 221.3 30.7C225.5 34.6 225.6 38.4 224.9 40.9C224 44.2 221.6 46.5 217.6 48C215.8 48.6 213.8 49.1 211.2 49.8C202.7 51.9 189.8 54.9 177.7 65.5L174.8 68C176.7 70 177.9 73.3 175.9 78.6C186.5 71.9 198.3 66.9 209.6 62C215.6 59.4 221.8 56.8 227.7 53.9C236.3 49.7 244 44.8 251.3 39.1C255.9 35.6 259.8 33 263.6 30.8C263.6 30.8 263.7 30.8 263.7 30.7C268.2 28.2 272.9 25.6 278.8 25.3H278.9C283.5 25.3 285.8 27.4 287 29.1C290 33.5 288.8 40.4 287 45.1C285.8 48.1 283.8 51 281.2 53.7C284.6 53.6 288 53.5 291.4 53.5C304.1 53.5 317.4 54.3 331.1 55.8C335 56.2 348.9 58 362 61.4C378.3 65.6 387.9 70.9 390.4 77.2C391.8 80.7 391.1 84.5 388.1 88.3C408.5 99.9 426.2 114.2 440.7 130.9C443.3 133.8 444.3 137.9 443.3 141.8C442.3 145.7 439.5 148.9 435.7 150.1C434.3 150.6 432.5 150.8 431 150.9H430.5C416.6 152.1 402 153.9 388.9 158.9C389.9 160.2 390.8 161.4 391.8 162.7L392 162.6C399.3 159.4 405.3 158.8 409 158.8C416.1 158.8 421 161.2 422.5 165.3C423.1 166.9 423.9 170.9 419.2 174.9C417.4 176.4 415 178.1 411.9 178.1C409.5 178.1 407.6 177.1 405.7 176.1C404 175.2 402.1 174.1 398.9 173.3C400.7 176.2 402.5 179.3 404.3 182.6C414.9 201.7 420.2 221.5 420.1 241.3C420.8 242.1 421.3 242.9 421.7 243.5C424 247.6 427 258.2 424.1 265.4C422.9 268.2 421 270.2 418.4 271.3C420.7 280.5 417.8 287.1 409.9 290.6C412.7 298.6 410.6 306.9 403.8 313.4C397.7 319.4 392.3 320.6 388.9 320.6C388.1 320.6 387.4 320.5 386.7 320.4C379.9 327.3 372.2 333.7 363.8 339.3C363.7 339.5 363.5 339.7 363.3 339.8L350.1 349.6C341 356.4 330 359.5 323.6 359.5C323.1 359.5 322.6 359.5 322 359.4C318.5 360.5 315 361.6 311.2 362.5C310.6 362.6 310 362.7 309.4 362.7C307.3 362.7 305.3 361.8 303.8 360.3C296.8 352.6 290.6 344.4 285.2 336C266.5 351.9 246.9 361.2 226.8 363.5C223.6 363.9 219.7 364.1 215.9 364.1Z" fill="white"/>
<path d="M279 26.7C289 26.7 288.4 37.5 285.6 44.4C284 48.3 281 52 277.3 55.3C282 55.1 286.7 55 291.4 55C304.6 55 317.8 55.8 330.9 57.3C343.1 58.7 403.9 66.9 386.5 88C386.2 88.3 386 88.5 385.7 88.7C406 99.9 424.4 114.4 439.6 131.9C444.5 137.3 442.2 146.4 435.3 148.8C433.9 149.3 432 149.4 430.5 149.5C415.8 150.8 400.4 152.7 386.6 158.3C388.2 160.4 389.8 162.5 391.4 164.7L392.7 164.1C399.8 161 405.5 160.4 409.1 160.4C415.5 160.4 419.9 162.4 421.2 165.9C421.7 167.2 422.3 170.5 418.3 173.8C416.7 175.1 414.6 176.6 412 176.6C409.9 176.6 408.3 175.7 406.6 174.8C404.4 173.6 401.5 172 396 171.1C398.4 174.9 400.8 179 403.2 183.3C413.7 202.4 419 222.2 418.8 241.9C419.5 242.8 420.1 243.6 420.6 244.3C423.8 249.9 427.7 267.2 416.9 270.3C416.8 270.2 416.7 270.1 416.6 270C418.8 277.2 418.9 285.8 408.1 289.8C411.6 297.9 409.6 305.9 402.9 312.4C397.2 318 392.3 319.2 389.1 319.2C388 319.2 387 319 386.4 318.9C379.3 326.2 371.2 332.9 362.1 338.8L362.6 338.7L349.3 348.5C340.4 355.1 329.8 358.1 323.7 358.1C323.1 358.1 322.5 358.1 322 358C318.5 359.2 314.8 360.2 311 361.2C310.5 361.3 310.1 361.4 309.6 361.4C307.9 361.4 306.3 360.7 305.1 359.5C297.7 351.3 291.3 342.8 285.8 334C268 349 247.9 359.6 226.6 362C223.2 362.4 219.4 362.6 215.9 362.6C215.3 362.6 214.8 362.6 214.3 362.6C212.1 362.4 208.4 362.4 206.2 362.1C196.8 361.3 187.3 359.5 178.2 356.7C146.1 347.1 119.4 325.5 102.4 298C100.7 303.6 97 309.7 90.2 315.8C88.9 327 83.7 335.6 75.1 340.8C68.9 344.6 61 346.5 52.3 346.5C43.1 346.5 33 344.4 22.8 340.2L21.7 339.7L21.2 338.6C15.4 326.1 13.9 319.9 13.5 317.1C5.5 309.5 3.7 300.8 3.6 294.8C3.5 287.3 6.3 279.7 10.7 274.7C5.8 261.8 6.9 258.9 10.7 252.4L11.2 251.5C11.4 251.2 26.9 224.6 45.9 224.6C47.9 224.6 49.9 224.9 52 225.5C67.5 230.4 73.8 246.7 75.4 252C78.6 253.3 82.2 255.3 85.7 258C84.6 253.4 83.8 248.7 83.2 244C82.9 243.6 82.6 243.1 82.3 242.6C78.3 236.3 76.3 229 74.6 221.9C72.8 214.4 71.8 206.2 75.4 198.9C76.8 196.1 78.7 194.3 80.7 193.3L73.3 174.7C67.6 160.2 70.6 135.2 79.8 121.2C85.5 112.6 91.8 110.6 96.1 110.5C96.3 110.5 96.5 110.5 96.7 110.5C101.7 110.5 104 112.8 105.1 114.7C107.2 118.5 105.3 122.6 104.7 123.9C103.8 125.8 102.5 127.8 100.9 130.4C95.6 138.9 86.8 153.2 85.4 172.8L84 192.5C84.4 192.5 84.8 192.5 85.2 192.6C94.6 152.1 113.4 113.5 141.9 83.3C146.3 79 154.5 70.9 162.2 67.7L166.8 56.9C173 42.3 194.2 27.5 208.8 27.5C213.4 27.5 217.3 28.9 220.3 31.6C223.9 35 224 38.2 223.5 40.3C222.4 44.4 218.4 45.9 217.1 46.3C215.4 46.9 213.4 47.4 210.8 48C202.1 50.1 189.1 53.2 176.7 64L172.5 67.6C177 70.7 175.8 76.3 172.2 82.3C173.6 81.4 175.1 80.4 176.6 79.5C192.8 69.3 211.2 63.1 228.3 54.9C236.8 50.7 244.7 45.8 252.2 39.9C256.1 37 260 34.2 264.3 31.7C269 29.4 273.4 26.9 279 26.7ZM279 23.7C278.9 23.7 278.9 23.7 278.8 23.7C272.6 24 267.8 26.7 263.1 29.2H263C263 29.2 263 29.2 262.9 29.2C259.1 31.4 255.1 34.1 250.5 37.6C250.5 37.6 250.5 37.6 250.4 37.6C243.2 43.3 235.5 48.1 227.1 52.3C221.2 55.1 215.1 57.8 209.1 60.3C198.8 64.7 188.3 69.2 178.4 75C178.9 71.9 178.2 69.6 177 67.8L178.8 66.3C190.6 56 203.3 52.9 211.6 50.9C214.2 50.3 216.3 49.8 218.2 49.1C222.7 47.5 225.5 44.8 226.5 41C227.1 38.6 227.4 34 222.5 29.3C219 26.1 214.4 24.3 209 24.3C193.2 24.3 171 39.8 164.3 55.6L160.1 65.3C152.2 68.9 144.3 76.7 140 80.9L139.9 81C139.9 81 139.9 81 139.8 81.1C117.3 105 100 134.7 89 168.2C91.3 151.8 98.8 139.6 103.5 132C105.2 129.3 106.5 127.2 107.4 125.2C109.6 120.7 109.7 116.7 107.8 113.2C106.6 111.1 103.6 107.5 96.8 107.5C96.6 107.5 96.3 107.5 96.1 107.5C91.1 107.7 83.7 109.9 77.4 119.6C72.7 126.7 69.4 136.6 68.1 147.4C66.8 158.2 67.7 168.3 70.6 175.8L77 192.1C75.3 193.4 73.8 195.3 72.7 197.5C72.7 197.5 72.7 197.5 72.7 197.6C68.6 206 69.9 214.9 71.7 222.6C73.4 229.8 75.5 237.5 79.8 244.3C80 244.6 80.2 244.9 80.4 245.2C80.7 247.3 81 249.5 81.4 251.7C80.2 251 79 250.5 77.9 249.9C75.6 243.4 68.7 227.8 53 222.8C50.7 222.1 48.4 221.7 46 221.7C37.3 221.7 28.3 226.5 19.4 236C12.8 243.1 8.7 250 8.7 250.1L8.2 251C4.1 258.1 2.89999 261.9 7.39999 274.2C3.09999 279.7 0.700002 287.3 0.800002 294.9C0.900002 301.2 2.7 310.4 10.8 318.6C11.4 322.1 13.3 328.5 18.6 339.9L19.1 341C19.4 341.7 20 342.2 20.7 342.5L21.8 343C32.2 347.3 42.8 349.5 52.5 349.5C61.8 349.5 70.3 347.4 76.8 343.4C85.9 337.9 91.5 328.9 93.1 317.3C97.4 313.2 100.7 308.9 103 304.4C121 331.1 147.2 350.5 177.3 359.6C186.2 362.4 195.8 364.2 205.8 365.1C207.3 365.3 209.1 365.4 211 365.4C212.1 365.4 213.2 365.5 214.1 365.6C214.2 365.6 214.2 365.6 214.3 365.6C214.9 365.6 215.4 365.6 216 365.6C219.9 365.6 223.8 365.4 227.1 365C246.9 362.7 266.4 353.7 284.9 338.3C290.1 346.3 296.1 354 302.7 361.3C304.4 363.1 306.8 364.2 309.4 364.2C310.1 364.2 310.8 364.1 311.5 363.9C315.2 362.9 318.7 361.9 322.1 360.8C322.6 360.8 323 360.8 323.5 360.8C330.1 360.8 341.5 357.6 350.9 350.7L364.2 340.9C364.5 340.7 364.7 340.5 364.9 340.2C373.1 334.8 380.6 328.6 387.3 321.9C387.9 322 388.4 322 389 322C392.7 322 398.4 320.7 404.9 314.3C411.7 307.7 414.1 299.4 411.7 291.2C419 287.5 421.9 280.8 420.1 272C422.5 270.7 424.4 268.6 425.5 265.8C428.5 258.4 425.8 247.6 423 242.6C422.7 242 422.2 241.3 421.6 240.6C421.6 220.7 416.2 200.8 405.6 181.7C404.5 179.7 403.4 177.8 402.3 175.9C403.3 176.4 404.2 176.8 404.9 177.2C406.8 178.2 408.9 179.4 411.8 179.4C415.4 179.4 418.3 177.4 420.1 175.9C425.7 171.2 424.4 166.1 423.9 164.7C422.2 159.9 416.7 157.2 409 157.2C405.3 157.2 399.5 157.8 392.4 160.7C392.1 160.3 391.8 159.8 391.5 159.4C404 155 417.8 153.4 430.9 152.2H431.3C432.8 152.1 434.7 151.9 436.4 151.3C440.6 149.8 443.8 146.3 444.9 141.9C446 137.5 444.9 132.9 441.9 129.6C427.6 113.2 410.3 99 390.3 87.5C393.3 82.8 392.8 78.9 391.8 76.3C389.1 69.5 379.4 64 362.4 59.6C349.1 56.2 335.2 54.4 331.3 54C317.6 52.5 304.1 51.7 291.4 51.7C289.1 51.7 286.8 51.7 284.6 51.8C286.2 49.7 287.5 47.5 288.4 45.3C290.5 40.1 291.6 32.8 288.3 27.9C286.9 26.1 284.2 23.7 279 23.7Z" fill="#DC222D"/>
<path d="M328 42C323 42 317.7 41.2 312.2 39.8L297.7 35.9C297.1 35.7 296.7 35.2 296.6 34.6C296.5 34 296.8 33.4 297.3 33.1L310.3 25.5C320.6 19.5 324.7 14.2 327.7 10.3C330.6 6.5 334.2 1.89999 341.3 1.89999C343.7 1.89999 346.3 2.49999 349.5 3.59999C356.7 6.29999 360.6 13.4 359.2 21.2C357.5 31.3 347 42 328 42Z" fill="white"/>
<path d="M341.4 3.39999C343.6 3.39999 346.1 3.89999 349.1 5.09999C355.6 7.49999 359.1 13.9 357.9 21.1C356.2 30.5 346.2 40.6 328.1 40.6C323.3 40.6 318.1 39.9 312.7 38.4L298.2 34.5L311.2 26.9C321.8 20.7 326 15.3 329.1 11.3C331.8 7.6 335 3.39999 341.4 3.39999ZM341.4 0.399994C333.6 0.399994 329.6 5.59999 326.6 9.39999C323.7 13.2 319.6 18.4 309.6 24.2L296.6 31.8C295.6 32.4 295 33.6 295.1 34.8C295.2 36 296.1 37 297.3 37.3L311.8 41.2C317.5 42.7 322.9 43.5 328 43.5C347.8 43.5 358.8 32.1 360.7 21.6C362.2 13 358 5.2 350 2.3C346.7 0.999995 344 0.399994 341.4 0.399994Z" fill="#DC222D"/>
<path d="M447.6 119.7C443.4 119.7 438.8 118.2 434.6 115.5C430.1 112.6 426.3 108.5 423.8 103.6L418.2 93C417.9 92.5 418 91.8 418.4 91.3C418.7 91 419.1 90.8 419.5 90.8C419.7 90.8 419.8 90.8 420 90.9L431.3 95C434.9 96.3 438.3 96.9 441.7 96.9C443.5 96.9 445.1 96.7 446.5 96.6C447.7 96.5 448.9 96.3 450.1 96.3C454.5 96.3 459.8 98.3 460.1 107.6C460.2 110.9 459.2 113.8 457.1 116C454.9 118.5 451.6 119.7 447.6 119.7Z" fill="white"/>
<path d="M419.6 92.3L430.9 96.4C434.6 97.7 438.2 98.4 441.8 98.4C443.7 98.4 445.4 98.2 446.8 98.1C448 98 449.1 97.9 450.2 97.9C455.6 97.9 458.5 101.2 458.8 107.7C458.9 110.6 458 113.1 456.2 115C454.2 117.1 451.2 118.2 447.7 118.2C443.8 118.2 439.5 116.8 435.5 114.3C431.2 111.5 427.6 107.6 425.2 103L419.6 92.3ZM419.6 89.3C418.7 89.3 417.9 89.7 417.3 90.3C416.5 91.2 416.3 92.6 416.9 93.7L422.5 104.3C425.2 109.4 429.1 113.7 433.8 116.8C438.2 119.6 443.1 121.2 447.6 121.2C452 121.2 455.6 119.8 458.3 117C460.7 114.5 461.9 111.2 461.8 107.4C461.5 99.3 457.3 94.7 450.3 94.7C449.1 94.7 447.9 94.8 446.6 95C445.2 95.1 443.6 95.3 441.9 95.3C438.7 95.3 435.4 94.7 432 93.5L420.7 89.4C420.3 89.4 419.9 89.3 419.6 89.3Z" fill="#DC222D"/>
<path d="M9.7 400.8V584.4C9.7 605.9 22 625.4 41.3 634.7C161.3 692.5 301.1 692.5 421.1 634.7C440.4 625.4 452.7 605.8 452.7 584.4V400.8C452.7 379.3 440.4 359.8 421.1 350.5C301.1 292.7 161.3 292.7 41.3 350.5C21.9 359.8 9.7 379.3 9.7 400.8Z" fill="white" stroke="#DC222D" stroke-width="3" stroke-miterlimit="2"/>
<path d="M76.4 370.1C71.7 371.3 69.3 371.9 64.6 373.2C64.9 402.4 65.1 431.6 65.4 460.8C70.2 460.6 72.6 460.4 77.3 460.2C77 430.2 76.7 400.1 76.4 370.1Z" fill="white"/>
<path d="M184.4 397.1C184.3 382.4 184.2 367.7 184.2 353C179.4 353.4 176.9 353.6 172.1 354C172.2 368.6 172.3 383.2 172.4 397.8C177.1 397.4 179.5 397.3 184.4 397.1Z" fill="white"/>
<path d="M290.5 353.6C285.7 353.2 283.2 353 278.4 352.6C278.2 387.3 278 422.1 277.8 456.8C282.6 456.9 285 456.9 289.8 457C290 422.5 290.2 388.1 290.5 353.6Z" fill="white"/>
<path d="M397.8 372.9C393.1 371.6 390.7 371 386 369.8C385.8 389.4 385.6 409 385.4 428.7C390.2 429.3 392.5 429.6 397.3 430.2C397.4 411 397.6 391.9 397.8 372.9Z" fill="white"/>
<path d="M220.9 550.1C219.4 569.6 217.8 589.2 216.3 608.7C220.5 608.8 222.6 608.8 226.8 608.8C225.2 589.2 223.6 569.7 222 550.1C221.6 550.1 221.4 550.1 220.9 550.1Z" fill="white"/>
<path d="M307.8 543C307.9 555.7 308 568.3 308.2 581C312.3 580.7 314.3 580.6 318.3 580.3C318.2 567.8 318 555.3 317.9 542.7C313.8 542.8 311.8 542.9 307.8 543Z" fill="white"/>
<path d="M113.3 492V510.8H106.2V492H113.3Z" fill="#002451"/>
<path d="M137.6 510.8L132.8 502.4V510.8H127.5V492H133.6L138.7 501V492H143.9V510.8H137.6Z" fill="#002451"/>
<path d="M168.2 510.8L163.4 502.4V510.8H158.1V492H164.2L169.3 501V492H174.5V510.8H168.2Z" fill="#002451"/>
<path d="M195.1 497.6C195.1 497.7 195.1 497.7 195.2 497.8L195.3 497.9L195.4 498C195.4 498 195.5 498.1 195.6 498.1C195.7 498.1 195.7 498.1 195.8 498.2C195.9 498.2 195.9 498.2 196 498.3C196.1 498.3 196.2 498.3 196.2 498.3C196.2 498.3 196.3 498.3 196.4 498.3C196.5 498.3 196.6 498.3 196.6 498.3C198.4 498.6 199.6 498.9 200.4 499.2C202.1 499.8 203.3 500.7 203.8 502C204.1 502.7 204.3 503.5 204.3 504.5C204.3 505.9 204.2 507 203.9 507.9C203.6 508.8 203.1 509.5 202.5 510C201.8 510.5 201 510.9 200.1 511.1C199.1 511.3 197.9 511.4 196.5 511.4C196 511.4 195.5 511.4 195.1 511.4C194.7 511.4 194.2 511.3 193.6 511.3C193.1 511.2 192.6 511.1 192.2 511C191.8 510.9 191.4 510.7 190.9 510.5C190.5 510.3 190.1 510 189.8 509.7C189.5 509.4 189.3 509 189 508.5C188.8 508 188.7 507.5 188.6 506.9C188.6 506.4 188.5 505.8 188.5 505.2H195.2V508.2H197.2V505.3C197.2 505.2 197.2 505 197.1 504.9C197 504.8 196.9 504.7 196.7 504.6C196.5 504.5 196.4 504.4 196.3 504.4C196.2 504.4 196 504.3 195.8 504.2C195.5 504.1 195.2 504 194.8 503.9C194.4 503.8 194 503.7 193.7 503.6C193.4 503.5 193.1 503.4 192.7 503.3C192.3 503.2 192 503 191.7 502.9C191.4 502.8 191.1 502.6 190.8 502.4C190.5 502.2 190.2 502 190 501.8C189.8 501.6 189.6 501.4 189.3 501.1C189.1 500.8 188.9 500.5 188.8 500.2C188.7 499.9 188.6 499.5 188.5 499.1C188.4 498.7 188.4 498.3 188.4 497.8C188.4 497.1 188.5 496.4 188.6 495.8C188.7 495.2 188.9 494.7 189.2 494.3C189.4 493.9 189.7 493.5 190.1 493.2C190.5 492.9 190.9 492.6 191.3 492.4C191.7 492.2 192.2 492 192.7 491.9C193.2 491.8 193.8 491.7 194.3 491.6C194.8 491.6 195.4 491.5 196.1 491.5C196.8 491.5 197.4 491.5 197.9 491.6C198.4 491.6 199 491.7 199.5 491.8C200 491.9 200.5 492 200.9 492.2C201.3 492.4 201.7 492.6 202 492.9C202.3 493.2 202.6 493.5 202.8 493.9C203 494.3 203.2 494.7 203.3 495.2C203.4 495.7 203.5 496.3 203.5 497H197.2V494.9H195.2L195.1 497.6Z" fill="#002451"/>
<path d="M229.7 500.6V500.8C230.6 500.9 231.3 501.1 231.9 501.4C232.5 501.7 233 502.1 233.3 502.5C233.6 502.9 233.8 503.4 234 503.9C234.1 504.4 234.2 504.9 234.2 505.5C234.2 506.6 234.1 507.5 233.9 508.2C233.7 508.9 233.3 509.4 232.8 509.9C232.3 510.3 231.6 510.6 230.8 510.7C230 510.9 229 510.9 227.9 510.9H218V492.1H228C228.5 492.1 228.9 492.1 229.3 492.1C229.7 492.1 230.1 492.2 230.5 492.3C230.9 492.4 231.3 492.5 231.6 492.6C231.9 492.7 232.2 492.9 232.5 493.1C232.8 493.3 233 493.6 233.2 493.9C233.4 494.2 233.5 494.6 233.7 495C233.8 495.4 233.9 495.9 233.9 496.5C233.9 497.7 233.6 498.7 233 499.4C232.2 500.1 231.2 500.5 229.7 500.6ZM224.9 508.1H226.9V501.8H224.9V508.1ZM224.9 499.7H226.9V494.9H224.9V499.7Z" fill="#002451"/>
<path d="M259.6 501.6C261.2 501.9 262.3 502.3 263 503C263.7 503.7 264 504.6 264 505.7V510.8H256.9V503.2H254.9V510.8H247.8V492H258.5C259.4 492 260.1 492.1 260.8 492.2C261.4 492.4 262 492.6 262.5 493C263 493.4 263.3 493.9 263.6 494.5C263.8 495.1 263.9 495.9 263.9 496.8C263.9 497.4 263.9 497.8 263.8 498.3C263.7 498.7 263.6 499.1 263.4 499.5C263.2 499.9 263 500.2 262.7 500.5C262.4 500.8 262 501 261.5 501.2C260.8 501.4 260.2 501.5 259.6 501.6ZM254.8 500.5H256.8V494.9H254.8V500.5Z" fill="#002451"/>
<path d="M284.6 508.2H286.6V492.2H293.7V506.6C293.7 507.2 293.6 507.8 293.4 508.3C293.2 508.8 293 509.2 292.7 509.5C292.4 509.8 292 510.1 291.6 510.4C291.1 510.6 290.7 510.8 290.3 511C289.9 511.1 289.3 511.2 288.8 511.3C288.2 511.4 287.7 511.4 287.2 511.5C286.7 511.5 286.2 511.5 285.6 511.5C285.1 511.5 284.6 511.5 284.1 511.5C283.7 511.5 283.1 511.4 282.6 511.4C282 511.3 281.5 511.2 281.1 511.1C280.6 511 280.2 510.8 279.7 510.5C279.2 510.3 278.9 510 278.6 509.6C278.3 509.2 278.1 508.9 277.9 508.4C277.7 507.9 277.6 507.3 277.6 506.7V492.3H284.7L284.6 508.2Z" fill="#002451"/>
<path d="M316.9 495H314.9V508.2H316.9V503.7H324V506.6C324 507.2 323.9 507.8 323.7 508.3C323.5 508.8 323.3 509.2 323 509.5C322.7 509.8 322.3 510.1 321.9 510.4C321.5 510.6 321 510.8 320.6 511C320.2 511.1 319.6 511.2 319.1 511.3C318.5 511.4 318 511.4 317.5 511.5C317 511.5 316.5 511.5 315.9 511.5C315.4 511.5 314.9 511.5 314.4 511.5C314 511.5 313.4 511.4 312.9 511.4C312.3 511.3 311.8 511.2 311.3 511.1C310.8 511 310.4 510.8 309.9 510.5C309.4 510.3 309 510 308.7 509.6C308.4 509.3 308.1 508.9 307.9 508.4C307.7 507.9 307.6 507.3 307.6 506.7V496.6C307.6 496 307.7 495.4 307.9 495C308.1 494.5 308.3 494.1 308.6 493.8C308.9 493.5 309.3 493.2 309.7 492.9C310.1 492.7 310.6 492.5 311 492.3C311.5 492.2 312 492.1 312.5 492C313.1 491.9 313.6 491.9 314.1 491.8C314.6 491.8 315.1 491.8 315.7 491.8C316.3 491.8 316.9 491.8 317.3 491.8C317.8 491.8 318.3 491.9 318.9 491.9C319.5 492 320 492.1 320.4 492.2C320.8 492.3 321.3 492.5 321.7 492.8C322.1 493 322.5 493.3 322.8 493.7C323.1 494 323.3 494.4 323.5 494.9C323.7 495.4 323.8 496 323.8 496.6V499.5H316.7L316.9 495Z" fill="#002451"/>
<path d="M348.6 511L345.6 502.8L344.9 504.3V510.9H337.8V492.1H344.9V498.9V501.1L348.4 492.1H355.7L351.9 501L356.3 510.9L348.6 511Z" fill="#002451"/>
<path d="M113.3 492V510.8H106.2V492H113.3Z" fill="#DC222D"/>
<path d="M137.6 510.8L132.8 502.4V510.8H127.5V492H133.6L138.7 501V492H143.9V510.8H137.6Z" fill="#DC222D"/>
<path d="M168.2 510.8L163.4 502.4V510.8H158.1V492H164.2L169.3 501V492H174.5V510.8H168.2Z" fill="#DC222D"/>
<path d="M195.1 497.6C195.1 497.7 195.1 497.7 195.2 497.8L195.3 497.9L195.4 498C195.4 498 195.5 498.1 195.6 498.1C195.7 498.1 195.7 498.1 195.8 498.2C195.9 498.2 195.9 498.2 196 498.3C196.1 498.3 196.2 498.3 196.2 498.3C196.2 498.3 196.3 498.3 196.4 498.3C196.5 498.3 196.6 498.3 196.6 498.3C198.4 498.6 199.6 498.9 200.4 499.2C202.1 499.8 203.3 500.7 203.8 502C204.1 502.7 204.3 503.5 204.3 504.5C204.3 505.9 204.2 507 203.9 507.9C203.6 508.8 203.1 509.5 202.5 510C201.8 510.5 201 510.9 200.1 511.1C199.1 511.3 197.9 511.4 196.5 511.4C196 511.4 195.5 511.4 195.1 511.4C194.7 511.4 194.2 511.3 193.6 511.3C193.1 511.2 192.6 511.1 192.2 511C191.8 510.9 191.4 510.7 190.9 510.5C190.5 510.3 190.1 510 189.8 509.7C189.5 509.4 189.3 509 189 508.5C188.8 508 188.7 507.5 188.6 506.9C188.6 506.4 188.5 505.8 188.5 505.2H195.2V508.2H197.2V505.3C197.2 505.2 197.2 505 197.1 504.9C197 504.8 196.9 504.7 196.7 504.6C196.5 504.5 196.4 504.4 196.3 504.4C196.2 504.4 196 504.3 195.8 504.2C195.5 504.1 195.2 504 194.8 503.9C194.4 503.8 194 503.7 193.7 503.6C193.4 503.5 193.1 503.4 192.7 503.3C192.3 503.2 192 503 191.7 502.9C191.4 502.8 191.1 502.6 190.8 502.4C190.5 502.2 190.2 502 190 501.8C189.8 501.6 189.6 501.4 189.3 501.1C189.1 500.8 188.9 500.5 188.8 500.2C188.7 499.9 188.6 499.5 188.5 499.1C188.4 498.7 188.4 498.3 188.4 497.8C188.4 497.1 188.5 496.4 188.6 495.8C188.7 495.2 188.9 494.7 189.2 494.3C189.4 493.9 189.7 493.5 190.1 493.2C190.5 492.9 190.9 492.6 191.3 492.4C191.7 492.2 192.2 492 192.7 491.9C193.2 491.8 193.8 491.7 194.3 491.6C194.8 491.6 195.4 491.5 196.1 491.5C196.8 491.5 197.4 491.5 197.9 491.6C198.4 491.6 199 491.7 199.5 491.8C200 491.9 200.5 492 200.9 492.2C201.3 492.4 201.7 492.6 202 492.9C202.3 493.2 202.6 493.5 202.8 493.9C203 494.3 203.2 494.7 203.3 495.2C203.4 495.7 203.5 496.3 203.5 497H197.2V494.9H195.2L195.1 497.6Z" fill="#DC222D"/>
<path d="M229.7 500.6V500.8C230.6 500.9 231.3 501.1 231.9 501.4C232.5 501.7 233 502.1 233.3 502.5C233.6 502.9 233.8 503.4 234 503.9C234.1 504.4 234.2 504.9 234.2 505.5C234.2 506.6 234.1 507.5 233.9 508.2C233.7 508.9 233.3 509.4 232.8 509.9C232.3 510.3 231.6 510.6 230.8 510.7C230 510.9 229 510.9 227.9 510.9H218V492.1H228C228.5 492.1 228.9 492.1 229.3 492.1C229.7 492.1 230.1 492.2 230.5 492.3C230.9 492.4 231.3 492.5 231.6 492.6C231.9 492.7 232.2 492.9 232.5 493.1C232.8 493.3 233 493.6 233.2 493.9C233.4 494.2 233.5 494.6 233.7 495C233.8 495.4 233.9 495.9 233.9 496.5C233.9 497.7 233.6 498.7 233 499.4C232.2 500.1 231.2 500.5 229.7 500.6ZM224.9 508.1H226.9V501.8H224.9V508.1ZM224.9 499.7H226.9V494.9H224.9V499.7Z" fill="#DC222D"/>
<path d="M259.6 501.6C261.2 501.9 262.3 502.3 263 503C263.7 503.7 264 504.6 264 505.7V510.8H256.9V503.2H254.9V510.8H247.8V492H258.5C259.4 492 260.1 492.1 260.8 492.2C261.4 492.4 262 492.6 262.5 493C263 493.4 263.3 493.9 263.6 494.5C263.8 495.1 263.9 495.9 263.9 496.8C263.9 497.4 263.9 497.8 263.8 498.3C263.7 498.7 263.6 499.1 263.4 499.5C263.2 499.9 263 500.2 262.7 500.5C262.4 500.8 262 501 261.5 501.2C260.8 501.4 260.2 501.5 259.6 501.6ZM254.8 500.5H256.8V494.9H254.8V500.5Z" fill="#DC222D"/>
<path d="M284.6 508.2H286.6V492.2H293.7V506.6C293.7 507.2 293.6 507.8 293.4 508.3C293.2 508.8 293 509.2 292.7 509.5C292.4 509.8 292 510.1 291.6 510.4C291.1 510.6 290.7 510.8 290.3 511C289.9 511.1 289.3 511.2 288.8 511.3C288.2 511.4 287.7 511.4 287.2 511.5C286.7 511.5 286.2 511.5 285.6 511.5C285.1 511.5 284.6 511.5 284.1 511.5C283.7 511.5 283.1 511.4 282.6 511.4C282 511.3 281.5 511.2 281.1 511.1C280.6 511 280.2 510.8 279.7 510.5C279.2 510.3 278.9 510 278.6 509.6C278.3 509.2 278.1 508.9 277.9 508.4C277.7 507.9 277.6 507.3 277.6 506.7V492.3H284.7L284.6 508.2Z" fill="#DC222D"/>
<path d="M316.9 495H314.9V508.2H316.9V503.7H324V506.6C324 507.2 323.9 507.8 323.7 508.3C323.5 508.8 323.3 509.2 323 509.5C322.7 509.8 322.3 510.1 321.9 510.4C321.5 510.6 321 510.8 320.6 511C320.2 511.1 319.6 511.2 319.1 511.3C318.5 511.4 318 511.4 317.5 511.5C317 511.5 316.5 511.5 315.9 511.5C315.4 511.5 314.9 511.5 314.4 511.5C314 511.5 313.4 511.4 312.9 511.4C312.3 511.3 311.8 511.2 311.3 511.1C310.8 511 310.4 510.8 309.9 510.5C309.4 510.3 309 510 308.7 509.6C308.4 509.3 308.1 508.9 307.9 508.4C307.7 507.9 307.6 507.3 307.6 506.7V496.6C307.6 496 307.7 495.4 307.9 495C308.1 494.5 308.3 494.1 308.6 493.8C308.9 493.5 309.3 493.2 309.7 492.9C310.1 492.7 310.6 492.5 311 492.3C311.5 492.2 312 492.1 312.5 492C313.1 491.9 313.6 491.9 314.1 491.8C314.6 491.8 315.1 491.8 315.7 491.8C316.3 491.8 316.9 491.8 317.3 491.8C317.8 491.8 318.3 491.9 318.9 491.9C319.5 492 320 492.1 320.4 492.2C320.8 492.3 321.3 492.5 321.7 492.8C322.1 493 322.5 493.3 322.8 493.7C323.1 494 323.3 494.4 323.5 494.9C323.7 495.4 323.8 496 323.8 496.6V499.5H316.7L316.9 495Z" fill="#DC222D"/>
<path d="M348.6 511L345.6 502.8L344.9 504.3V510.9H337.8V492.1H344.9V498.9V501.1L348.4 492.1H355.7L351.9 501L356.3 510.9L348.6 511Z" fill="#DC222D"/>
<path d="M118.1 374.6C118.4 398 118.6 421.4 118.9 444.8C118.9 448.7 118.7 452.2 118.1 455.4C117.5 458.6 116.6 461.3 115.4 463.6C114.2 465.9 112.8 467.9 111.3 469.6C109.8 471.3 107.9 472.7 105.7 473.8C103.5 474.9 101.4 475.8 99.3 476.5C97.2 477.2 94.8 477.7 91.9 478.1C89.1 478.4 86.5 478.6 84.2 478.8C81.9 478.9 79.2 479 76.1 479C58.7 479.1 41.3 479.3 23.9 479.4C23.9 452.2 23.9 425 23.9 397.8C23.9 380.3 35 364.7 51.6 359C59.3 356.4 67 353.9 74.8 351.5C78.3 350.5 81.3 349.7 84 349.1C86.7 348.5 89.6 348.1 92.7 347.8C95.8 347.5 98.5 347.6 100.8 348C103.1 348.4 105.4 349.2 107.6 350.4C109.8 351.6 111.7 353.2 113.1 355.3C114.5 357.3 115.7 360 116.6 363.2C117.6 366.5 118.1 370.3 118.1 374.6ZM65.4 460.8C70.2 460.6 72.6 460.4 77.3 460.2C77 430.2 76.7 400.2 76.4 370.1C71.7 371.3 69.3 371.9 64.6 373.2C64.9 402.4 65.2 431.6 65.4 460.8Z" fill="#002451"/>
<path d="M200.4 404.7C200.4 404.9 200.4 405 200.5 405.3C208.2 406.1 216 409.3 220.6 415.7C225.1 422 226.8 429.9 226.7 437.5C226.7 451.2 226.7 464.8 226.7 478.5C212.7 478.5 198.8 478.5 184.8 478.5C184.7 458.5 184.6 438.5 184.5 418.5C179.7 418.7 177.3 418.8 172.5 419C172.6 438.9 172.8 458.7 172.9 478.6C159 478.6 145.1 478.7 131.2 478.7C130.7 431.9 130.2 385.1 129.8 338.4C151 334.6 172.2 331.9 193.7 330.3C199 329.9 203.5 330.3 207.3 331.4C211.1 332.5 214.4 334.4 217.2 337.2C220 340 222.1 343.9 223.5 348.8C225.1 354.5 225.6 361.2 225.6 367C225.6 371.4 225.4 375.3 225 378.7C224.6 382 223.8 385.3 222.7 388.3C221.6 391.4 220.1 394 218.3 396.1C216.4 398.2 214 400 211.1 401.5C208 403 204.5 404 200.4 404.7ZM172.3 397.7C177.1 397.4 179.5 397.3 184.4 397C184.3 382.3 184.2 367.6 184.2 352.9C179.4 353.3 176.9 353.5 172.1 353.9C172.1 368.5 172.2 383.1 172.3 397.7Z" fill="#002451"/>
<path d="M283.4 482.2C279.7 482.2 276.5 482.1 273.7 482C270.9 481.8 267.8 481.5 264.3 480.9C260.8 480.3 257.8 479.5 255.3 478.4C252.8 477.3 250.2 475.9 247.6 473.9C245 472 242.9 469.7 241.3 467.1C239.7 464.5 238.3 461.2 237.3 457.2C236.3 453.2 235.8 448.8 235.8 443.8C235.8 417.1 235.8 390.3 235.8 363.6C235.8 358.8 236.3 354.4 237.4 350.5C238.5 346.6 239.9 343.4 241.6 340.8C243.3 338.2 245.5 336 248.2 334.1C250.9 332.2 253.5 330.8 256.2 329.9C258.9 328.9 261.9 328.2 265.4 327.8C268.8 327.4 272 327.2 274.8 327.3C277.6 327.3 280.8 327.5 284.2 327.9C287.4 328.2 290.3 328.6 293 329.1C295.7 329.6 298.7 330.3 302.2 331.4C305.6 332.5 308.7 333.7 311.4 335.1C314.1 336.5 316.8 338.4 319.6 340.7C322.3 343 324.6 345.5 326.4 348.3C328.2 351.1 329.7 354.4 330.8 358.3C331.9 362.2 332.5 366.4 332.4 371C332.1 396.1 331.9 421.2 331.6 446.3C331.6 450.9 331 455.1 329.8 458.7C328.7 462.4 327.3 465.4 325.5 467.9C323.8 470.4 321.6 472.5 318.9 474.3C316.2 476.1 313.6 477.5 311 478.5C308.4 479.5 305.4 480.3 301.9 480.9C298.4 481.5 295.3 481.9 292.6 482C290 482.1 286.9 482.2 283.4 482.2ZM277.8 456.8C282.6 456.9 285 456.9 289.8 457C290 422.5 290.3 388.1 290.5 353.6C285.7 353.2 283.2 353 278.4 352.6C278.2 387.3 278 422.1 277.8 456.8Z" fill="#002451"/>
<path d="M344.7 340.8C362.2 344.6 379.4 349.1 396.5 354.3C399.9 355.4 403 356.4 405.6 357.5C408.3 358.5 411.1 359.8 414.2 361.3C417.2 362.8 419.9 364.4 422.1 366.1C424.3 367.7 426.5 369.6 428.7 371.8C430.9 374 432.6 376.3 434 378.6C435.4 381 436.5 383.7 437.3 386.7C438.1 389.7 438.6 392.9 438.6 396.3C438.6 405.8 438.6 415.2 438.6 424.7C438.6 427.5 438.3 429.9 437.8 432.1C437.3 434.3 436.6 436.2 435.7 437.8C434.8 439.4 433.7 440.8 432.2 442C430.8 443.2 429.3 444.2 427.8 445C426.3 445.8 424.5 446.4 422.4 446.9C420.3 447.4 418.3 447.8 416.4 448C414.5 448.2 412.3 448.3 409.7 448.3C407.2 448.3 404.9 448.2 402.8 448.1C400.8 448 398.4 447.8 395.7 447.6C391.5 447.3 389.4 447.1 385.2 446.8C385.1 457.5 385 468.3 384.9 479C371 478.9 357.1 478.8 343.2 478.8C343.7 432.8 344.2 386.8 344.7 340.8ZM385.4 428.7C390.2 429.3 392.5 429.6 397.3 430.2C397.5 411.1 397.6 392 397.8 372.9C393.1 371.6 390.7 371 386 369.8C385.8 389.4 385.6 409 385.4 428.7Z" fill="#002451"/>
<path d="M57.2 554.4C57.3 554.5 57.3 554.5 57.4 554.5C57.4 554.8 57.4 555 57.5 555.3C57.6 555.6 57.7 555.8 58 556C58.2 556.2 58.4 556.4 58.6 556.6C58.8 556.8 59.1 557 59.5 557.2C59.9 557.4 60.2 557.5 60.4 557.7C60.6 557.8 61 558 61.4 558.1C61.8 558.3 62.2 558.4 62.4 558.4C62.6 558.5 63 558.6 63.4 558.7C63.9 558.8 64.2 558.9 64.3 559C70.6 561.1 77 563.1 83 566.2C90.6 570.3 97.4 577 99.8 585.5C101.4 590.3 102 596.3 101.9 601.3C101.8 608.1 101.4 615.2 99.4 621.8C97.9 627 95.4 630.8 92.1 633.1C88.8 635.5 84.7 636.6 80 636.5C73.9 636.3 67.9 634.6 62.2 632.8C59.6 632 56.9 631.1 54.9 630.3C52.8 629.5 50.5 628.4 47.9 627.1C45.3 625.8 43 624.4 41 623C39 621.6 37 619.9 34.9 618C32.8 616 31.1 614 29.7 611.9C28.3 609.8 27.1 607.4 26.1 604.8C25.1 602.1 24.4 599.3 24.2 596.3C24 593.6 23.9 590.8 23.9 587.8C34.8 590.8 45.7 593.6 56.7 596.2C56.6 601.7 56.6 607.3 56.5 612.8C60.5 613.9 62.8 614.5 66.8 615.5C66.9 609.9 66.9 604.2 67 598.6C67 597.7 66.8 596.9 66.4 596.2C66 595.5 65.4 594.7 64.6 594.1C63.8 593.4 63.1 592.9 62.6 592.6C62.1 592.3 61.3 591.8 60.2 591.2C58.9 590.5 57.3 589.5 55.3 588.4C53.3 587.3 51.6 586.4 50.2 585.6C48.8 584.8 47.2 583.9 45.3 582.8C43.4 581.7 41.8 580.7 40.5 579.7C39.2 578.8 37.7 577.7 36.1 576.4C34.5 575.1 33.2 573.8 32.1 572.6C31 571.4 29.9 569.9 28.8 568.4C27.7 566.8 26.8 565.2 26.2 563.5C25.6 561.8 25 560 24.6 557.9C24.2 555.8 24 553.7 24 551.4C24 547.8 24.3 544.6 25 541.7C25.7 538.8 26.6 536.4 27.7 534.3C28.9 532.2 30.4 530.4 32.2 528.8C34 527.2 35.9 525.9 38 524.9C40 523.9 42.4 523.1 45.1 522.4C47.8 521.8 50.4 521.3 53.1 521.1C55.8 520.8 58.7 520.7 62 520.7C65.4 520.7 68.5 520.8 71.1 521C73.8 521.2 76.4 521.6 79.1 522.2C81.8 522.8 84.1 523.6 86 524.6C87.9 525.6 89.7 527 91.4 528.6C93.1 530.3 94.4 532.3 95.5 534.6C96.5 536.9 97.3 539.7 97.9 542.9C98.5 546.1 98.7 549.8 98.7 553.8C88.3 553.1 77.9 552.3 67.5 551.4C67.6 546.6 67.6 544.2 67.6 539.3C63.6 539.1 61.6 539 57.5 538.8C57.3 544.2 57.3 549.3 57.2 554.4Z" fill="#002451"/>
<path d="M182.2 524.2C182.2 531.5 182.1 538.8 182.1 546.2C175.2 546.1 168.2 545.9 161.3 545.8C161 581.3 160.7 616.7 160.3 652.2C148.4 650.6 136.5 648.7 124.7 646.4C125.1 612.5 125.5 578.6 125.9 544.7C119 544.4 112.2 544.2 105.3 543.9C105.4 537.3 105.5 530.6 105.6 524C131 524 156.6 524.1 182.2 524.2Z" fill="#002451"/>
<path d="M215.2 626.1C214.1 636.2 213 646.3 211.9 656.3C200.3 655.8 188.7 655.1 177.1 654C183.3 610.8 189.2 567.5 195.1 524.2C212.8 524.2 230.4 524.2 248.1 524.2C254 568 259.9 611.8 266.1 655.6C254.5 656.3 242.8 656.6 231.2 656.7C230.1 646.6 229.1 636.4 228 626.3C222.8 626.2 220.2 626.2 215.2 626.1ZM222 550.1C221.6 550.1 221.3 550.1 220.9 550.1C219.4 569.6 217.8 589.2 216.3 608.7C220.5 608.8 222.6 608.8 226.8 608.8C225.2 589.3 223.6 569.7 222 550.1Z" fill="#002451"/>
<path d="M331.8 586.1C331.8 586.3 331.8 586.4 331.9 586.6C338.1 586.8 344.8 588.7 348.8 593.5C352.6 598.1 354.1 604.3 354.1 610.2C354.2 621.1 354.4 631.9 354.5 642.8C342.7 645.4 330.9 647.7 319 649.7C318.8 632.7 318.6 615.6 318.5 598.6C314.4 599 312.4 599.2 308.3 599.5C308.5 616.7 308.6 634 308.8 651.2C296.9 652.8 285 654.1 273 655.1C272.8 611.5 272.5 567.8 272.3 524.2C290.1 524.2 307.9 524.1 325.6 524C330 524 333.8 524.5 336.9 525.4C340 526.4 342.8 528 345.2 530.3C347.6 532.6 349.4 535.7 350.6 539.6C351.8 543.5 352.4 548.3 352.5 554.1C352.5 557.6 352.4 560.7 352.1 563.4C351.8 566.1 351.2 568.7 350.3 571.2C349.4 573.7 348.2 575.9 346.7 577.8C345.2 579.6 343.2 581.3 340.7 582.7C338.2 584.2 335.2 585.3 331.8 586.1ZM308.1 581C312.2 580.7 314.2 580.6 318.2 580.3C318.1 567.8 317.9 555.3 317.8 542.7C313.8 542.8 311.7 542.9 307.7 543C307.9 555.7 308 568.3 308.1 581Z" fill="#002451"/>
<path d="M393.4 555.6C393.5 555.6 393.5 555.7 393.6 555.7C393.6 556 393.7 556.2 393.8 556.5C393.9 556.8 394.1 557 394.3 557.2C394.5 557.4 394.7 557.5 394.9 557.7C395.1 557.8 395.4 558 395.8 558.1C396.2 558.2 396.5 558.3 396.7 558.4C397 558.5 397.3 558.5 397.7 558.6C398.1 558.7 398.5 558.7 398.7 558.7C398.9 558.7 399.3 558.7 399.7 558.8C400.2 558.8 400.5 558.9 400.6 558.9C406.9 559.5 413.2 560 419.3 561.4C426.3 563.6 432.8 566 436.2 573.1C437.7 576.3 438.6 580.3 438.5 584.9C438.4 590.7 438 596.6 436.4 602.3C435 607.1 432.6 611.5 429.5 615.4C426.4 619.2 422 622.9 417.7 625.4C412.2 628.6 406.2 631.2 400.1 633.2C397.5 634 395.2 634.7 393.1 635.3C391 635.8 388.7 636.3 386 636.7C383.3 637.1 381 637.2 378.9 637C376.8 636.8 374.7 636.3 372.6 635.5C370.4 634.7 368.6 633.5 367.1 631.9C365.6 630.3 364.3 628.2 363.3 625.6C362.2 622.9 361.5 619.8 361.2 616.2C360.9 612.9 360.8 609.4 360.7 605.7C371.8 603.8 382.9 601.6 393.9 599.3C394 605 394 610.8 394.1 616.5C398.1 615.5 400.1 614.9 404 613.8C403.9 608.3 403.9 602.8 403.8 597.3C403.8 596.5 403.6 595.8 403.2 595.2C402.8 594.6 402.2 594.2 401.3 593.9C400.5 593.6 399.8 593.3 399.3 593.2C398.8 593.1 398 592.9 396.9 592.7C395.6 592.5 394 592.2 391.9 591.9C389.8 591.6 388.1 591.3 386.7 591C385.3 590.7 383.6 590.4 381.7 589.9C379.8 589.4 378.1 588.9 376.8 588.4C375.4 587.9 373.9 587.2 372.3 586.3C370.7 585.4 369.3 584.4 368.2 583.3C367.1 582.2 365.9 580.9 364.8 579.4C363.7 577.9 362.7 576.2 362.1 574.3C361.4 572.4 360.9 570.3 360.4 567.8C360 565.3 359.7 562.7 359.7 559.8C359.6 555.3 359.9 551.2 360.5 547.5C361.1 543.8 362 540.6 363.1 537.9C364.2 535.2 365.7 532.9 367.5 530.9C369.3 528.9 371.2 527.3 373.2 526.1C375.2 524.9 377.6 523.9 380.2 523.2C382.9 522.5 385.5 522 388.2 521.7C390.9 521.4 393.8 521.3 397.1 521.3C400.5 521.3 403.6 521.4 406.2 521.6C408.9 521.8 411.5 522.2 414.2 522.7C416.9 523.2 419.2 523.9 421.1 524.8C423 525.7 424.9 526.8 426.6 528.1C428.3 529.4 429.7 531 430.8 532.9C431.9 534.8 432.7 537 433.3 539.6C433.9 542.2 434.2 545.1 434.2 548.4C423.9 549.5 413.5 550.5 403.1 551.5C403.1 546.8 403 544.4 403 539.7C399 539.9 397 540 392.9 540.2C393.2 545 393.3 550.3 393.4 555.6Z" fill="#002451"/>
<path d="M73.6 254.5C89.9 260 118.4 287.9 88 314.3C85.2 345.2 53.1 348.9 24.8 337.3C16.8 319.9 17.4 315.7 17.4 315.7C2.39999 302.4 7.09999 282.9 15.2 275.5C9.5 261 11 259.6 14.8 253.1C18.6 246.6 35.2 223.3 51.9 228.6C68.5 233.9 73.6 254.5 73.6 254.5Z" fill="white" stroke="white" stroke-width="6.2762" stroke-miterlimit="10"/>
<path d="M73.6 254.5C71.2 255.3 69.8 257.2 68.4 259.1C67 261 65.9 263 64.7 265C58.9 275.2 55.2 287.4 56.6 299.1C56.7 300.1 57.3 300.8 58.2 301.2C62.3 303.1 66.3 304.2 70.8 303.8C72.2 303.7 73.8 303.5 75.3 303.3C76.8 303.3 78.1 302.2 78.3 300.7C80.7 290.3 83.7 280.1 88.1 270.3C87.8 281 86.1 291.4 84.5 301.8C84.4 302.6 84.1 303.6 83.7 304.4C82.4 307.4 79.4 309.5 76.1 309.9L75.2 310C71.3 310.7 67 311.2 62.9 310.3C56.4 308.9 49.5 306.6 49 298.9C47.9 288.2 51 277.7 55.8 268.3C58.3 263.6 61.2 259.1 65.7 256C68 254.8 71 253.4 73.6 254.5Z" fill="#002451"/>
<path d="M55.5 275.2C47 268.4 35.2 265.5 24.9 269.8C21.4 271.2 18.2 273.2 15.1 275.6C23.6 266.6 35.4 262.3 47.6 265.4C51.6 266.4 55.4 268 59 270L55.5 275.2Z" fill="#002451"/>
<path d="M52.1 300.1C42 297.6 29.7 298 22 305.9C19.5 308.5 17.8 312 17.3 315.7C17.2 307.8 22.8 300.7 29.8 297.4C37 293.9 45.2 293.1 53.1 293.9C53.2 293.9 52.1 300.1 52.1 300.1Z" fill="#002451"/>
<path d="M72.1 308.4C71.7 311.4 71.3 314.5 70.7 317.6C70.1 320.2 69.5 323.3 66.8 324.8C66.2 325.2 65.4 325.3 64.7 325.5C58.3 327.1 52.1 329.2 45.6 330.2C41.4 330.8 37.4 331 33.1 329.5C34.8 327.8 36.6 326.8 38.5 325.8C46.5 322.2 55.4 321.9 63.9 319.9C64 319.9 64.1 319.9 64.1 319.8C64.1 319.8 64 319.9 64.1 319.7C65.7 316.1 65.9 311.7 66.5 307.7L72.1 308.4Z" fill="#002451"/>
<path d="M45.3 326.8C45.1 330.5 42.9 333 40.2 334.8C40.7 332.5 40.9 329.8 39.2 328.1C39.2 328.2 45.3 326.8 45.3 326.8Z" fill="#002451"/>
<path d="M348.7 208.1C345.1 264 288.8 361 215.7 359.2C142.6 357.4 84.7 296.6 86.5 223.5C87 201.4 96.2 177.8 104.9 159.2C122.7 121.3 170 74.3 235.2 64.1C284.3 56.4 378.7 66.5 437.9 134.2C441.7 138.6 438.8 145.5 433 145.9C369.5 150.4 350.9 173.1 348.7 208.1Z" fill="#002451"/>
<path d="M351.8 208.3C346.6 269.6 294.2 352.5 229.4 361.8C227.6 362 224.9 362.2 223.2 362.4C219.2 362.7 214.9 362.6 210.9 362.4C200.1 361.8 189.2 359.9 178.9 356.7C114.8 337.6 72.1 270.2 85.5 204.1C87.7 193.5 91.2 183.2 95.2 173.3C99.3 163.3 103.7 153.4 109.4 144.3C132 107.6 170.6 83.6 210.5 69.6C220.5 66.1 230.8 62.9 241.3 61C251.9 59 262.6 58.4 273.4 58.7C294.8 59.3 316.2 62.4 336.9 68.2C376.3 79.1 413.4 100.5 440.4 131.6C445.3 137 443 146.1 436.1 148.5C434.7 149 432.8 149.1 431.3 149.2C409.9 151.1 386.8 154.4 369.6 168.2C357.7 178 352.7 193.3 351.8 208.3ZM345.6 207.9C347.9 159.9 385.3 147.2 426.8 143L430.8 142.7L432.8 142.5C433.2 142.4 433.5 142.4 433.8 142.3C436 141.6 437.1 138.4 435.4 136.6C422.9 122.4 408.2 110.1 392.1 100.1C352 75.5 304.4 64.3 257.5 65C241.8 65 225.9 65.8 210.6 70.1C179.9 78.8 153.8 98.8 133.3 122.7C126.5 130.6 120.2 138.9 114.8 147.7C109.3 156.6 105.2 166.2 101.3 175.8C95.6 190.3 91.1 205.3 90.1 220.8C87.7 267.3 112.7 313.9 152.9 337.5C174.3 350.4 201.7 357.7 226.7 355.3C289.1 348.2 340.5 266.4 345.6 207.9Z" fill="white"/>
<path d="M77 173.6C71.7 160.1 74.6 136 83.2 123C87.1 117.1 91.9 113.9 97 113.7C97.2 113.7 97.3 113.7 97.5 113.7C98.5 113.7 101.7 113.7 103.1 116.3C104.8 119.4 102.7 122.7 99 128.9C93.6 137.7 84.5 152.3 83.1 172.7L82.1 186.4L77 173.6Z" fill="#002451"/>
<path d="M97.5 116.8C109.5 116.8 82.6 135 79.9 172.4C72.8 154.5 81.6 117.3 97.1 116.8C97.3 116.8 97.4 116.8 97.5 116.8ZM97.5 110.5C97.3 110.5 97.1 110.5 96.9 110.5C92.6 110.6 86.2 112.6 80.6 121.2C71.4 135.2 68.4 160.2 74.1 174.7L84.2 200.3L86.2 172.8C87.6 153.1 96.4 138.9 101.7 130.4C105.8 123.7 108.5 119.4 105.9 114.7C104.8 112.8 102.5 110.5 97.5 110.5Z" fill="white"/>
<path d="M170.6 58.2C176.3 44.8 196.4 30.7 209.7 30.7C213.5 30.7 216.7 31.8 219 34C219.7 34.7 222 36.8 221.3 39.6C220.5 42.8 216.9 43.6 211 45.1C202.6 47.1 188.5 50.5 175.6 61.8L165.2 70.9L170.6 58.2Z" fill="#002451"/>
<path d="M209.7 33.8C212.6 33.8 215 34.6 216.9 36.3C224.9 43.8 197.6 38.4 173.5 59.5C178.6 47.3 197.6 33.8 209.7 33.8ZM209.7 27.5C195.1 27.5 173.9 42.4 167.7 56.9L156.9 82.2L177.6 64.1C190 53.3 203 50.1 211.7 48.1C218.3 46.5 223 45.4 224.3 40.4C224.9 38.3 224.7 35.1 221.1 31.7C218.2 29 214.3 27.5 209.7 27.5Z" fill="white"/>
<path d="M328.8 37.4C324.2 37.4 319.3 36.7 314.2 35.3L306.9 33.3L313.4 29.5C324.5 23 328.9 17.3 332.2 13.1C335 9.5 337.3 6.5 342.1 6.5C343.9 6.5 346 7 348.7 8C353.8 9.9 356.5 14.8 355.5 20.5C354 28.6 345.1 37.4 328.8 37.4Z" fill="#002451"/>
<path d="M342.1 9.69999C343.5 9.69999 345.3 10.1 347.6 11C358 14.9 352 34.3 328.8 34.3C324.7 34.3 320.1 33.7 315 32.3C335.9 20.1 334.8 9.69999 342.1 9.69999ZM342.1 3.39999C335.8 3.39999 332.5 7.59999 329.7 11.2C326.6 15.2 322.4 20.6 311.8 26.8L298.8 34.4L313.3 38.3C318.7 39.8 323.9 40.5 328.7 40.5C346.8 40.5 356.8 30.4 358.5 21C359.8 13.9 356.3 7.49999 349.7 4.99999C346.8 3.89999 344.4 3.39999 342.1 3.39999Z" fill="white"/>
<path d="M240.9 59.5C304.9 48.6 404.3 66 385 85.8C373.7 97.3 330.6 72.3 304 76.9" fill="#002451"/>
<path d="M240.9 59.5C260.8 55.6 281.1 54.6 301.3 55C321.6 55.6 341.9 57.6 361.7 62.5C372 65.2 399.6 73 387.2 87.8C380.7 94.2 370.4 91.9 362.5 90.4C352.5 88.1 343.1 84.7 333.3 81.9C323.7 79.2 314 76.6 303.9 77.2C303.7 77.2 303.6 77.1 303.6 76.9C303.6 76.7 303.7 76.6 303.8 76.6C313.8 74 324.4 75.5 334.4 77.3C344.4 79.3 354.2 82 363.8 84C368.3 84.9 373.2 85.8 377.7 85.4C380.7 85.2 383.1 83.9 384.1 81.5C384.3 80.9 384.4 80.4 384.2 79.8C383.8 78.5 382.2 76.8 380.4 75.6C374.4 71.5 367.3 69.2 360.4 67.2C350.8 64.5 341 62.7 331.1 61.2C301.3 56.9 270.9 55.6 240.9 59.5Z" fill="white"/>
<path d="M154.4 96.8C193.4 64.6 222 66.3 252.2 43.4C282.4 20.5 289.2 29 283.9 42.7C278.6 56.4 247 72.5 224.9 72.6" fill="#002451"/>
<path d="M154.4 96.8C168.7 84 185.4 74.1 203.1 66.6C211.9 62.7 220.8 59.3 229.2 55.1C235.5 52 241.7 48.5 247.4 44.3C255.2 38.6 262.8 32.3 271.9 28.5C282.6 23.8 290.5 28.1 287.5 40.5C283.4 61.3 243.8 75 224.9 72.8C224.7 72.8 224.6 72.6 224.6 72.5C224.6 72.3 224.7 72.2 224.9 72.2C234.4 71.1 243.3 68 251.8 64.1C262 59.3 272.2 53.2 279.3 44.6C281.5 41.7 283.3 36.9 282.6 33.5C281.7 30 276.1 32 273.5 32.9C264.8 36.3 257.3 42.2 249.6 47.6C243.6 51.7 237.2 55.3 230.6 58.3C221.8 62.3 212.8 65.6 204 69.1C186.3 76 169.5 85 154.4 96.8Z" fill="white"/>
<path d="M312.7 130C333 106.7 344.7 103.3 343.9 118C343.1 132.7 323.2 131.3 295.5 163.4" fill="#002451"/>
<path d="M312.7 130C317 124.3 321.6 118.8 326.9 114C329.7 111.6 332.7 109.2 336.3 107.9C345.7 104.6 347.5 116 345.3 122.6C342.5 130.1 334.9 133.5 328.9 137.8C325 140.3 321 142.8 317.2 145.5C309.6 150.8 302.5 157.1 295.8 163.7C295.7 163.8 295.5 163.8 295.4 163.7C295.3 163.6 295.3 163.4 295.4 163.3C303.7 151.8 314.3 141.5 326.2 133.6L332.1 129.8C335.6 127.5 339.5 125 341.1 121.1C342 118.8 342.8 112.2 339.9 111.1C332.5 110 318.2 124.9 312.7 130Z" fill="white"/>
<path d="M139.9 242.5C126.2 216.4 132.8 171.2 145.8 167.1C161 162.3 142.3 189 151.4 190C160.5 191 165.4 136.8 185.5 140.8C195.5 142.8 179.9 163.3 179.9 163.3" fill="#002451"/>
<path d="M139.9 242.5C131.2 227.8 129.3 209.9 130.9 193.1C132.2 182.9 135.5 164.7 148.2 163.6C151.3 163.2 154.4 165.3 154.8 168.5C155.6 175.4 150.2 180.7 150.1 187.3C150.1 188.8 151.7 189.3 152.7 188.3C155.4 185.5 156.5 181.3 157.9 177.7C160.5 169.8 162.5 161.6 165.9 153.6C169.4 145.1 177.1 134.1 188.1 138.5C197.9 144.3 185.8 158.9 179.9 163.4C181.4 159.4 183.1 155.5 184.4 151.7C185.2 149.3 186.2 146.6 185.7 144.4C185.6 144.1 185.6 144.2 185.4 144.1C178.3 142.4 173.9 150.8 170.8 156C166.9 163.1 163.9 171 160.7 178.8C158.9 182.8 157.5 187.1 154.3 190.3C152.7 191.8 149.7 191.7 148.3 189.8C146.6 187.1 147.5 183.9 147.7 181C148 178.1 149.4 172 148.8 169.6C148.9 169.7 149.1 169.8 149.1 169.8C148.4 169.6 147 170 146.4 170.2C139.7 173.4 136.7 187 135.5 193.9C133 210 133.5 227.1 139.9 242.5Z" fill="white"/>
<path d="M80.9 221.5C94.4 126.3 155.8 65.7 170.3 69.8C184.8 73.9 138.5 116.5 138.5 116.5" fill="#002451"/>
<path d="M80.9 221.5C86.9 170.9 107.4 120.7 142.7 83.3C148.9 77.2 162.7 63.5 172.2 67C187.2 74.5 157.4 101 150.8 107C146.9 110.4 143 113.6 138.8 116.6C138.5 116.8 138.1 116.4 138.4 116.1C146.6 106.3 154.9 96.9 162.5 86.7C165.1 83 168.3 78.7 169.6 74.6C169.9 73.7 169.9 72.9 169.9 72.8C169.1 72.3 168.4 72.5 167.1 72.7C159.1 75.2 152.6 81.2 146.5 86.8C111.1 122.7 89.5 172.4 80.9 221.5Z" fill="white"/>
<path d="M87.7 244.8C88.9 253.9 91.1 262.8 94.1 271.3C99.2 279.8 105.4 282.5 111.7 281.5C122.5 279.8 123.4 267 122.2 259.5C115 258.4 94.8 248.3 87.7 244.8Z" fill="white"/>
<path d="M222 241.6C220.1 261.7 204.8 277.7 184.6 277.2C170.8 276.9 158.1 268.5 152.2 257C162.9 253.3 204.9 231.1 220.9 214.6C222.6 223.2 222.7 234.9 222 241.6Z" fill="white"/>
<path d="M199.5 357.8C287.6 314.2 278.3 213.2 278.3 213.2C204.7 327.1 161.8 317.1 150.8 317C139.7 316.9 127.9 317 104.3 293.1C124 327.2 158.6 351.8 199.5 357.8Z" fill="white"/>
<path d="M122.2 259.5C89.5 255 82.1 246.3 76.9 219C71.7 192.1 98.8 178.1 93.2 235.9" fill="#002451"/>
<path d="M122.2 259.5C108 258.2 91.3 255.8 83 242.7C79 236.4 77 229.1 75.3 222C73.5 214.5 72.5 206.3 76.1 199C80.9 189.7 90.5 190.9 93.7 200.7C95.8 206.8 95.9 212.8 95.7 218.7C95.4 224.6 94.6 230.3 93.4 236C93.3 236.3 92.9 236.3 92.9 235.9C92.8 230.1 92.6 224.4 92.1 218.7C91.6 213.3 90.8 207.6 88.6 202.7C87.6 200.7 85.8 197.3 83.5 199.5C78.4 204.8 77.8 213.8 79.4 221.1C80.7 227.9 82.2 234.9 85.8 241C93 253.7 108.9 256.7 122.2 259.5Z" fill="white"/>
<path d="M133 303.2C133.9 311.6 137.5 319.4 142.2 326.3C147.1 333.5 153.3 339.8 160 345.4C152.6 340.6 145.6 335 139.8 328.3C133.8 321.4 128.9 313.4 126.9 304.2C126.8 304.2 133 303.2 133 303.2Z" fill="#002451"/>
<path d="M162.1 307.1C165.3 326.1 180.3 341.2 195.1 352.7C197 354.2 200 356.3 201.9 357.7C199.8 356.5 196.6 354.7 194.6 353.4C182.5 345.8 171.2 336.6 163.2 324.6C160 319.7 157.3 314.4 155.9 308.4C155.9 308.2 162.1 307.1 162.1 307.1Z" fill="#002451"/>
<path d="M108.422 265.338C112.107 264.611 114.366 260.332 113.468 255.781C112.571 251.229 108.856 248.128 105.172 248.855C101.487 249.582 99.2278 253.861 100.125 258.412C101.023 262.964 104.738 266.064 108.422 265.338Z" fill="#002451"/>
<path d="M152.2 256.9C199.5 239.5 270.6 177.2 256.9 164.8C243.2 152.5 221.4 200.5 221.4 200.5" fill="#002451"/>
<path d="M152.2 256.9C167.8 250.7 182.2 241.9 195.9 232.3C209.6 222.7 222.9 212.4 234.7 200.5C240 195.4 258 174.3 255 167.4C250.4 162.1 242.4 171.3 239.3 174.9C232.6 182.8 227.1 191.6 221.5 200.5C221.4 200.7 221.1 200.5 221.2 200.4C225.2 188.5 237.7 159.8 252.2 159.7C256.8 159.7 261.6 163.5 261.6 168.3C261.7 174.5 257.9 179.6 254.4 184.2C248.9 190.9 242.7 196.5 236.4 202.3C223.9 213.6 210.7 224.2 196.7 233.5C182.8 242.9 168.1 251.3 152.2 256.9Z" fill="white"/>
<path d="M194.9 302.2C200.3 315.4 211 326.6 222.3 335.2C226.2 338.1 230.4 340.8 234.8 343C220.8 337.5 208.2 328.6 198.1 317.4C194.7 313.6 191.6 309.5 189.1 304.6C189.1 304.7 194.9 302.2 194.9 302.2Z" fill="#002451"/>
<path d="M184.66 256.818C191.162 255.536 195.151 247.995 193.569 239.976C191.987 231.956 185.434 226.495 178.932 227.778C172.43 229.06 168.441 236.6 170.023 244.62C171.604 252.639 178.157 258.101 184.66 256.818Z" fill="#002451"/>
<path d="M196.5 246.1L181.7 245.3L197.4 257.5L196.5 246.1Z" fill="white"/>
<path d="M106.7 260.1L114.7 265.2L115.3 261.4L106.7 260.1Z" fill="white"/>
<path d="M219 283C223.3 295 231.7 305.6 242.4 312.6C246 315 249.9 317 254 318.7C249.8 317.5 245.6 315.9 241.6 313.9C229.4 307.8 219.4 297.8 213.2 285.4C213.2 285.5 219 283 219 283Z" fill="#002451"/>
<path d="M412.6 174.8C411 174.8 409.7 174.1 408 173.2C405.4 171.8 401.9 169.9 394.6 169L388.1 168.2L394.1 165.6C399.4 163.3 405 162.1 409.8 162.1C415.3 162.1 419.2 163.7 420.2 166.5C420.6 167.6 420.9 169.9 417.8 172.4C415.8 174.1 414.2 174.8 412.6 174.8Z" fill="#002451"/>
<path d="M409.8 163.8C417.4 163.8 421.3 167.2 416.7 171C415 172.5 413.8 173 412.6 173C409.4 173 406.8 168.7 394.8 167.2C400.4 164.8 405.6 163.8 409.8 163.8ZM409.8 160.3C406.2 160.3 400.5 160.9 393.4 164L381.4 169.2L394.4 170.8C401.3 171.6 404.7 173.5 407.2 174.8C408.9 175.7 410.6 176.6 412.6 176.6C415.2 176.6 417.4 175.1 418.9 173.8C422.9 170.5 422.3 167.2 421.8 165.9C420.5 162.3 416.1 160.3 409.8 160.3Z" fill="white"/>
<path d="M448.4 115.9C442.1 115.9 433.1 111.5 428 101.9L425.2 96.6L430.8 98.6C434.8 100 438.6 100.7 442.5 100.7C444.5 100.7 446.2 100.5 447.8 100.4C449 100.3 450 100.2 450.9 100.2C456.1 100.2 457 104.3 457.1 107.8C457.2 110 456.5 112 455.1 113.4C453.6 115 451.3 115.9 448.4 115.9Z" fill="#002451"/>
<path d="M430.1 100.8C435.1 102.6 439.2 103.1 442.6 103.1C446.3 103.1 449.1 102.5 451 102.5C453.5 102.5 454.7 103.5 454.9 107.9C455.1 111.7 452.3 113.6 448.5 113.6C442.7 113.6 434.6 109.3 430.1 100.8ZM420.4 92.3L426 102.9C428.4 107.6 432 111.5 436.3 114.2C440.2 116.7 444.6 118.1 448.5 118.1C452 118.1 455 117 457 114.9C458.8 113 459.7 110.4 459.6 107.6C459.3 101.1 456.4 97.8 451 97.8C449.9 97.8 448.8 97.9 447.6 98C446.1 98.2 444.5 98.3 442.6 98.3C439 98.3 435.4 97.6 431.7 96.3L420.4 92.3Z" fill="white"/>
<path d="M307.2 357.9C248.7 293.2 249.9 203 327.3 162C340.4 155.1 353.4 149.6 369.8 145.9C371.8 145.5 373.9 146.2 375.3 147.5C386.9 159.6 394.8 171.3 401.9 184.3C435.5 245.1 411.8 309.7 352.1 342.5C338.9 349.7 327 354.9 311 359C309.6 359.3 308.1 358.8 307.2 357.9Z" fill="#DC222D" stroke="white" stroke-width="4.2818" stroke-miterlimit="10"/>
<path d="M387.6 180C401.7 221.9 391.8 269.6 367.9 306C359.8 318.2 350.1 329.3 338.7 338.4C358.9 317.8 374 292.6 382.7 265.1C391.5 237.8 393.7 208.3 387.6 180Z" fill="white"/>
<path d="M314.9 190.5C301.2 211.6 290.4 237.6 288.9 264.3C288.9 265.1 289.6 265.7 290.4 265.5C291.5 265.2 293.1 264.9 294.3 264.6C294.8 264.5 295.1 264 295.2 263.5C297.2 236.3 306.8 210.7 322.5 190.8C323.2 189.9 322.4 188.8 321.3 188.9C320.1 189 320.3 188.9 315.7 190C315.3 190.1 315.1 190.3 314.9 190.5Z" fill="white"/>
<path d="M297.3 208.1C305.7 205 310.5 204 321.6 202.3C321.8 202.3 321.9 202.2 322 202C323.2 200.2 324.4 198.5 325.7 196.8C326.1 196.3 325.7 195.7 325.1 195.7C313.8 197.2 308.7 197.9 299.7 200.8C299.5 200.9 299.4 201 299.3 201.1C298.3 203.1 297.4 205 296.4 207C296.2 207.7 296.7 208.3 297.3 208.1Z" fill="white" stroke="#DC222D" stroke-width="2.6951" stroke-miterlimit="10"/>
<path d="M289.7 223.8C295 221.7 303.3 219.1 313.7 217.3C313.9 217.3 314.1 217.1 314.2 216.9C315.1 215.1 316.1 213.3 317 211.5C317.3 211 316.9 210.4 316.3 210.5C305.7 212.2 300.8 213.1 292.1 216.1C291.9 216.2 291.8 216.3 291.7 216.5C290.8 218.7 290 221 289.2 223.3C289.2 223.6 289.5 223.9 289.7 223.8Z" fill="white" stroke="#DC222D" stroke-width="2.6951" stroke-miterlimit="10"/>
<path d="M282.9 241.5C282.8 241.7 283.1 241.9 283.3 241.8C284 241.5 285 241.1 285.5 240.9C293.6 237.7 297.9 236.5 308.6 234.5C308.8 234.5 309 234.3 309.1 234.1C309.8 232 310.6 230 311.4 228C311.6 227.5 311.2 227 310.7 227.1C299.3 229.1 294.2 230.3 285.3 233.6C285.1 233.7 284.9 233.8 284.9 234C284.1 236.5 283.4 239 282.9 241.5Z" fill="white" stroke="#DC222D" stroke-width="2.6951" stroke-miterlimit="10"/>
<path d="M283.8 257.8C284.5 257.5 285.1 257.2 285.8 257C293.1 254.1 296.3 253.1 305.7 251.1C306 251 306.2 250.8 306.2 250.6C306.7 248.4 307.1 246.3 307.7 244.1C307.8 243.6 307.4 243.2 306.9 243.3C296 245.5 291.5 246.8 283.1 250.2C282.6 250.4 282.1 250.6 281.6 250.8C281.4 250.9 281.2 251.1 281.2 251.3C280.8 253.6 280.5 256 280.2 258.4C280.1 258.9 280.7 259.3 281.1 259.1C282 258.6 282.9 258.2 283.8 257.8Z" fill="white" stroke="#DC222D" stroke-width="2.6951" stroke-miterlimit="10"/>
<path d="M421.1 244.2C417.9 238.6 402.7 226.7 397 226.1C391.3 225.5 381.6 227.4 376.5 231.9C376.5 231.9 373.2 237.5 372.9 243.3C372.1 243.6 371.5 243.9 370.9 244.2C366.7 246.9 365 258.4 365.8 264.9C366.1 267.1 367.9 268.7 370.4 269.7C366.3 273 364.8 281.6 365.3 285.7C366 290.9 380.3 297.7 394.5 308.9L385.6 318.2C385.6 318.2 393.1 322.1 403.4 312.1C410 305.6 412 297.6 408.6 289.5C419.4 285.5 419.4 276.9 417.1 269.7C417.2 269.8 417.3 269.9 417.4 270C428.2 267.1 424.3 249.9 421.1 244.2Z" fill="white"/>
<path d="M372.9 243.4C382.1 239.7 392.8 241.4 401.4 246.1C410.1 250.9 416.2 260.2 417.2 269.9C415 265.6 412.6 261.6 409.6 258.2C400.6 247.8 386.4 243.1 372.9 243.4Z" fill="#002451"/>
<path d="M370.5 269.7C378.8 265.4 389.2 267.3 396.6 272.7C402.3 276.9 406.5 283 408.6 289.6C406.5 287.5 404.7 285.3 402.6 283.3C393.9 274.4 383.2 269 370.5 269.7Z" fill="#002451"/>
<path d="M278.7 314.5C296.9 305.1 348.7 304.5 366.5 335.2C380.9 323 384.1 318.2 384.1 318.2C369 285.9 311 269.4 270.5 291.9C271.7 300.8 278.7 314.5 278.7 314.5Z" fill="white"/>
<path d="M294.9 184.8C314.3 166.1 395.6 171.1 412.2 211.5C406.5 195.7 406 190.1 406 190.1C393.5 154.7 341.5 150.9 308.5 169.3C299.1 179 294.9 184.8 294.9 184.8Z" fill="white"/>
<path d="M324.2 355.8C320.8 355.8 318.5 354.9 317.5 353C316.9 351.9 316.5 350.2 318.1 347.7C320.6 343.8 322.8 342.2 326.3 342.2C327.5 342.2 328.8 342.4 330.3 342.6C332.5 342.9 335.2 343.3 338.9 343.3C341.5 343.3 344.1 343.1 347 342.7L355.2 341.6L348.6 346.5C340.1 353 330 355.8 324.2 355.8Z" fill="#002451"/>
<path d="M326.3 344.5C329 344.5 332.6 345.6 338.9 345.6C341.3 345.6 344 345.4 347.3 345C339.6 350.7 330 353.7 324.2 353.7C320.1 353.7 317.9 352.1 319.9 348.9C322.1 345.4 323.8 344.5 326.3 344.5ZM363.1 338.6L346.8 340.7C344 341.1 341.5 341.2 339 341.2C335.5 341.2 332.8 340.8 330.7 340.5C329.1 340.3 327.7 340.1 326.4 340.1C321.2 340.1 318.5 343.2 316.4 346.6C314.2 350.1 315.1 352.8 315.8 354.1C316.8 355.9 319.1 358 324.4 358C330.5 358 341.1 355 350 348.4L363.1 338.6Z" fill="white"/>
<path d="M291 186.9C323.4 172.6 330.6 187.6 335.6 169.8C338.4 159.8 323.8 159.1 310.1 167" fill="#002451"/>
<path d="M291 186.9C299.9 181.4 310.5 178.1 321.1 177.7C324.5 177.5 328.2 177.6 330 176.2C332.1 174.6 333.2 171.1 333.9 168.5C334.5 165.5 332.5 164.1 329.7 163.5C323.2 162.4 316.3 164.6 310.1 167.1C316.3 162.5 329 156.8 335.9 162.7C339.2 165.9 337.7 170.9 336.2 174.6C334.7 178.7 331.2 181.5 326.6 181.7C321.3 182 316.3 181.8 311.1 182.5C304.4 183.2 297.7 184.9 291 186.9Z" fill="white"/>
</svg>
