<svg width="480" height="481" viewBox="0 0 480 481" fill="none" xmlns="http://www.w3.org/2000/svg">
<path d="M224.599 421.7C223.999 421.7 223.499 421.7 222.899 421.7C221.899 421.6 220.899 421.6 219.699 421.5C217.899 421.4 215.999 421.4 214.599 421.2C204.799 420.3 195.199 418.5 186.399 415.7C155.799 406.5 129.299 386.4 111.399 358.9C109.199 364.2 105.399 369.3 100.299 374.1C98.7986 385.5 93.3986 394.3 84.5986 399.7C78.2986 403.6 70.0986 405.6 60.9986 405.6C51.4986 405.6 41.0986 403.4 30.8986 399.2L29.7986 398.7C29.3986 398.6 29.1986 398.3 28.9986 397.9L28.4986 396.8C22.9986 385 21.2986 378.7 20.7986 375.4C12.6986 367.5 10.8986 358.5 10.8986 352.4C10.7986 345 13.3986 337.2 17.6986 332C13.0986 319.6 14.0986 316.2 18.0986 309.2L18.5986 308.3C18.7986 308 34.6986 280.7 54.5986 280.7C56.7986 280.7 58.9986 281 61.0986 281.7C76.6986 286.7 83.3986 302.7 85.2986 308.5C87.4986 309.4 89.7986 310.7 92.0986 312.2C91.3986 308.9 90.8986 305.5 90.3986 302.2C90.0986 301.8 89.8986 301.5 89.5986 301.1C85.3986 294.5 83.3986 287 81.6986 279.9C79.9986 272.5 78.6986 263.8 82.5986 255.9C83.8986 253.4 85.4986 251.5 87.3986 250.3L80.4986 232.9C74.5986 218 77.6986 192.4 87.0986 178C93.0986 168.9 99.9986 166.8 104.599 166.6C104.799 166.6 104.999 166.6 105.199 166.6C110.899 166.6 113.599 169.3 114.899 171.6C117.399 176.1 115.199 180.7 114.499 182.2C113.599 184.1 112.299 186.2 110.699 188.9C105.499 197.3 96.7986 211.3 95.4986 230.6L94.7986 239.9C105.399 201.1 124.099 166.7 149.399 139.9L149.499 139.8C153.799 135.5 161.799 127.6 169.699 124.2L174.099 114C180.499 99 202.399 83.7 217.499 83.7C222.499 83.7 226.799 85.3 229.999 88.3C234.199 92.2 234.299 96 233.599 98.5C232.699 101.8 230.299 104.1 226.299 105.6C224.499 106.2 222.499 106.7 219.899 107.4C211.399 109.5 198.499 112.5 186.399 123.1L183.499 125.6C185.399 127.6 186.599 130.9 184.599 136.2C195.199 129.5 206.999 124.5 218.299 119.6C224.299 117 230.499 114.4 236.399 111.5C244.999 107.3 252.699 102.4 259.999 96.7C264.599 93.2 268.499 90.6 272.299 88.4C272.299 88.4 272.399 88.4 272.399 88.3C276.899 85.8 281.599 83.2 287.499 82.9H287.599C292.199 82.9 294.499 85 295.699 86.7C298.699 91.1 297.499 98 295.699 102.7C294.499 105.7 292.499 108.6 289.899 111.3C293.299 111.2 296.699 111.1 300.099 111.1C312.799 111.1 326.099 111.9 339.799 113.4C343.699 113.8 357.599 115.6 370.699 119C386.999 123.2 396.599 128.5 399.099 134.8C400.499 138.3 399.799 142.1 396.799 145.9C417.199 157.5 434.899 171.8 449.399 188.5C451.999 191.4 452.999 195.5 451.999 199.4C450.999 203.3 448.199 206.5 444.399 207.7C442.999 208.2 441.199 208.4 439.699 208.5H439.199C425.299 209.7 410.699 211.5 397.599 216.5C398.599 217.8 399.499 219 400.499 220.3L400.699 220.2C407.999 217 413.999 216.4 417.699 216.4C424.799 216.4 429.699 218.8 431.199 222.9C431.799 224.5 432.599 228.5 427.899 232.5C426.099 234 423.699 235.7 420.599 235.7C418.199 235.7 416.299 234.7 414.399 233.7C412.699 232.8 410.799 231.7 407.599 230.9C409.399 233.8 411.199 236.9 412.999 240.2C423.599 259.3 428.899 279.1 428.799 298.9C429.499 299.7 429.999 300.5 430.399 301.1C432.699 305.2 435.699 315.8 432.799 323C431.599 325.8 429.699 327.8 427.099 328.9C429.399 338.1 426.499 344.7 418.599 348.2C421.399 356.2 419.299 364.5 412.499 371C406.399 377 400.999 378.2 397.599 378.2C396.799 378.2 396.099 378.1 395.399 378C388.599 384.9 380.899 391.3 372.499 396.9C372.399 397.1 372.199 397.3 371.999 397.4L358.799 407.2C349.699 414 338.699 417 332.299 417C331.799 417 331.199 417 330.699 416.9C327.199 418 323.699 419.1 319.899 420C319.299 420.1 318.699 420.2 318.099 420.2C315.999 420.2 313.999 419.3 312.499 417.8C305.499 410.1 299.299 401.9 293.899 393.5C275.199 409.4 255.599 418.7 235.499 421C232.299 421.5 228.399 421.7 224.599 421.7Z" fill="white"/>
<path d="M287.699 84.3C297.699 84.3 297.099 95.1 294.299 102C292.699 105.9 289.699 109.6 285.999 112.9C290.699 112.7 295.399 112.6 300.099 112.6C313.299 112.6 326.499 113.4 339.599 114.9C351.799 116.3 412.599 124.5 395.199 145.6C394.899 145.9 394.699 146.1 394.399 146.3C414.699 157.5 433.099 172 448.299 189.5C453.199 194.9 450.899 204 443.999 206.4C442.599 206.9 440.699 207 439.199 207.1C424.499 208.4 409.099 210.3 395.299 215.9C396.899 218 398.499 220.1 400.099 222.3L401.399 221.7C408.499 218.6 414.199 218 417.799 218C424.199 218 428.599 220 429.899 223.5C430.399 224.8 430.999 228.1 426.999 231.4C425.399 232.7 423.299 234.2 420.699 234.2C418.599 234.2 416.999 233.3 415.299 232.4C413.099 231.2 410.199 229.6 404.699 228.7C407.099 232.5 409.499 236.6 411.899 240.9C422.399 260 427.699 279.8 427.499 299.5C428.199 300.4 428.799 301.2 429.299 301.9C432.499 307.5 436.399 324.8 425.599 327.9C425.499 327.8 425.399 327.7 425.299 327.6C427.499 334.8 427.599 343.4 416.799 347.4C420.299 355.5 418.299 363.5 411.599 370C405.899 375.6 400.999 376.8 397.799 376.8C396.699 376.8 395.699 376.6 395.099 376.5C387.999 383.8 379.899 390.5 370.799 396.4L371.299 396.3L357.999 406.1C349.099 412.7 338.499 415.7 332.399 415.7C331.799 415.7 331.199 415.7 330.699 415.6C327.199 416.8 323.499 417.8 319.699 418.8C319.199 418.9 318.799 419 318.299 419C316.599 419 314.999 418.3 313.799 417.1C306.399 408.9 299.999 400.4 294.499 391.6C276.999 406.8 256.899 417.4 235.599 419.9C232.199 420.3 228.399 420.5 224.899 420.5C224.299 420.5 223.799 420.5 223.299 420.5C221.099 420.3 217.399 420.3 215.199 420C205.799 419.2 196.299 417.4 187.199 414.6C155.099 405 128.399 383.4 111.399 355.9C109.699 361.5 105.999 367.6 99.1986 373.7C97.8986 384.9 92.6986 393.5 84.0986 398.7C77.8986 402.5 69.9986 404.4 61.2986 404.4C52.0986 404.4 41.9986 402.3 31.7986 398.1L30.6986 397.6L30.1986 396.5C24.3986 384 22.8986 377.8 22.4986 375C14.4986 367.4 12.6986 358.7 12.5986 352.7C12.4986 345.2 15.2986 337.6 19.6986 332.6C14.7986 319.7 15.8986 316.8 19.6986 310.3L20.1986 309.4C20.3986 309.1 35.8986 282.5 54.8986 282.5C56.8986 282.5 58.8986 282.8 60.9986 283.4C76.4986 288.3 82.7986 304.6 84.3986 309.9C87.5986 311.2 91.1986 313.2 94.6986 315.9C93.5986 311.3 92.7986 306.6 92.1986 301.9C91.8986 301.5 91.5986 301 91.2986 300.5C87.2986 294.2 85.2986 286.9 83.5986 279.8C81.7986 272.3 80.7986 264.1 84.3986 256.8C85.7986 254 87.6986 252.2 89.6986 251.2L82.2986 232.6C76.5986 218.1 79.5986 193.1 88.7986 179.1C94.4986 170.5 100.799 168.5 105.099 168.4C105.299 168.4 105.499 168.4 105.699 168.4C110.699 168.4 112.999 170.7 114.099 172.6C116.199 176.4 114.299 180.5 113.699 181.8C112.799 183.7 111.499 185.7 109.899 188.3C104.599 196.8 95.7986 211.1 94.3986 230.7L92.9986 250.4C93.3986 250.4 93.7986 250.4 94.1986 250.5C103.599 210 122.399 171.4 150.899 141.2C155.299 136.9 163.499 128.8 171.199 125.6L175.799 114.8C181.999 100.2 203.199 85.4 217.799 85.4C222.399 85.4 226.299 86.8 229.299 89.5C232.899 92.9 232.999 96.1 232.499 98.2C231.399 102.3 227.399 103.8 226.099 104.2C224.399 104.8 222.399 105.3 219.799 105.9C211.099 108 198.099 111.1 185.699 121.9L181.499 125.5C185.999 128.6 184.799 134.2 181.199 140.2C182.599 139.3 184.099 138.3 185.599 137.4C201.799 127.2 220.199 121 237.299 112.8C245.799 108.6 253.699 103.7 261.199 97.8C265.099 94.9 268.999 92.1 273.299 89.6C277.699 87 282.099 84.5 287.699 84.3ZM287.699 81.3C287.599 81.3 287.599 81.3 287.499 81.3C281.299 81.6 276.499 84.3 271.799 86.8H271.699C271.699 86.8 271.699 86.8 271.599 86.8C267.799 89 263.799 91.7 259.199 95.2C259.199 95.2 259.199 95.2 259.099 95.2C251.899 100.9 244.199 105.7 235.799 109.9C229.899 112.7 223.799 115.4 217.799 117.9C207.499 122.3 196.999 126.8 187.099 132.6C187.599 129.5 186.899 127.2 185.699 125.4L187.499 123.9C199.299 113.6 211.999 110.5 220.299 108.5C222.899 107.9 224.999 107.4 226.899 106.7C231.399 105.1 234.199 102.4 235.199 98.6C235.799 96.2 236.099 91.6 231.199 86.9C227.699 83.7 223.099 81.9 217.699 81.9C201.899 81.9 179.699 97.4 172.999 113.2L168.799 122.9C160.899 126.5 152.999 134.3 148.699 138.5L148.599 138.6C148.599 138.6 148.599 138.6 148.499 138.7C126.099 162.5 108.699 192.2 97.6986 225.6C99.9986 209.2 107.499 197 112.199 189.4C113.899 186.7 115.199 184.6 116.099 182.6C118.299 178.1 118.399 174.1 116.499 170.6C115.299 168.5 112.299 164.9 105.499 164.9C105.299 164.9 104.999 164.9 104.799 164.9C99.7986 165.1 92.3986 167.3 86.0986 177C81.3986 184.1 78.0986 194 76.7986 204.8C75.4986 215.6 76.3986 225.7 79.2986 233.2L85.6986 249.5C83.9986 250.8 82.4986 252.7 81.3986 254.9C81.3986 254.9 81.3986 254.9 81.3986 255C77.2986 263.4 78.5986 272.3 80.3986 280C82.0986 287.2 84.1986 294.9 88.4986 301.7C88.6986 302 88.8986 302.3 89.0986 302.6C89.3986 304.7 89.6986 306.9 90.0986 309.1C88.8986 308.4 87.6986 307.9 86.5986 307.3C84.2986 300.8 77.3986 285.2 61.6986 280.2C59.3986 279.5 57.0986 279.1 54.6986 279.1C45.9986 279.1 36.9986 283.9 28.0986 293.4C21.4986 300.5 17.3986 307.4 17.3986 307.5L16.8986 308.4C12.7986 315.5 11.5986 319.3 16.0986 331.6C11.7986 337.1 9.39863 344.7 9.49863 352.3C9.59863 358.6 11.3986 367.8 19.4986 376C20.0986 379.5 21.9986 385.9 27.2986 397.3L27.7986 398.4C28.0986 399.1 28.6986 399.6 29.3986 399.9L30.4986 400.4C40.8986 404.7 51.4986 406.9 61.1986 406.9C70.4986 406.9 78.9986 404.8 85.4986 400.8C94.5986 395.3 100.199 386.3 101.799 374.7C106.099 370.6 109.399 366.3 111.699 361.8C129.699 388.5 155.899 407.9 185.999 417C194.899 419.8 204.499 421.6 214.499 422.5C215.999 422.7 217.799 422.8 219.699 422.8C220.799 422.8 221.899 422.9 222.799 423C222.899 423 222.899 423 222.999 423C223.599 423 224.099 423 224.699 423C228.599 423 232.499 422.8 235.799 422.4C255.599 420.1 275.099 411.1 293.599 395.7C298.799 403.7 304.799 411.4 311.399 418.7C313.099 420.5 315.499 421.6 318.099 421.6C318.799 421.6 319.499 421.5 320.199 421.3C323.899 420.3 327.399 419.3 330.799 418.2C331.299 418.2 331.699 418.2 332.199 418.2C338.799 418.2 350.199 415 359.599 408.1L372.899 398.3C373.199 398.1 373.399 397.9 373.599 397.6C381.799 392.2 389.299 386 395.999 379.3C396.599 379.4 397.099 379.4 397.699 379.4C401.399 379.4 407.099 378.1 413.599 371.7C420.399 365.1 422.799 356.8 420.399 348.6C427.699 344.9 430.599 338.2 428.799 329.4C431.199 328.1 433.099 326 434.199 323.2C437.199 315.8 434.499 305 431.699 300C431.399 299.4 430.899 298.7 430.299 298C430.299 278.1 424.899 258.2 414.299 239.1C413.199 237.1 412.099 235.2 410.999 233.3C411.999 233.8 412.899 234.2 413.599 234.6C415.499 235.6 417.599 236.8 420.499 236.8C424.099 236.8 426.999 234.8 428.799 233.3C434.399 228.6 433.099 223.5 432.599 222.1C430.899 217.3 425.399 214.6 417.699 214.6C413.999 214.6 408.199 215.2 401.099 218.1C400.799 217.7 400.499 217.2 400.199 216.8C412.699 212.4 426.499 210.8 439.599 209.6H439.999C441.499 209.5 443.399 209.3 445.099 208.7C449.299 207.2 452.499 203.7 453.599 199.3C454.699 194.9 453.599 190.3 450.599 187C436.299 170.6 418.999 156.4 398.999 144.9C401.999 140.2 401.499 136.3 400.499 133.7C397.799 126.9 388.099 121.4 371.099 117C357.799 113.6 343.899 111.8 339.999 111.4C326.299 109.9 312.799 109.1 300.099 109.1C297.799 109.1 295.499 109.1 293.299 109.2C294.899 107.1 296.199 104.9 297.099 102.7C299.199 97.5 300.299 90.2 296.999 85.3C295.599 83.7 292.899 81.3 287.699 81.3Z" fill="#DC222D"/>
<path d="M336.699 99.6C331.699 99.6 326.399 98.8 320.899 97.4L306.399 93.5C305.799 93.3 305.399 92.8 305.299 92.2C305.199 91.6 305.499 91 305.999 90.7L318.999 83.1C329.299 77.1 333.399 71.8 336.399 67.9C339.299 64.1 342.899 59.5 349.999 59.5C352.399 59.5 354.999 60.1 358.199 61.2C365.399 63.9 369.299 71 367.899 78.8C366.199 88.8 355.699 99.6 336.699 99.6Z" fill="white"/>
<path d="M350.099 61C352.299 61 354.799 61.5 357.799 62.7C364.299 65.1 367.799 71.5 366.599 78.7C364.899 88.1 354.899 98.2 336.799 98.2C331.999 98.2 326.799 97.5 321.399 96L306.899 92.1L319.899 84.5C330.499 78.3 334.699 72.9 337.799 68.9C340.499 65.2 343.699 61 350.099 61ZM350.099 58C342.299 58 338.299 63.2 335.299 67C332.399 70.8 328.299 76 318.299 81.8L305.299 89.4C304.299 90 303.699 91.2 303.799 92.4C303.999 93.6 304.799 94.6 305.999 94.9L320.499 98.8C326.199 100.3 331.599 101.1 336.699 101.1C356.499 101.1 367.499 89.7 369.399 79.2C370.899 70.6 366.699 62.8 358.699 59.9C355.399 58.6 352.699 58 350.099 58Z" fill="#DC222D"/>
<path d="M456.299 177.3C452.099 177.3 447.499 175.8 443.299 173.1C438.799 170.2 434.999 166.1 432.499 161.2L426.899 150.6C426.599 150.1 426.699 149.4 427.099 148.9C427.399 148.6 427.799 148.4 428.199 148.4C428.399 148.4 428.499 148.4 428.699 148.5L439.999 152.6C443.599 153.9 446.999 154.5 450.399 154.5C452.199 154.5 453.799 154.3 455.199 154.2C456.399 154.1 457.599 153.9 458.799 153.9C463.199 153.9 468.499 155.9 468.799 165.2C468.899 168.5 467.899 171.4 465.799 173.6C463.599 176 460.299 177.3 456.299 177.3Z" fill="white"/>
<path d="M428.299 149.9L439.599 154C443.299 155.3 446.899 156 450.499 156C452.399 156 454.099 155.8 455.499 155.7C456.699 155.6 457.799 155.5 458.899 155.5C464.299 155.5 467.199 158.8 467.499 165.3C467.599 168.2 466.699 170.7 464.899 172.6C462.899 174.7 459.899 175.8 456.399 175.8C452.499 175.8 448.199 174.4 444.199 171.9C439.899 169.1 436.299 165.2 433.899 160.6L428.299 149.9ZM428.299 146.9C427.399 146.9 426.599 147.3 425.999 147.9C425.199 148.8 424.999 150.2 425.599 151.3L431.199 161.9C433.899 167 437.799 171.3 442.499 174.4C446.899 177.2 451.799 178.8 456.299 178.8C460.699 178.8 464.299 177.4 466.999 174.6C469.399 172.1 470.599 168.8 470.499 165C470.199 156.9 465.999 152.3 458.999 152.3C457.799 152.3 456.599 152.4 455.299 152.6C453.899 152.7 452.299 152.9 450.599 152.9C447.399 152.9 444.099 152.3 440.699 151.1L429.399 147C428.999 147 428.599 146.9 428.299 146.9Z" fill="#DC222D"/>
<path d="M82.2986 312.1C98.5986 317.6 127.099 345.5 96.6986 371.9C93.8986 402.8 61.7986 406.5 33.4986 394.9C25.4986 377.5 26.0986 373.3 26.0986 373.3C11.0986 360 15.7986 340.5 23.8986 333.1C18.1986 318.6 19.6986 317.2 23.4986 310.7C27.2986 304.2 43.8986 280.9 60.5986 286.2C77.1986 291.5 82.2986 312.1 82.2986 312.1Z" fill="white" stroke="white" stroke-width="6.2762" stroke-miterlimit="10"/>
<path d="M82.2986 312.1C79.8986 312.9 78.4986 314.8 77.0986 316.7C75.6986 318.6 74.5986 320.6 73.3986 322.6C67.5986 332.8 63.8986 345 65.2986 356.7C65.3986 357.7 65.9986 358.4 66.8986 358.8C70.9986 360.7 74.9986 361.8 79.4986 361.4C80.8986 361.3 82.4986 361.1 83.9986 360.9C85.4986 360.9 86.7986 359.8 86.9986 358.3C89.3986 347.9 92.3986 337.7 96.7986 327.9C96.4986 338.6 94.7986 349 93.1986 359.4C93.0986 360.2 92.7986 361.2 92.3986 362C91.0986 365 88.0986 367.1 84.7986 367.5L83.8986 367.6C79.9986 368.3 75.6986 368.8 71.5986 367.9C65.0986 366.5 58.1986 364.2 57.6986 356.5C56.5986 345.8 59.6986 335.3 64.4986 325.9C66.9986 321.2 69.8986 316.7 74.3986 313.6C76.6986 312.4 79.6986 311 82.2986 312.1Z" fill="#002451"/>
<path d="M64.1986 332.8C55.6986 326 43.8986 323.1 33.5986 327.4C30.0986 328.8 26.8986 330.8 23.7986 333.2C32.2986 324.2 44.0986 319.9 56.2986 323C60.2986 324 64.0986 325.6 67.6986 327.6L64.1986 332.8Z" fill="#002451"/>
<path d="M60.7986 357.7C50.6986 355.2 38.3986 355.6 30.6986 363.5C28.1986 366.1 26.4986 369.6 25.9986 373.3C25.8986 365.4 31.4986 358.3 38.4986 355C45.6986 351.5 53.8986 350.7 61.7986 351.5C61.8986 351.5 60.7986 357.7 60.7986 357.7Z" fill="#002451"/>
<path d="M80.7986 366C80.3986 369 79.9986 372.1 79.3986 375.2C78.7986 377.8 78.1986 380.9 75.4986 382.4C74.8986 382.8 74.0986 382.9 73.3986 383.1C66.9986 384.7 60.7986 386.8 54.2986 387.8C50.0986 388.4 46.0986 388.6 41.7986 387.1C43.4986 385.4 45.2986 384.4 47.1986 383.4C55.1986 379.8 64.0986 379.5 72.5986 377.5C72.6986 377.5 72.7986 377.5 72.7986 377.4C72.7986 377.4 72.6986 377.5 72.7986 377.3C74.3986 373.7 74.5986 369.3 75.1986 365.3L80.7986 366Z" fill="#002451"/>
<path d="M53.9986 384.4C53.7986 388.1 51.5986 390.6 48.8986 392.4C49.3986 390.1 49.5986 387.4 47.8986 385.7L53.9986 384.4Z" fill="#002451"/>
<path d="M357.399 265.7C353.799 321.6 297.499 418.6 224.399 416.8C151.299 415 93.3986 354.2 95.1986 281.1C95.6986 259 104.899 235.4 113.599 216.8C131.399 178.9 178.699 131.9 243.899 121.7C292.999 114 387.399 124.1 446.599 191.8C450.399 196.2 447.499 203.1 441.699 203.5C378.199 208 359.599 230.7 357.399 265.7Z" fill="#002451"/>
<path d="M360.499 265.9C355.299 327.2 302.899 410.1 238.099 419.4C236.299 419.6 233.599 419.8 231.899 420C227.899 420.3 223.599 420.2 219.599 420C208.799 419.4 197.899 417.5 187.599 414.3C123.499 395.2 80.7986 327.8 94.1986 261.7C96.3986 251.1 99.8986 240.8 103.899 230.9C107.999 220.9 112.399 211 118.099 201.9C140.699 165.2 179.299 141.2 219.199 127.2C229.199 123.7 239.499 120.5 249.999 118.6C260.599 116.6 271.299 116 282.099 116.3C303.499 116.9 324.899 120 345.599 125.8C384.999 136.7 422.099 158.1 449.099 189.2C453.999 194.6 451.699 203.7 444.799 206.1C443.399 206.6 441.499 206.7 439.999 206.8C418.599 208.7 395.499 212 378.299 225.8C366.399 235.6 361.399 250.9 360.499 265.9ZM354.299 265.5C356.599 217.5 393.999 204.8 435.499 200.6L439.499 200.3L441.499 200.1C441.899 200 442.199 200 442.499 199.9C444.699 199.2 445.799 196 444.099 194.2C431.599 180 416.899 167.7 400.799 157.7C360.699 133.1 313.099 121.9 266.199 122.6C250.499 122.6 234.599 123.4 219.299 127.7C188.599 136.4 162.499 156.4 141.999 180.3C135.199 188.2 128.899 196.5 123.499 205.3C117.999 214.2 113.899 223.8 109.999 233.4C104.299 247.9 99.7986 262.9 98.7986 278.4C96.3986 324.9 121.399 371.5 161.599 395.1C182.999 408 210.399 415.3 235.399 412.9C297.799 405.8 349.199 323.9 354.299 265.5Z" fill="white"/>
<path d="M85.6986 231.2C80.3986 217.7 83.2986 193.6 91.8986 180.6C95.7986 174.7 100.599 171.5 105.699 171.3C105.899 171.3 105.999 171.3 106.199 171.3C107.199 171.3 110.399 171.3 111.799 173.9C113.499 177 111.399 180.3 107.699 186.5C102.299 195.3 93.1986 209.9 91.7986 230.3L90.7986 244L85.6986 231.2Z" fill="#002451"/>
<path d="M106.199 174.4C118.199 174.4 91.2986 192.6 88.5986 230C81.4986 212.1 90.2986 174.9 105.799 174.4C105.999 174.4 106.099 174.4 106.199 174.4ZM106.199 168.1C105.999 168.1 105.799 168.1 105.599 168.1C101.299 168.2 94.8986 170.2 89.2986 178.8C80.0986 192.8 77.0986 217.8 82.7986 232.3L92.8986 257.9L94.8986 230.4C96.2986 210.7 105.099 196.5 110.399 188C114.499 181.3 117.199 177 114.599 172.3C113.499 170.4 111.199 168.1 106.199 168.1Z" fill="white"/>
<path d="M179.299 115.8C184.999 102.4 205.099 88.3 218.399 88.3C222.199 88.3 225.399 89.4 227.699 91.6C228.399 92.3 230.699 94.4 229.999 97.2C229.199 100.4 225.599 101.2 219.699 102.7C211.299 104.7 197.199 108.1 184.299 119.4L173.899 128.5L179.299 115.8Z" fill="#002451"/>
<path d="M218.399 91.4C221.299 91.4 223.699 92.2 225.599 93.9C233.599 101.4 206.299 96 182.199 117.1C187.299 104.9 206.299 91.4 218.399 91.4ZM218.399 85.1C203.799 85.1 182.599 100 176.399 114.5L165.599 139.8L186.299 121.7C198.699 110.9 211.699 107.7 220.399 105.7C226.999 104.1 231.699 103 232.999 98C233.599 95.9 233.399 92.7 229.799 89.3C226.899 86.6 222.999 85.1 218.399 85.1Z" fill="white"/>
<path d="M337.499 94.9C332.899 94.9 327.999 94.2 322.899 92.8L315.599 90.8L322.099 87C333.199 80.5 337.599 74.8 340.899 70.6C343.699 67 345.999 64 350.799 64C352.599 64 354.699 64.5 357.399 65.5C362.499 67.4 365.199 72.3 364.199 78C362.699 86.2 353.799 94.9 337.499 94.9Z" fill="#002451"/>
<path d="M350.799 67.3C352.199 67.3 353.999 67.7 356.299 68.6C366.699 72.5 360.699 91.9 337.499 91.9C333.399 91.9 328.799 91.3 323.699 89.9C344.599 77.7 343.499 67.3 350.799 67.3ZM350.799 61C344.499 61 341.199 65.2 338.399 68.8C335.299 72.8 331.099 78.2 320.499 84.4L307.499 92L321.999 95.9C327.399 97.4 332.599 98.1 337.399 98.1C355.499 98.1 365.499 88 367.199 78.6C368.499 71.5 364.999 65.1 358.399 62.6C355.499 61.5 353.099 61 350.799 61Z" fill="white"/>
<path d="M249.599 117.1C313.599 106.2 412.999 123.6 393.699 143.4C382.399 154.9 339.299 129.9 312.699 134.5" fill="#002451"/>
<path d="M249.599 117.1C269.499 113.2 289.799 112.2 309.999 112.6C330.299 113.2 350.599 115.2 370.399 120.1C380.699 122.8 408.299 130.6 395.899 145.4C389.399 151.8 379.099 149.5 371.199 148C361.199 145.7 351.799 142.3 341.999 139.5C332.399 136.8 322.699 134.2 312.599 134.8C312.399 134.8 312.299 134.7 312.299 134.5C312.299 134.3 312.399 134.2 312.499 134.2C322.499 131.6 333.099 133.1 343.099 134.9C353.099 136.9 362.899 139.6 372.499 141.6C376.999 142.5 381.899 143.4 386.399 143C389.399 142.8 391.799 141.5 392.799 139.1C392.999 138.5 393.099 138 392.899 137.4C392.499 136.1 390.899 134.4 389.099 133.2C383.099 129.1 375.999 126.8 369.099 124.8C359.499 122.1 349.699 120.3 339.799 118.8C309.999 114.5 279.599 113.2 249.599 117.1Z" fill="white"/>
<path d="M163.099 154.4C202.099 122.2 230.699 123.9 260.899 101C291.099 78.1 297.899 86.6 292.599 100.3C287.299 114 255.699 130.1 233.599 130.2" fill="#002451"/>
<path d="M163.099 154.4C177.399 141.6 194.099 131.7 211.799 124.2C220.599 120.3 229.499 116.9 237.899 112.7C244.199 109.6 250.399 106.1 256.099 101.9C263.899 96.2 271.499 89.9 280.599 86.1C291.299 81.4 299.199 85.7 296.199 98.1C292.099 118.9 252.499 132.6 233.599 130.4C233.399 130.4 233.299 130.2 233.299 130.1C233.299 129.9 233.399 129.8 233.599 129.8C243.099 128.7 251.999 125.6 260.499 121.7C270.699 116.9 280.899 110.8 287.999 102.2C290.199 99.3 291.999 94.5 291.299 91.1C290.399 87.6 284.799 89.6 282.199 90.5C273.499 93.9 265.999 99.8 258.299 105.2C252.299 109.3 245.899 112.9 239.299 115.9C230.499 119.9 221.499 123.2 212.699 126.7C194.999 133.5 178.199 142.6 163.099 154.4Z" fill="white"/>
<path d="M321.399 187.6C341.699 164.3 353.399 160.9 352.599 175.6C351.799 190.3 331.899 188.9 304.199 221" fill="#002451"/>
<path d="M321.399 187.6C325.699 181.9 330.299 176.4 335.599 171.6C338.399 169.2 341.399 166.8 344.999 165.5C354.399 162.2 356.199 173.6 353.999 180.2C351.199 187.7 343.599 191.1 337.599 195.4C333.699 197.9 329.699 200.4 325.899 203.1C318.299 208.4 311.199 214.7 304.499 221.3C304.399 221.4 304.199 221.4 304.099 221.3C303.999 221.2 303.999 221 304.099 220.9C312.399 209.4 322.999 199.1 334.899 191.2L340.799 187.4C344.299 185.1 348.199 182.6 349.799 178.7C350.699 176.4 351.499 169.8 348.599 168.7C341.199 167.6 326.899 182.5 321.399 187.6Z" fill="white"/>
<path d="M148.599 300.1C134.899 274 141.499 228.8 154.499 224.7C169.699 219.9 150.999 246.6 160.099 247.6C169.199 248.6 174.099 194.4 194.199 198.4C204.199 200.4 188.599 220.9 188.599 220.9" fill="#002451"/>
<path d="M148.599 300.1C139.899 285.4 137.999 267.5 139.599 250.7C140.899 240.5 144.199 222.3 156.899 221.2C159.999 220.8 163.099 222.9 163.499 226.1C164.299 233 158.899 238.3 158.799 244.9C158.799 246.4 160.399 246.9 161.399 245.9C164.099 243.1 165.199 238.9 166.599 235.3C169.199 227.4 171.199 219.2 174.599 211.2C178.099 202.7 185.799 191.7 196.799 196.1C206.599 201.9 194.499 216.5 188.599 221C190.099 217 191.799 213.1 193.099 209.3C193.899 206.9 194.899 204.2 194.399 202C194.299 201.7 194.299 201.8 194.099 201.7C186.999 200 182.599 208.4 179.499 213.6C175.599 220.7 172.599 228.6 169.399 236.4C167.599 240.4 166.199 244.7 162.999 247.9C161.399 249.4 158.399 249.3 156.999 247.4C155.299 244.7 156.199 241.5 156.399 238.6C156.699 235.7 158.099 229.6 157.499 227.2C157.599 227.3 157.799 227.4 157.799 227.4C157.099 227.2 155.699 227.6 155.099 227.8C148.399 231 145.399 244.6 144.199 251.5C141.699 267.5 142.199 284.7 148.599 300.1Z" fill="white"/>
<path d="M89.5986 279.1C103.099 183.9 164.499 123.3 178.999 127.4C193.499 131.5 147.199 174.1 147.199 174.1" fill="#002451"/>
<path d="M89.5986 279.1C95.5986 228.5 116.099 178.3 151.399 140.9C157.599 134.8 171.399 121.1 180.899 124.6C195.899 132.1 166.099 158.6 159.499 164.6C155.599 168 151.699 171.2 147.499 174.2C147.199 174.4 146.799 174 147.099 173.7C155.299 163.9 163.599 154.5 171.199 144.3C173.799 140.6 176.999 136.3 178.299 132.2C178.599 131.3 178.599 130.5 178.599 130.4C177.799 129.9 177.099 130.1 175.799 130.3C167.799 132.8 161.299 138.8 155.199 144.4C119.799 180.3 98.1986 230 89.5986 279.1Z" fill="white"/>
<path d="M96.3986 302.3C97.5986 311.4 99.7986 320.3 102.799 328.8C107.899 337.3 114.099 340 120.399 339C131.199 337.3 132.099 324.5 130.899 317C123.699 316 103.499 305.9 96.3986 302.3Z" fill="white"/>
<path d="M230.699 299.2C228.799 319.3 213.499 335.3 193.299 334.8C179.499 334.5 166.799 326.1 160.899 314.6C171.599 310.9 213.599 288.7 229.599 272.2C231.299 280.8 231.399 292.5 230.699 299.2Z" fill="white"/>
<path d="M208.199 415.4C296.299 371.8 286.999 270.8 286.999 270.8C213.499 384.7 170.599 374.7 159.499 374.6C148.399 374.5 136.599 374.6 112.999 350.7C132.699 384.8 167.299 409.4 208.199 415.4Z" fill="white"/>
<path d="M130.899 317C98.1986 312.5 90.7986 303.8 85.5986 276.5C80.3986 249.6 107.499 235.6 101.899 293.4" fill="#002451"/>
<path d="M130.899 317C116.699 315.7 99.9986 313.3 91.6986 300.2C87.6986 293.9 85.6986 286.6 83.9986 279.5C82.1986 272 81.1986 263.8 84.7986 256.5C89.5986 247.2 99.1986 248.4 102.399 258.2C104.499 264.3 104.599 270.3 104.399 276.2C104.099 282.1 103.299 287.8 102.099 293.5C101.999 293.8 101.599 293.8 101.599 293.4C101.499 287.6 101.299 281.9 100.799 276.2C100.299 270.8 99.4986 265.1 97.2986 260.2C96.2986 258.2 94.4986 254.8 92.1986 257C87.0986 262.3 86.4986 271.3 88.0986 278.6C89.3986 285.4 90.8986 292.4 94.4986 298.5C101.699 311.3 117.599 314.3 130.899 317Z" fill="white"/>
<path d="M141.699 360.8C142.599 369.2 146.199 377 150.899 383.9C155.799 391.1 161.999 397.4 168.699 403C161.299 398.2 154.299 392.6 148.499 385.9C142.499 379 137.599 371 135.599 361.8C135.499 361.8 141.699 360.8 141.699 360.8Z" fill="#002451"/>
<path d="M170.799 364.7C173.999 383.7 188.999 398.8 203.799 410.3C205.699 411.8 208.699 413.9 210.599 415.3C208.499 414.1 205.299 412.3 203.299 411C191.199 403.4 179.899 394.2 171.899 382.2C168.699 377.3 165.999 372 164.599 366C164.599 365.8 170.799 364.7 170.799 364.7Z" fill="#002451"/>
<path d="M117.125 322.937C120.809 322.21 123.068 317.932 122.171 313.38C121.273 308.829 117.558 305.728 113.874 306.455C110.189 307.181 107.93 311.46 108.828 316.012C109.725 320.563 113.44 323.664 117.125 322.937Z" fill="#002451"/>
<path d="M160.899 314.5C208.199 297.1 279.299 234.8 265.599 222.4C251.899 210.1 230.099 258.1 230.099 258.1" fill="#002451"/>
<path d="M160.899 314.5C176.499 308.3 190.899 299.5 204.599 289.9C218.299 280.3 231.599 270 243.399 258.1C248.699 253 266.699 231.9 263.699 225C259.099 219.7 251.099 228.9 247.999 232.5C241.299 240.4 235.799 249.2 230.199 258.1C230.099 258.3 229.799 258.1 229.899 258C233.899 246.1 246.399 217.4 260.899 217.3C265.499 217.3 270.299 221.1 270.299 225.9C270.399 232.1 266.599 237.2 263.099 241.8C257.599 248.5 251.399 254.1 245.099 259.9C232.599 271.2 219.399 281.8 205.399 291.1C191.499 300.4 176.799 308.9 160.899 314.5Z" fill="white"/>
<path d="M203.599 359.8C208.999 373 219.699 384.2 230.999 392.8C234.899 395.7 239.099 398.4 243.499 400.6C229.499 395.1 216.899 386.2 206.799 375C203.399 371.2 200.299 367.1 197.799 362.2C197.799 362.3 203.599 359.8 203.599 359.8Z" fill="#002451"/>
<path d="M193.362 314.418C199.864 313.135 203.853 305.595 202.271 297.575C200.689 289.556 194.136 284.095 187.634 285.377C181.132 286.659 177.143 294.2 178.725 302.219C180.306 310.239 186.859 315.7 193.362 314.418Z" fill="#002451"/>
<path d="M205.199 303.6L190.399 302.9L206.099 315.1L205.199 303.6Z" fill="white"/>
<path d="M115.399 317.7L123.399 322.8L123.999 319L115.399 317.7Z" fill="white"/>
<path d="M227.699 340.6C231.999 352.6 240.399 363.2 251.099 370.2C254.699 372.6 258.599 374.6 262.699 376.3C258.499 375.1 254.299 373.5 250.299 371.5C238.099 365.4 228.099 355.4 221.899 343C221.899 343.1 227.699 340.6 227.699 340.6Z" fill="#002451"/>
<path d="M421.299 232.4C419.699 232.4 418.399 231.7 416.699 230.8C414.099 229.4 410.599 227.5 403.299 226.6L396.799 225.8L402.799 223.2C408.099 220.9 413.699 219.7 418.499 219.7C423.999 219.7 427.899 221.3 428.899 224.1C429.299 225.2 429.599 227.5 426.499 230C424.499 231.7 422.899 232.4 421.299 232.4Z" fill="#002451"/>
<path d="M418.499 221.4C426.099 221.4 429.999 224.8 425.399 228.6C423.699 230.1 422.499 230.6 421.299 230.6C418.099 230.6 415.499 226.3 403.499 224.8C409.099 222.4 414.299 221.4 418.499 221.4ZM418.499 217.9C414.899 217.9 409.199 218.5 402.099 221.6L390.099 226.8L403.099 228.4C409.999 229.2 413.399 231.1 415.899 232.4C417.599 233.3 419.299 234.2 421.299 234.2C423.899 234.2 426.099 232.7 427.599 231.4C431.599 228.1 430.999 224.8 430.499 223.5C429.199 219.9 424.799 217.9 418.499 217.9Z" fill="white"/>
<path d="M457.099 173.5C450.799 173.5 441.799 169.1 436.699 159.5L433.899 154.2L439.499 156.2C443.499 157.6 447.299 158.3 451.199 158.3C453.199 158.3 454.899 158.1 456.499 158C457.699 157.9 458.699 157.8 459.599 157.8C464.799 157.8 465.699 161.9 465.799 165.4C465.899 167.6 465.199 169.6 463.799 171C462.299 172.6 459.999 173.5 457.099 173.5Z" fill="#002451"/>
<path d="M438.799 158.4C443.799 160.2 447.899 160.7 451.299 160.7C454.999 160.7 457.799 160.1 459.699 160.1C462.199 160.1 463.399 161.1 463.599 165.5C463.799 169.3 460.999 171.2 457.199 171.2C451.399 171.1 443.299 166.9 438.799 158.4ZM429.099 149.9L434.699 160.5C437.099 165.2 440.699 169.1 444.999 171.8C448.899 174.3 453.299 175.7 457.199 175.7C460.699 175.7 463.699 174.6 465.699 172.5C467.499 170.6 468.399 168 468.299 165.2C467.999 158.7 465.099 155.4 459.699 155.4C458.599 155.4 457.499 155.5 456.299 155.6C454.799 155.8 453.199 155.9 451.299 155.9C447.699 155.9 444.099 155.2 440.399 153.9L429.099 149.9Z" fill="white"/>
<path d="M315.899 415.4C257.399 350.7 258.599 260.5 335.999 219.5C349.099 212.6 362.099 207.1 378.499 203.4C380.499 203 382.599 203.7 383.999 205C395.599 217.1 403.499 228.8 410.599 241.8C444.199 302.6 420.499 367.2 360.799 400C347.599 407.2 335.699 412.4 319.699 416.5C318.299 416.9 316.799 416.4 315.899 415.4Z" fill="#DC222D" stroke="white" stroke-width="4.2818" stroke-miterlimit="10"/>
<path d="M396.299 237.6C410.399 279.5 400.499 327.2 376.599 363.6C368.499 375.8 358.799 386.9 347.399 396C367.599 375.4 382.699 350.2 391.399 322.7C400.199 295.3 402.399 265.9 396.299 237.6Z" fill="white"/>
<path d="M323.599 248.1C309.899 269.2 299.099 295.2 297.599 321.9C297.599 322.7 298.299 323.3 299.099 323.1C300.199 322.8 301.799 322.5 302.999 322.2C303.499 322.1 303.799 321.6 303.899 321.1C305.899 293.9 315.499 268.3 331.199 248.4C331.899 247.5 331.099 246.4 329.999 246.5C328.799 246.6 328.999 246.5 324.399 247.6C323.999 247.7 323.799 247.9 323.599 248.1Z" fill="white"/>
<path d="M305.999 265.7C314.399 262.6 319.199 261.6 330.299 259.9C330.499 259.9 330.599 259.8 330.699 259.6C331.899 257.8 333.099 256.1 334.399 254.4C334.799 253.9 334.399 253.3 333.799 253.3C322.499 254.8 317.399 255.5 308.399 258.4C308.199 258.5 308.099 258.6 307.999 258.7C306.999 260.7 306.099 262.6 305.099 264.6C304.899 265.3 305.399 265.9 305.999 265.7Z" fill="white" stroke="#DC222D" stroke-width="2.6951" stroke-miterlimit="10"/>
<path d="M298.399 281.4C303.699 279.3 311.999 276.7 322.399 274.9C322.599 274.9 322.799 274.7 322.899 274.5C323.799 272.7 324.799 270.9 325.699 269.1C325.999 268.6 325.599 268 324.999 268.1C314.399 269.8 309.499 270.7 300.799 273.7C300.599 273.8 300.499 273.9 300.399 274.1C299.499 276.3 298.699 278.6 297.899 280.9C297.899 281.2 298.199 281.5 298.399 281.4Z" fill="white" stroke="#DC222D" stroke-width="2.6951" stroke-miterlimit="10"/>
<path d="M291.599 299.1C291.499 299.3 291.799 299.5 291.999 299.4C292.699 299.1 293.699 298.7 294.199 298.5C302.299 295.3 306.599 294.1 317.299 292.1C317.499 292.1 317.699 291.9 317.799 291.7C318.499 289.6 319.299 287.6 320.099 285.6C320.299 285.1 319.899 284.6 319.399 284.7C307.999 286.7 302.899 287.9 293.999 291.2C293.799 291.3 293.599 291.4 293.599 291.6C292.799 294.1 292.099 296.6 291.599 299.1Z" fill="white" stroke="#DC222D" stroke-width="2.6951" stroke-miterlimit="10"/>
<path d="M292.499 315.4C293.199 315.1 293.799 314.8 294.499 314.6C301.799 311.7 304.999 310.7 314.399 308.7C314.699 308.6 314.899 308.4 314.899 308.2C315.399 306 315.799 303.9 316.399 301.7C316.499 301.2 316.099 300.8 315.599 300.9C304.699 303.1 300.199 304.4 291.799 307.8C291.299 308 290.799 308.2 290.299 308.4C290.099 308.5 289.899 308.7 289.899 308.9C289.499 311.2 289.199 313.6 288.899 316C288.799 316.5 289.399 316.9 289.799 316.7C290.699 316.1 291.599 315.7 292.499 315.4Z" fill="white" stroke="#DC222D" stroke-width="2.6951" stroke-miterlimit="10"/>
<path d="M429.799 301.8C426.599 296.2 411.399 284.3 405.699 283.7C399.999 283.1 390.299 285 385.199 289.5C385.199 289.5 381.899 295.1 381.599 300.9C380.799 301.2 380.199 301.5 379.599 301.8C375.399 304.5 373.699 316 374.499 322.5C374.799 324.7 376.599 326.3 379.099 327.3C374.999 330.6 373.499 339.2 373.999 343.3C374.699 348.5 388.999 355.3 403.199 366.5L394.299 375.8C394.299 375.8 401.799 379.7 412.099 369.7C418.699 363.2 420.699 355.2 417.299 347.1C428.099 343.1 428.099 334.5 425.799 327.3C425.899 327.4 425.999 327.5 426.099 327.6C436.899 324.7 432.999 307.5 429.799 301.8Z" fill="white"/>
<path d="M381.599 301C390.799 297.3 401.499 299 410.099 303.7C418.799 308.5 424.899 317.8 425.899 327.5C423.699 323.2 421.299 319.2 418.299 315.8C409.299 305.4 395.099 300.7 381.599 301Z" fill="#002451"/>
<path d="M379.199 327.3C387.499 323 397.899 324.9 405.299 330.3C410.999 334.5 415.199 340.6 417.299 347.2C415.199 345.1 413.399 342.9 411.299 340.9C402.599 332 391.899 326.6 379.199 327.3Z" fill="#002451"/>
<path d="M287.399 372.1C305.599 362.7 357.399 362.1 375.199 392.8C389.599 380.6 392.799 375.8 392.799 375.8C377.699 343.5 319.699 327 279.199 349.5C280.399 358.4 287.399 372.1 287.399 372.1Z" fill="white"/>
<path d="M303.599 242.4C322.999 223.7 404.299 228.7 420.899 269.1C415.199 253.3 414.699 247.7 414.699 247.7C402.199 212.3 350.199 208.5 317.199 226.9C307.799 236.6 303.599 242.4 303.599 242.4Z" fill="white"/>
<path d="M332.899 413.4C329.499 413.4 327.199 412.5 326.199 410.6C325.599 409.5 325.199 407.8 326.799 405.3C329.299 401.4 331.499 399.8 334.999 399.8C336.199 399.8 337.499 400 338.999 400.2C341.199 400.5 343.899 400.9 347.599 400.9C350.199 400.9 352.799 400.7 355.699 400.3L363.899 399.2L357.299 404.1C348.799 410.5 338.699 413.4 332.899 413.4Z" fill="#002451"/>
<path d="M334.999 402C337.699 402 341.299 403.1 347.599 403.1C349.999 403.1 352.699 402.9 355.999 402.5C348.299 408.2 338.699 411.2 332.899 411.2C328.799 411.2 326.599 409.6 328.599 406.4C330.799 403 332.499 402 334.999 402ZM371.799 396.2L355.499 398.3C352.699 398.7 350.199 398.8 347.699 398.8C344.199 398.8 341.499 398.4 339.399 398.1C337.799 397.9 336.399 397.7 335.099 397.7C329.899 397.7 327.199 400.8 325.099 404.2C322.899 407.7 323.799 410.4 324.499 411.7C325.499 413.5 327.799 415.6 333.099 415.6C339.199 415.6 349.799 412.6 358.699 406L371.799 396.2Z" fill="white"/>
<path d="M299.699 244.5C332.099 230.2 339.299 245.2 344.299 227.4C347.099 217.4 332.499 216.7 318.799 224.6" fill="#002451"/>
<path d="M299.699 244.5C308.599 239 319.199 235.7 329.799 235.3C333.199 235.1 336.899 235.2 338.699 233.8C340.799 232.2 341.899 228.7 342.599 226.1C343.199 223.1 341.199 221.7 338.399 221.1C331.899 220 324.999 222.2 318.799 224.7C324.999 220.1 337.699 214.4 344.599 220.3C347.899 223.5 346.399 228.5 344.899 232.2C343.399 236.3 339.899 239.1 335.299 239.3C329.999 239.6 324.999 239.4 319.799 240.1C313.099 240.8 306.399 242.5 299.699 244.5Z" fill="white"/>
</svg>
